<svg width="222" height="40" viewBox="0 0 222 40" fill="none" xmlns="http://www.w3.org/2000/svg">
<g clip-path="url(#clip0_285_754)">
<path d="M42.2572 28.3262C42.1302 27.9892 31.5768 5.24188 31.406 4.93085C30.8502 3.48376 29.8774 2.20945 28.5354 1.35847C25.2558 -0.73225 21.0432 0.464301 19.1215 4.03235C17.8033 6.47729 17.9065 9.40604 19.1612 11.6739C19.2882 12.0109 29.389 33.782 29.5598 34.0973C29.6868 34.4342 29.8377 34.7582 30.0124 35.0736C30.5683 36.5207 31.541 37.795 32.883 38.6459C36.1626 40.7367 40.3752 39.5401 42.2969 35.972C43.6151 33.5227 43.5119 30.5984 42.2572 28.3262Z" fill="#A4A7BA"/>
<path d="M30.0721 12.9344C31.2275 11.5954 31.9342 9.79402 31.9342 7.8156C31.9342 3.68167 28.8532 0.32959 25.0535 0.32959C22.7149 0.32959 20.6542 1.59956 19.4115 3.53479C19.1852 3.79829 2.05272 26.7704 1.86214 27.0641C0.706738 28.4031 0 30.2044 0 32.1829C0 36.3169 3.08106 39.6689 6.88077 39.6689C9.21936 39.6689 11.28 38.3989 12.5228 36.4637C12.7491 36.2002 29.8815 13.2281 30.0721 12.9344Z" fill="#A4A7BA"/>
<path d="M59.5565 12.9344C60.7119 11.5954 61.4187 9.79402 61.4187 7.8156C61.4187 3.68167 58.3376 0.32959 54.5379 0.32959C52.1993 0.32959 50.1386 1.59956 48.8959 3.53479C48.6696 3.79829 31.5371 26.7704 31.3466 27.0641C30.1912 28.4031 29.4844 30.2044 29.4844 32.1829C29.4844 36.3169 32.5655 39.6689 36.3652 39.6689C38.7038 39.6689 40.7644 38.3989 42.0072 36.4637C42.2335 36.2002 59.3659 13.2281 59.5565 12.9344Z" fill="#A4A7BA"/>
<path d="M96.9056 36.0307C95.1108 32.5625 93.1686 29.138 91.0791 25.7572C88.9896 22.3765 86.7662 19.1851 84.4088 16.1833V36.0307H78.2207V5.73486H83.3239C84.2079 6.69664 85.1857 7.87699 86.2572 9.27593C87.3288 10.6749 88.4137 12.1758 89.512 13.7788C90.6371 15.3526 91.7488 16.9993 92.8472 18.7188C93.9455 20.4092 94.9768 22.0413 95.9412 23.615V5.73486H102.169V36.0307H96.9056Z" fill="#A4A7BA"/>
<path d="M126.233 35.2404C125.215 35.561 123.902 35.8524 122.295 36.1148C120.688 36.4062 119 36.5519 117.232 36.5519C115.437 36.5519 113.937 36.2896 112.732 35.7651C111.553 35.2404 110.615 34.5118 109.919 33.5791C109.222 32.6174 108.727 31.4808 108.432 30.1693C108.137 28.8577 107.99 27.4151 107.99 25.8413V13.0322H113.977V25.0544C113.977 27.1528 114.232 28.6683 114.741 29.601C115.25 30.5336 116.201 30.9999 117.594 30.9999C118.022 30.9999 118.478 30.9853 118.96 30.9562C119.442 30.8978 119.871 30.8396 120.246 30.7813V13.0322H126.233V35.2404Z" fill="#A4A7BA"/>
<path d="M131.652 7.30751L137.639 6.2583V13.0344H144.832V18.4553H137.639V26.543C137.639 27.9128 137.854 29.0057 138.282 29.8218C138.738 30.6378 139.635 31.0458 140.974 31.0458C141.617 31.0458 142.274 30.9875 142.943 30.871C143.64 30.7252 144.269 30.5358 144.832 30.3026L145.676 35.3738C144.953 35.6944 144.149 35.9713 143.265 36.2044C142.381 36.4376 141.296 36.5541 140.01 36.5541C138.376 36.5541 137.023 36.321 135.952 35.8546C134.88 35.3592 134.023 34.6889 133.38 33.8437C132.737 32.9693 132.282 31.9202 132.014 30.696C131.773 29.472 131.652 28.1168 131.652 26.6304V7.30751Z" fill="#A4A7BA"/>
<path d="M162.446 18.8022C161.911 18.6565 161.281 18.5109 160.558 18.3652C159.835 18.1902 159.058 18.1028 158.227 18.1028C157.852 18.1028 157.397 18.1466 156.861 18.2339C156.352 18.2923 155.964 18.3652 155.696 18.4525V36.0268H149.709V14.2558C150.78 13.8478 152.039 13.4688 153.486 13.1191C154.959 12.7402 156.593 12.5508 158.388 12.5508C158.709 12.5508 159.098 12.5799 159.553 12.6382C160.009 12.6673 160.464 12.7256 160.919 12.8131C161.375 12.8713 161.83 12.9588 162.286 13.0753C162.741 13.1628 163.13 13.2794 163.451 13.4251L162.446 18.8022Z" fill="#A4A7BA"/>
<path d="M172.649 36.0292H166.662V13.034H172.649V36.0292ZM173.211 6.38907C173.211 7.584 172.85 8.5312 172.126 9.23067C171.43 9.90101 170.599 10.2362 169.635 10.2362C168.671 10.2362 167.827 9.90101 167.104 9.23067C166.407 8.5312 166.059 7.584 166.059 6.38907C166.059 5.19414 166.407 4.26152 167.104 3.59119C167.827 2.89172 168.671 2.54199 169.635 2.54199C170.599 2.54199 171.43 2.89172 172.126 3.59119C172.85 4.26152 173.211 5.19414 173.211 6.38907Z" fill="#A4A7BA"/>
<path d="M186.713 36.4646C184.972 36.4354 183.552 36.2314 182.454 35.8525C181.382 35.4737 180.525 34.949 179.882 34.2787C179.266 33.5792 178.837 32.7486 178.596 31.7868C178.382 30.7959 178.275 29.6884 178.275 28.4644V3.15223L184.262 2.10303V27.1528C184.262 27.7357 184.302 28.2604 184.383 28.7266C184.463 29.1929 184.61 29.5864 184.825 29.907C185.066 30.2276 185.4 30.4899 185.829 30.6939C186.258 30.8979 186.834 31.029 187.557 31.0874L186.713 36.4646Z" fill="#A4A7BA"/>
<path d="M196.977 36.0292H190.99V13.034H196.977V36.0292ZM197.54 6.38907C197.54 7.584 197.178 8.5312 196.455 9.23067C195.758 9.90101 194.928 10.2362 193.963 10.2362C192.999 10.2362 192.155 9.90101 191.432 9.23067C190.735 8.5312 190.387 7.584 190.387 6.38907C190.387 5.19414 190.735 4.26152 191.432 3.59119C192.155 2.89172 192.999 2.54199 193.963 2.54199C194.928 2.54199 195.758 2.89172 196.455 3.59119C197.178 4.26152 197.54 5.19414 197.54 6.38907Z" fill="#A4A7BA"/>
<path d="M211.002 20.0269L215.181 13.0322H221.369L214.136 24.0927C215.744 26.2785 217.204 28.4061 218.516 30.4753C219.829 32.5446 220.874 34.3953 221.651 36.0274H215.221C215.007 35.5902 214.739 35.051 214.418 34.4098C214.096 33.7395 213.735 33.0546 213.333 32.3551C212.931 31.6265 212.502 30.9124 212.047 30.213C211.618 29.4843 211.19 28.8287 210.761 28.2457C210.359 28.7995 209.944 29.4115 209.515 30.0818C209.114 30.7521 208.725 31.4371 208.35 32.1366C207.975 32.8068 207.6 33.4772 207.225 34.1475C206.877 34.8179 206.569 35.4444 206.301 36.0274H200.193C200.515 35.2987 200.957 34.4389 201.519 33.448C202.082 32.4571 202.684 31.4371 203.327 30.3879C203.997 29.3095 204.694 28.2457 205.417 27.1966C206.14 26.1182 206.85 25.1127 207.546 24.18C206.341 22.3439 205.136 20.4933 203.93 18.628C202.725 16.7336 201.532 14.8683 200.354 13.0322H206.823L211.002 20.0269Z" fill="#A4A7BA"/>
</g>
<defs>
<clipPath id="clip0_285_754">
<rect width="222" height="40" fill="white"/>
</clipPath>
</defs>
</svg>
