<svg width="158" height="40" viewBox="0 0 158 40" fill="none" xmlns="http://www.w3.org/2000/svg">
<mask id="mask0_285_724" style="mask-type:luminance" maskUnits="userSpaceOnUse" x="0" y="0" width="158" height="40">
<path d="M157.651 0.270996H0.787109V39.7313H157.651V0.270996Z" fill="white"/>
</mask>
<g mask="url(#mask0_285_724)">
<path d="M12.4043 24.5397L16.0293 19.6528H13.1082L12.4043 24.5397Z" fill="#A4A7BA"/>
<path d="M8.8846 4.77783L8.807 5.85224H12.9364C13.5905 5.85224 14.1282 6.32756 14.1282 6.91675C14.1282 7.51089 13.596 7.98125 12.9364 7.98125H8.71831C8.6906 7.98125 8.67951 7.97629 8.6518 7.97629L8.50768 10.0459H10.9853C11.6394 10.0459 12.1715 10.5162 12.1715 11.1104C12.1715 11.6946 11.6449 12.1749 10.9853 12.1749H8.35248L7.99219 17.2598H13.4852L18.4184 4.78773C18.4239 4.77783 8.8846 4.77783 8.8846 4.77783Z" fill="#A4A7BA"/>
<path fill-rule="evenodd" clip-rule="evenodd" d="M24.5994 1.94576L19.2616 15.4031H22.676C23.646 15.4279 24.2114 16.3537 23.6627 17.0519L7.88205 38.2677C7.01736 39.2876 5.5762 38.5548 5.72032 37.5447L8.04279 21.4881H4.20156C3.54196 21.498 2.92115 20.9484 3.01538 20.3641L4.35122 1.52986C4.39556 0.970373 4.92214 0.534668 5.54294 0.534668H23.4686C24.3666 0.579229 24.8433 1.32191 24.5994 1.94576ZM21.8002 2.65378H6.66815L5.48197 19.369H9.41189C10.1324 19.3987 10.6867 19.9483 10.5869 20.5671L8.7412 33.2917L20.4699 17.5321H17.5876C16.5954 17.6063 16.1686 16.8092 16.468 16.116L21.8002 2.65378Z" fill="#A4A7BA"/>
<path d="M46.2069 9.59101L53.8727 10.4029L47.5372 20.236L52.9304 28.7916L46.1403 30.678L43.2192 24.7614L39.7771 30.7078L32.7598 28.4451L38.735 20.0331L33.2808 11.1852L40.7194 9.59101L43.38 15.4185L46.2069 9.59101ZM53.723 10.7198L62.3644 10.3139L61.2281 30.0691L54.3771 30.3909L53.723 10.7198ZM92.0633 20.9044C92.0633 22.2875 92.0153 23.6655 91.9192 25.0387C91.8231 26.4118 91.7086 27.7899 91.5755 29.1729L83.2335 29.5195C83.4811 27.8361 83.7028 26.1527 83.8986 24.4693C84.1019 22.7793 84.2035 21.0876 84.2035 19.3943C84.2035 19.2887 84.1979 19.1055 84.1869 18.8447C84.1795 18.574 84.1591 18.2688 84.1259 17.9288C84.1037 17.5921 84.0649 17.2438 84.0095 16.8841C83.9688 16.5177 83.9042 16.1843 83.8155 15.8839C83.7416 15.5737 83.6436 15.3228 83.5217 15.1314C83.4034 14.9366 83.263 14.8392 83.1004 14.8392C82.7235 14.8392 82.426 14.9696 82.208 15.2304C81.99 15.4812 81.8274 15.7866 81.7202 16.1463C81.6242 16.5028 81.5651 16.8692 81.5429 17.2455C81.5207 17.6152 81.5096 17.9155 81.5096 18.1467C81.5096 18.5526 81.5207 18.9587 81.5429 19.3646C81.5651 19.7706 81.5761 20.1865 81.5761 20.6123C81.5761 22.1108 81.5318 23.6044 81.4431 25.0931C81.3692 26.5851 81.2731 28.0803 81.1549 29.5789L73.4558 29.8363C73.7034 28.1563 73.9195 26.4795 74.1043 24.8059C74.3002 23.1226 74.3981 21.4342 74.3981 19.7409C74.3981 19.6353 74.3925 19.4422 74.3814 19.1616C74.3704 18.8811 74.3482 18.5675 74.3149 18.2209C74.2928 17.871 74.2558 17.5079 74.2041 17.1316C74.1486 16.7554 74.0784 16.4121 73.9934 16.1018C73.9158 15.7816 73.8179 15.5209 73.6997 15.3195C73.5814 15.1148 73.4355 15.0125 73.2618 15.0125C72.992 15.0125 72.7648 15.1099 72.58 15.3046C72.3952 15.4862 72.2437 15.7271 72.1255 16.0275C72.0146 16.3279 71.9278 16.6612 71.865 17.0276C71.8095 17.3875 71.7652 17.7406 71.7319 18.0872C71.7135 18.4371 71.6987 18.7622 71.6876 19.0626C71.6876 19.3498 71.682 19.5659 71.671 19.7112L71.3107 30.3018H63.1293C63.303 28.6679 63.4749 27.0291 63.6448 25.3852C63.8296 23.7415 63.9867 22.1027 64.116 20.4687C64.2564 18.825 64.371 17.1811 64.4596 15.5373C64.5446 13.8936 64.5871 12.2498 64.5871 10.6059L72.3195 10.3139L72.2862 11.9972C72.5227 11.7266 72.7943 11.4559 73.101 11.1852C73.404 10.9047 73.7218 10.6571 74.0544 10.4426C74.4018 10.2214 74.7658 10.0432 75.1464 9.90781C75.5344 9.77252 75.9335 9.70488 76.3436 9.70488C76.8758 9.70488 77.3524 9.74283 77.7737 9.81875C78.1987 9.88808 78.5774 10.0102 78.91 10.1851C79.2574 10.3568 79.5604 10.5977 79.819 10.908C80.0814 11.2083 80.3087 11.5913 80.5008 12.0567C80.8482 11.7167 81.1955 11.4014 81.5429 11.111C81.9013 10.8205 82.2745 10.5746 82.6626 10.3732C83.0542 10.1587 83.4774 9.99368 83.9319 9.87812C84.3864 9.76266 84.889 9.70488 85.4395 9.70488C86.489 9.70488 87.3814 9.88808 88.1168 10.2544C88.8558 10.6142 89.4692 11.0928 89.957 11.6903C90.4522 12.291 90.8365 12.9776 91.1099 13.7499C91.3908 14.5257 91.6014 15.3294 91.7418 16.1612C91.8822 16.993 91.9691 17.8198 92.0023 18.6418C92.043 19.4636 92.0633 20.2179 92.0633 20.9044ZM113.614 19.627C113.614 20.5051 113.501 21.355 113.276 22.1769C113.047 22.9922 112.716 23.7563 112.284 24.4693C111.863 25.1856 111.343 25.8441 110.726 26.4448C110.12 27.0356 109.433 27.5423 108.664 27.9648C107.903 28.3907 107.074 28.7257 106.176 28.9699C105.278 29.201 104.326 29.3165 103.321 29.3165C102.345 29.3165 101.414 29.2059 100.527 28.9848C99.6479 28.7603 98.8238 28.45 98.0552 28.0539C97.2866 27.6479 96.59 27.1643 95.9655 26.6033C95.3484 26.0322 94.8163 25.4034 94.3692 24.7169C93.9368 24.0203 93.5969 23.2761 93.3493 22.4839C93.1091 21.6916 92.989 20.8648 92.989 20.0033C92.989 19.1616 93.1035 18.3397 93.3326 17.5376C93.5581 16.7256 93.8832 15.9615 94.3082 15.2452C94.7405 14.529 95.2597 13.8721 95.8657 13.2747C96.4718 12.6739 97.148 12.1557 97.8945 11.72C98.652 11.2843 99.4705 10.9459 100.35 10.705C101.226 10.464 102.151 10.3435 103.127 10.3435C104.694 10.3435 106.122 10.5614 107.412 10.9971C108.712 11.4328 109.817 12.0567 110.726 12.8687C111.646 13.6707 112.354 14.6461 112.849 15.7948C113.359 16.9369 113.614 18.2143 113.614 19.627ZM106.403 20.0033C106.403 19.5875 106.333 19.1864 106.192 18.8002C106.063 18.4041 105.869 18.0558 105.61 17.7555C105.348 17.4452 105.023 17.1993 104.635 17.0178C104.254 16.823 103.816 16.7256 103.321 16.7256C102.811 16.7256 102.356 16.8082 101.957 16.9731C101.555 17.1382 101.207 17.3643 100.915 17.6515C100.634 17.9321 100.418 18.2671 100.267 18.6566C100.115 19.0329 100.04 19.4339 100.04 19.8597C100.04 20.2658 100.104 20.6717 100.234 21.0777C100.363 21.4837 100.557 21.8501 100.816 22.1769C101.078 22.5069 101.398 22.7743 101.774 22.979C102.166 23.1803 102.617 23.281 103.127 23.281C103.633 23.281 104.088 23.1935 104.491 23.0186C104.901 22.8371 105.246 22.5961 105.527 22.2957C105.808 21.9854 106.024 21.6323 106.176 21.2362C106.327 20.8401 106.403 20.4291 106.403 20.0033ZM133.785 16.7554C133.785 17.5079 133.709 18.1945 133.558 18.815C133.417 19.4224 133.19 19.9835 132.876 20.4984C132.562 21.01 132.155 21.4837 131.656 21.9195C131.157 22.3551 130.557 22.771 129.855 23.1671L133.718 29.3165L126.413 30.5939L123.913 24.4148L121.895 24.4693L121.601 30.5048H114.623C114.675 28.2998 114.723 26.1048 114.767 23.9197C114.822 21.7346 114.882 19.5395 114.944 17.3347C114.967 16.2223 114.989 15.1198 115.011 14.0272C115.033 12.9347 115.076 11.8322 115.138 10.7198C115.9 10.469 116.648 10.2611 117.383 10.096C118.119 9.93092 118.854 9.8055 119.589 9.71972C120.336 9.62399 121.088 9.56123 121.845 9.53155C122.614 9.49199 123.399 9.47217 124.201 9.47217C125.435 9.47217 126.627 9.62728 127.776 9.93759C128.933 10.2379 129.955 10.6918 130.841 11.2991C131.732 11.9098 132.442 12.669 132.97 13.5767C133.513 14.4877 133.785 15.5473 133.785 16.7554ZM126.507 17.2208C126.507 16.8115 126.442 16.4385 126.313 16.1018C126.195 15.7618 126.01 15.4714 125.759 15.2304C125.522 14.9795 125.219 14.7864 124.85 14.6511C124.495 14.5059 124.074 14.4332 123.586 14.4332C123.368 14.4332 123.157 14.4481 122.954 14.4778C122.747 14.4976 122.546 14.5306 122.35 14.5768L122.089 19.9736H122.483C122.948 19.9736 123.42 19.9208 123.896 19.8152C124.38 19.7095 124.813 19.5445 125.193 19.3201C125.581 19.0989 125.895 18.8134 126.136 18.4635C126.383 18.1169 126.507 17.7027 126.507 17.2208ZM149.05 9.96728L155.38 29.4898L147.326 30.4206L146.351 27.1379H142.648L141.839 30.4206L133.558 29.6928L140.021 10.3732L149.05 9.96728ZM143.33 22.7017H145.769L144.532 17.6515L143.33 22.7017Z" fill="#A4A7BA"/>
</g>
</svg>
