<svg width="239" height="40" viewBox="0 0 239 40" fill="none" xmlns="http://www.w3.org/2000/svg">
<g clip-path="url(#clip0_285_733)">
<path d="M18.387 39.4573C8.23136 39.4573 0 30.524 0 19.5023V0.540527C10.1557 0.540527 18.387 9.47386 18.387 20.4956V39.4573Z" fill="#A4A7BA"/>
<path d="M20 23.323V13.254C20 6.23278 25.2449 0.540527 31.7144 0.540527V10.613C31.7144 17.6343 26.4695 23.323 20 23.323Z" fill="#A4A7BA"/>
<path d="M46.4797 39.4619H33.0472C25.8404 39.4619 20.002 33.1221 20.002 25.3042H33.4345C40.6381 25.3042 46.4797 31.644 46.4797 39.4619Z" fill="#A4A7BA"/>
<path d="M92.3106 37.5555H85.2379L76.7194 21.3106L71.9598 27.5382V37.5555H65.2207V2.65186H71.9598V18.6313L83.681 2.65186H91.1318L81.3679 16.1692L92.3106 37.5555Z" fill="#A4A7BA"/>
<path d="M96.2832 37.5495V12.5908H102.667V16.1149C103.023 15.5035 103.482 14.9161 104.046 14.3529C104.624 13.7735 105.351 13.2988 106.225 12.9287C107.1 12.5586 108.138 12.3735 109.339 12.3735C110.748 12.3735 112.06 12.6713 113.276 13.2666C114.507 13.8621 115.5 14.8035 116.256 16.0908C117.013 17.3621 117.391 19.0276 117.391 21.0874V37.5495H110.896V21.9563C110.896 20.6047 110.525 19.5908 109.784 18.9149C109.043 18.239 108.138 17.9012 107.071 17.9012C106.359 17.9012 105.669 18.038 105.002 18.3115C104.35 18.5851 103.816 18.9955 103.401 19.5425C102.986 20.0896 102.778 20.7655 102.778 21.5702V37.5495H96.2832Z" fill="#A4A7BA"/>
<path d="M127.989 26.6908C127.974 27.962 128.159 29.0724 128.545 30.0218C128.93 30.9551 129.486 31.6793 130.213 32.1942C130.954 32.6931 131.844 32.9425 132.882 32.9425C133.994 32.9425 134.965 32.6851 135.795 32.1701C136.641 31.6551 137.226 30.8104 137.552 29.6355H143.402C143.15 31.4057 142.497 32.9184 141.445 34.1736C140.407 35.4287 139.146 36.3862 137.664 37.046C136.181 37.7058 134.639 38.0357 133.037 38.0357C130.769 38.0357 128.767 37.5207 127.032 36.4908C125.312 35.4448 123.97 33.9724 123.007 32.0735C122.043 30.1747 121.561 27.9379 121.561 25.3631C121.561 22.8688 121.998 20.6241 122.873 18.6286C123.748 16.6171 125.016 15.0321 126.676 13.8734C128.352 12.6987 130.361 12.1113 132.704 12.1113C135.047 12.1113 137.011 12.6505 138.598 13.7286C140.199 14.7907 141.4 16.2792 142.201 18.1941C143.016 20.0929 143.424 22.2896 143.424 24.7839V26.6908H127.989ZM127.966 22.4907H137.352C137.352 21.4931 137.182 20.5758 136.841 19.739C136.5 18.9021 135.981 18.2424 135.284 17.7597C134.602 17.2768 133.742 17.0355 132.704 17.0355C131.696 17.0355 130.836 17.3011 130.124 17.8321C129.427 18.347 128.893 19.0229 128.522 19.8597C128.152 20.6964 127.966 21.5735 127.966 22.4907Z" fill="#A4A7BA"/>
<path d="M178.694 12.5928L171.132 37.5515H165.972L161.68 22.4411L157.409 37.5515H152.383L144.932 12.5928H150.67L155.074 28.0652H155.252L159.478 12.5928H164.104L168.374 28.0652H168.552L172.823 12.5928H178.694Z" fill="#A4A7BA"/>
<path d="M188.703 12.5981V37.5568H182.497V12.5981H188.703ZM188.769 2.67725V9.02557H182.453V2.67725H188.769Z" fill="#A4A7BA"/>
<path d="M203.684 38.0357C202.083 38.0357 200.541 37.754 199.058 37.1908C197.575 36.6115 196.322 35.7104 195.299 34.4873C194.276 33.2483 193.624 31.6471 193.342 29.6839H198.969C199.162 30.5689 199.51 31.2689 200.015 31.7839C200.533 32.2988 201.119 32.669 201.772 32.8942C202.424 33.1034 203.047 33.208 203.64 33.208C204.885 33.208 205.886 32.9988 206.642 32.5804C207.413 32.1459 207.799 31.4861 207.799 30.6012C207.799 29.9253 207.569 29.3861 207.109 28.9839C206.665 28.5816 205.923 28.2758 204.885 28.0666L200.837 27.1494C198.806 26.6827 197.175 25.8941 195.944 24.7839C194.714 23.6574 194.083 22.0643 194.054 20.0045C194.054 18.508 194.417 17.1642 195.144 15.9734C195.885 14.7826 196.975 13.8413 198.413 13.1493C199.851 12.4573 201.616 12.1113 203.707 12.1113C206.539 12.1113 208.8 12.7872 210.49 14.1389C212.195 15.4907 213.063 17.3976 213.092 19.8597H207.666C207.502 18.8941 207.058 18.1539 206.331 17.639C205.619 17.1079 204.722 16.8424 203.64 16.8424C202.513 16.8424 201.586 17.0597 200.86 17.4941C200.133 17.9286 199.77 18.5884 199.77 19.4735C199.77 20.1333 200.066 20.6562 200.66 21.0425C201.253 21.4125 202.172 21.7344 203.417 22.008L207.154 22.9252C208.444 23.2631 209.489 23.7298 210.29 24.3252C211.106 24.9045 211.736 25.5402 212.181 26.2321C212.625 26.9241 212.929 27.6241 213.092 28.3321C213.27 29.0241 213.359 29.6517 213.359 30.2149C213.359 31.8724 212.952 33.2885 212.136 34.4632C211.321 35.6218 210.186 36.5069 208.733 37.1184C207.28 37.7299 205.597 38.0357 203.684 38.0357Z" fill="#A4A7BA"/>
<path d="M217.914 37.5498V1.68066H224.364V16.1877C224.735 15.6083 225.202 15.0371 225.765 14.4738C226.329 13.8946 227.033 13.4118 227.878 13.0256C228.723 12.6393 229.754 12.4463 230.97 12.4463C232.438 12.4463 233.772 12.7601 234.973 13.3877C236.189 13.9991 237.16 14.8922 237.887 16.067C238.628 17.2417 238.999 18.6738 238.999 20.3636V37.5498H232.482V21.4015C232.482 20.275 232.104 19.4142 231.348 18.8187C230.606 18.2072 229.702 17.9015 228.634 17.9015C227.937 17.9015 227.263 18.0383 226.61 18.3118C225.958 18.5854 225.424 19.0038 225.009 19.567C224.609 20.1142 224.408 20.798 224.408 21.6187V37.5498H217.914Z" fill="#A4A7BA"/>
</g>
<defs>
<clipPath id="clip0_285_733">
<rect width="239" height="40" fill="white"/>
</clipPath>
</defs>
</svg>
