<svg width="226" height="40" viewBox="0 0 226 40" fill="none" xmlns="http://www.w3.org/2000/svg">
<g clip-path="url(#clip0_285_710)">
<path d="M28.3753 8.35982C29.2216 7.52542 29.7476 6.373 29.7476 5.1009C29.7476 2.55327 27.6438 0.487793 25.049 0.487793C23.4085 0.487793 21.9666 1.31535 21.1272 2.56694C20.9043 2.7858 2.20074 25.4204 2.02659 25.6803C1.18022 26.5147 0.654297 27.6671 0.654297 28.9392C0.654297 31.4868 2.75801 33.5523 5.35283 33.5523C6.99331 33.5523 8.43525 32.7248 9.27465 31.4732C9.49756 31.2509 28.2011 8.61971 28.3753 8.35982Z" fill="#A4A7BA"/>
<path d="M39.2014 19.1025C40.0513 18.2681 40.5772 17.1156 40.5772 15.8401C40.5772 13.2925 38.4735 11.2271 35.8787 11.2271C34.2382 11.2271 32.7962 12.0546 31.9534 13.3062C31.727 13.5284 21.905 25.4151 21.7274 25.6785C20.8775 26.5128 20.3516 27.6653 20.3516 28.9408C20.3516 31.4884 22.4553 33.5539 25.0501 33.5539C26.6906 33.5539 28.1325 32.7264 28.9754 31.4748C29.1983 31.2559 39.0238 19.3658 39.2014 19.1025Z" fill="#A4A7BA"/>
<path d="M49.4479 5.10091C49.4479 7.64853 47.3442 9.714 44.7493 9.714C42.1545 9.714 40.0508 7.64853 40.0508 5.10091C40.0508 2.55327 42.1545 0.487793 44.7493 0.487793C47.3442 0.487793 49.4479 2.55327 49.4479 5.10091Z" fill="#A4A7BA"/>
<path d="M10.0494 5.10091C10.0494 7.64853 7.94568 9.714 5.35087 9.714C2.75605 9.714 0.652344 7.64853 0.652344 5.10091C0.652344 2.55327 2.75605 0.487793 5.35087 0.487793C7.94568 0.487793 10.0494 2.55327 10.0494 5.10091Z" fill="#A4A7BA"/>
<path d="M71.9917 31.7669H66.2988V3.46045H71.9917V31.7669Z" fill="#A4A7BA"/>
<path d="M83.5704 20.4716V31.7703H78.1621V12.1274H83.4077V14.5628C83.977 13.6046 84.7903 12.8727 85.8476 12.3669C86.9048 11.8613 88.0163 11.6084 89.182 11.6084C91.5405 11.6084 93.3297 12.3404 94.5496 13.8043C95.7967 15.2416 96.4202 17.1047 96.4202 19.3937V31.7703H91.0119V20.3119C91.0119 19.1408 90.7001 18.1959 90.0766 17.4773C89.4802 16.7586 88.5585 16.3993 87.3115 16.3993C86.1729 16.3993 85.2647 16.7853 84.587 17.5572C83.9093 18.3291 83.5704 19.3005 83.5704 20.4716Z" fill="#A4A7BA"/>
<path d="M120.42 12.1265L112.654 31.7693H107.245L99.0723 12.1265H105.009L109.97 25.3016L114.727 12.1265H120.42Z" fill="#A4A7BA"/>
<path d="M127.06 19.7089H136.006C135.951 18.6177 135.545 17.6993 134.786 16.9541C134.054 16.2089 132.969 15.8362 131.533 15.8362C130.231 15.8362 129.174 16.2354 128.361 17.034C127.548 17.8324 127.114 18.7241 127.06 19.7089ZM136.534 24.8192L141.048 26.1368C140.506 27.9467 139.435 29.4372 137.836 30.6083C136.263 31.7794 134.298 32.365 131.939 32.365C129.066 32.365 126.626 31.4201 124.62 29.5304C122.614 27.614 121.611 25.0588 121.611 21.8648C121.611 18.8306 122.587 16.3552 124.538 14.4389C126.49 12.4959 128.795 11.5244 131.451 11.5244C134.542 11.5244 136.955 12.4293 138.69 14.2392C140.452 16.0492 141.333 18.5378 141.333 21.7051C141.333 21.9181 141.319 22.1576 141.292 22.4237C141.292 22.69 141.292 22.9029 141.292 23.0626L141.251 23.3421H126.938C126.992 24.6196 127.507 25.6843 128.483 26.536C129.459 27.3877 130.625 27.8136 131.98 27.8136C134.284 27.8136 135.802 26.8154 136.534 24.8192Z" fill="#A4A7BA"/>
<path d="M143.885 26.2964L148.52 25.2984C148.575 26.1501 148.913 26.8687 149.537 27.4543C150.188 28.0132 151.069 28.2927 152.18 28.2927C153.021 28.2927 153.671 28.1064 154.132 27.7338C154.593 27.3611 154.823 26.8953 154.823 26.3364C154.823 25.3515 154.105 24.7128 152.668 24.42L150.025 23.8211C148.154 23.4219 146.745 22.7032 145.796 21.6652C144.874 20.6271 144.413 19.3895 144.413 17.9522C144.413 16.1689 145.118 14.6518 146.528 13.4008C147.965 12.1499 149.754 11.5244 151.895 11.5244C153.251 11.5244 154.444 11.724 155.474 12.1232C156.504 12.4959 157.304 12.9883 157.873 13.6004C158.442 14.186 158.876 14.7849 159.174 15.3971C159.473 16.0092 159.662 16.6081 159.744 17.1937L155.23 18.1917C155.121 17.4997 154.796 16.8875 154.254 16.3552C153.739 15.823 152.966 15.5568 151.936 15.5568C151.231 15.5568 150.621 15.743 150.106 16.1157C149.618 16.4883 149.374 16.9541 149.374 17.5131C149.374 18.4712 149.984 19.0568 151.204 19.2698L154.051 19.8686C155.975 20.2678 157.439 20.9998 158.442 22.0644C159.473 23.1291 159.988 24.4067 159.988 25.8972C159.988 27.6539 159.31 29.171 157.954 30.4486C156.599 31.7262 154.688 32.365 152.221 32.365C150.811 32.365 149.551 32.1654 148.439 31.7661C147.328 31.3402 146.46 30.8079 145.837 30.1691C145.24 29.5037 144.779 28.8516 144.454 28.2128C144.156 27.5474 143.966 26.9086 143.885 26.2964Z" fill="#A4A7BA"/>
<path d="M171.005 6.25781V12.1267H175.031V16.8378H171.005V25.0622C171.005 25.8874 171.195 26.473 171.574 26.8189C171.954 27.165 172.55 27.3379 173.363 27.3379C174.095 27.3379 174.651 27.2848 175.031 27.1782V31.5699C174.245 31.8893 173.228 32.0491 171.981 32.0491C170.029 32.0491 168.484 31.5168 167.345 30.4521C166.207 29.3608 165.637 27.8703 165.637 25.9806V16.8378H162.018V12.1267H163.035C164.038 12.1267 164.797 11.8472 165.312 11.2883C165.854 10.7027 166.125 9.94417 166.125 9.0126V6.25781H171.005Z" fill="#A4A7BA"/>
<path d="M185.032 31.7702H179.624V12.1273H185.032V31.7702ZM178.973 5.69948C178.973 4.79452 179.298 4.02265 179.949 3.38386C180.6 2.71845 181.386 2.38574 182.308 2.38574C183.229 2.38574 184.015 2.70514 184.666 3.34394C185.317 3.98273 185.642 4.76791 185.642 5.69948C185.642 6.57782 185.317 7.33639 184.666 7.97518C184.015 8.61397 183.229 8.93337 182.308 8.93337C181.386 8.93337 180.6 8.61397 179.949 7.97518C179.298 7.33639 178.973 6.57782 178.973 5.69948Z" fill="#A4A7BA"/>
<path d="M200.094 7.25515C199.335 7.25515 198.67 7.46808 198.101 7.89395C197.559 8.29318 197.288 8.98521 197.288 9.97003V12.1259H201.801V16.6773H197.288V31.7688H191.839V16.6773H188.504V12.1259H191.839V9.89013C191.839 7.68101 192.489 5.91103 193.791 4.58021C195.119 3.24939 196.895 2.58398 199.118 2.58398C200.31 2.58398 201.205 2.71707 201.801 2.98322V7.45477C201.341 7.32169 200.771 7.25515 200.094 7.25515Z" fill="#A4A7BA"/>
<path d="M213.222 39.5147H207.489L212.206 29.294L203.707 12.1265H209.766L215.093 23.6247L220.013 12.1265H225.787L213.222 39.5147Z" fill="#A4A7BA"/>
</g>
<defs>
<clipPath id="clip0_285_710">
<rect width="226" height="40" fill="white"/>
</clipPath>
</defs>
</svg>
