<svg width="198" height="40" viewBox="0 0 198 40" fill="none" xmlns="http://www.w3.org/2000/svg">
<g clip-path="url(#clip0_285_744)">
<path d="M23.2479 21.4201C27.1732 23.133 31.2263 23.9862 34.651 23.8182C34.6717 23.8182 34.6924 23.815 34.7131 23.815L34.9582 1.02675C34.9686 0.222002 34.0054 -0.262786 33.2942 0.18645L12.8184 13.1173C14.4755 16.0745 18.3076 19.2612 23.2479 21.4201Z" fill="#A4A7BA"/>
<path d="M33.7942 26.0094C30.221 26.0094 26.1714 25.0915 22.2668 23.3883C16.8812 21.0387 12.8315 17.684 10.8844 14.3389L0.472185 20.9159C-0.342567 21.4298 -0.045666 22.6126 0.924441 22.7354L18.4071 24.9622C19.4359 25.0947 20.3784 25.5698 21.0619 26.3003L32.6791 38.7334C33.3246 39.425 34.5399 39.0049 34.5502 38.0838L34.6814 25.9867C34.3949 26.0029 34.098 26.0094 33.7942 26.0094Z" fill="#A4A7BA"/>
<path d="M33.7958 24.2773C30.2226 24.2773 26.173 23.3595 22.2684 21.6563C13.0852 17.6455 7.77552 10.7227 10.1818 5.89424C12.5881 1.06576 21.6677 0.422612 30.8509 4.43342C33.8545 5.74558 36.5784 7.44556 38.7257 9.35239C39.1883 9.7628 39.209 10.4513 38.7706 10.8843C38.3287 11.3174 37.5968 11.3368 37.1342 10.9263C35.1664 9.17787 32.6565 7.61362 29.8739 6.39842C22.1338 3.01784 14.076 3.20853 12.2843 6.81211C10.489 10.4156 15.5122 16.314 23.2523 19.6945C27.1776 21.4075 31.2272 22.2607 34.6554 22.0926C37.8212 21.9375 40.0169 20.9388 40.8454 19.2808C41.7051 17.5517 40.8731 15.5803 40.0238 14.2262C39.6993 13.709 39.8822 13.0464 40.4346 12.7427C40.987 12.4389 41.6947 12.6102 42.0192 13.1273C43.6211 15.6708 43.9491 18.182 42.9445 20.1955C41.7396 22.6129 38.8396 24.0543 34.7797 24.2547C34.4517 24.2709 34.1272 24.2773 33.7958 24.2773Z" fill="#A4A7BA"/>
<path d="M63.4815 7.66699V21.5594C63.4815 22.9486 63.8466 24.0181 64.5768 24.7679C65.307 25.5176 66.3788 25.8925 67.7921 25.8925C69.2054 25.8925 70.289 25.5176 71.0427 24.7679C71.7965 24.0181 72.1734 22.9486 72.1734 21.5594V7.66699H78.2154V21.5263C78.2154 23.5991 77.7442 25.3522 76.8019 26.7856C75.8597 28.2189 74.5878 29.2995 72.9861 30.0271C71.4079 30.7549 69.6412 31.1187 67.6861 31.1187C65.731 31.1187 63.9761 30.7659 62.4215 30.0602C60.8904 29.3325 59.6773 28.2521 58.7821 26.8187C57.887 25.3633 57.4395 23.5991 57.4395 21.5263V7.66699H63.4815Z" fill="#A4A7BA"/>
<path d="M88.501 15.0433C89.0899 14.1833 89.9025 13.4887 90.939 12.9594C91.9754 12.4302 93.1885 12.1655 94.5783 12.1655C96.2036 12.1655 97.6758 12.5515 98.9949 13.3233C100.314 14.095 101.35 15.1976 102.104 16.631C102.881 18.0643 103.27 19.7292 103.27 21.6256C103.27 23.5221 102.881 25.198 102.104 26.6533C101.35 28.0867 100.314 29.2003 98.9949 29.9942C97.6758 30.766 96.2036 31.1519 94.5783 31.1519C93.2121 31.1519 91.999 30.8872 90.939 30.358C89.9025 29.8288 89.0899 29.1452 88.501 28.3072V39.6858H82.459V12.4302H88.501V15.0433ZM97.1223 21.6256C97.1223 20.2144 96.6983 19.1118 95.8503 18.3179C95.0258 17.502 94.0012 17.0941 92.7763 17.0941C91.575 17.0941 90.5503 17.502 89.7023 18.3179C88.8779 19.1338 88.4656 20.2474 88.4656 21.6587C88.4656 23.07 88.8779 24.1836 89.7023 24.9995C90.5503 25.8154 91.575 26.2234 92.7763 26.2234C93.9776 26.2234 95.0023 25.8154 95.8503 24.9995C96.6983 24.1615 97.1223 23.037 97.1223 21.6256Z" fill="#A4A7BA"/>
<path d="M113.93 12.1655C115.32 12.1655 116.533 12.4302 117.57 12.9594C118.63 13.4887 119.442 14.1833 120.008 15.0433V12.4302H126.05V30.8542C126.05 32.5521 125.685 34.0847 124.954 35.4519C124.248 36.8412 123.152 37.9437 121.668 38.7596C120.208 39.5755 118.382 39.9835 116.192 39.9835C113.271 39.9835 110.904 39.333 109.09 38.0319C107.276 36.753 106.24 35.0108 105.98 32.8057H111.952C112.14 33.5114 112.588 34.0626 113.294 34.4596C114.001 34.8786 114.873 35.088 115.909 35.088C117.158 35.088 118.147 34.7463 118.877 34.0626C119.631 33.4011 120.008 32.3316 120.008 30.8542V28.2411C119.419 29.1011 118.606 29.8067 117.57 30.358C116.533 30.8872 115.32 31.1519 113.93 31.1519C112.305 31.1519 110.833 30.766 109.514 29.9942C108.195 29.2003 107.146 28.0867 106.369 26.6533C105.615 25.198 105.238 23.5221 105.238 21.6256C105.238 19.7292 105.615 18.0643 106.369 16.631C107.146 15.1976 108.195 14.095 109.514 13.3233C110.833 12.5515 112.305 12.1655 113.93 12.1655ZM120.008 21.6587C120.008 20.2474 119.584 19.1338 118.736 18.3179C117.911 17.502 116.898 17.0941 115.697 17.0941C114.496 17.0941 113.471 17.502 112.623 18.3179C111.799 19.1118 111.386 20.2144 111.386 21.6256C111.386 23.037 111.799 24.1615 112.623 24.9995C113.471 25.8154 114.496 26.2234 115.697 26.2234C116.898 26.2234 117.911 25.8154 118.736 24.9995C119.584 24.1836 120.008 23.07 120.008 21.6587Z" fill="#A4A7BA"/>
<path d="M136.464 6.40967V30.8867H130.422V6.40967H136.464Z" fill="#A4A7BA"/>
<path d="M139.641 21.6256C139.641 19.7292 140.018 18.0643 140.772 16.631C141.549 15.1976 142.597 14.095 143.916 13.3233C145.235 12.5515 146.708 12.1655 148.333 12.1655C149.723 12.1655 150.936 12.4302 151.972 12.9594C153.032 13.4887 153.845 14.1833 154.41 15.0433V12.4302H160.452V30.8872H154.41V28.2742C153.821 29.1342 152.997 29.8288 151.937 30.358C150.9 30.8872 149.687 31.1519 148.298 31.1519C146.696 31.1519 145.235 30.766 143.916 29.9942C142.597 29.2003 141.549 28.0867 140.772 26.6533C140.018 25.198 139.641 23.5221 139.641 21.6256ZM154.41 21.6587C154.41 20.2474 153.986 19.1338 153.138 18.3179C152.314 17.502 151.301 17.0941 150.1 17.0941C148.898 17.0941 147.874 17.502 147.026 18.3179C146.201 19.1118 145.789 20.2144 145.789 21.6256C145.789 23.037 146.201 24.1615 147.026 24.9995C147.874 25.8154 148.898 26.2234 150.1 26.2234C151.301 26.2234 152.314 25.8154 153.138 24.9995C153.986 24.1836 154.41 23.07 154.41 21.6587Z" fill="#A4A7BA"/>
<path d="M189.979 12.231C192.429 12.231 194.373 12.9257 195.809 14.3149C197.27 15.7041 198 17.6337 198 20.1033V30.8865H191.993V20.8642C191.993 19.6734 191.652 18.7582 190.969 18.1188C190.309 17.4572 189.391 17.1264 188.213 17.1264C187.035 17.1264 186.105 17.4572 185.422 18.1188C184.762 18.7582 184.432 19.6734 184.432 20.8642V30.8865H178.426V20.8642C178.426 19.6734 178.084 18.7582 177.401 18.1188C176.741 17.4572 175.823 17.1264 174.645 17.1264C173.467 17.1264 172.537 17.4572 171.854 18.1188C171.194 18.7582 170.864 19.6734 170.864 20.8642V30.8865H164.822V12.4295H170.864V14.7449C171.477 13.9731 172.278 13.3667 173.267 12.9257C174.256 12.4626 175.375 12.231 176.624 12.231C178.108 12.231 179.427 12.5287 180.581 13.1241C181.759 13.7195 182.677 14.5684 183.337 15.671C184.02 14.6566 184.95 13.8297 186.128 13.1902C187.306 12.5508 188.59 12.231 189.979 12.231Z" fill="#A4A7BA"/>
</g>
<defs>
<clipPath id="clip0_285_744">
<rect width="198" height="40" fill="white"/>
</clipPath>
</defs>
</svg>
