<svg width="297" height="88" viewBox="0 0 297 88" fill="none" xmlns="http://www.w3.org/2000/svg">
<g clip-path="url(#clip0_234_16567)" filter="url(#filter0_d_234_16567)">
<path d="M142.84 43.812H150.15L146.512 32.728L142.84 43.812ZM152.156 50L150.796 45.818H142.194L140.8 50H134.476L142.5 28.852H150.558L158.616 50H152.156ZM165.256 28.852H172.056V50H165.256V28.852ZM200.095 47.994H209.989V50H193.533V28.852H200.095V47.994ZM222.813 43.812H230.123L226.485 32.728L222.813 43.812ZM232.129 50L230.769 45.818H222.167L220.773 50H214.449L222.473 28.852H230.531L238.589 50H232.129ZM245.025 28.852H261.991C263.781 28.852 264.677 29.7473 264.677 31.538V37.046C264.677 38.542 263.985 39.324 262.603 39.392C263.985 39.5053 264.677 40.276 264.677 41.704V47.314C264.677 49.1047 263.781 50 261.991 50H245.025V28.852ZM258.387 47.144V41.466C258.387 41.0353 258.319 40.752 258.183 40.616C258.047 40.48 257.763 40.412 257.333 40.412H251.587V47.994H257.231C258.001 47.994 258.387 47.7107 258.387 47.144ZM258.387 37.352V31.912C258.387 31.4587 258.319 31.1753 258.183 31.062C258.047 30.926 257.763 30.858 257.333 30.858H251.587V38.406H257.333C257.763 38.406 258.047 38.3493 258.183 38.236C258.319 38.1 258.387 37.8053 258.387 37.352ZM284.897 46.94V41.398C284.897 40.9673 284.829 40.684 284.693 40.548C284.579 40.412 284.296 40.344 283.843 40.344H274.969C273.178 40.344 272.283 39.4487 272.283 37.658V31.538C272.283 29.7473 273.178 28.852 274.969 28.852H288.671C290.461 28.852 291.357 29.7473 291.357 31.538V35.482H284.795V31.912C284.795 31.4587 284.727 31.1753 284.591 31.062C284.455 30.926 284.171 30.858 283.741 30.858H279.899C279.445 30.858 279.151 30.926 279.015 31.062C278.901 31.1753 278.845 31.4587 278.845 31.912V37.284C278.845 37.7373 278.901 38.032 279.015 38.168C279.151 38.2813 279.445 38.338 279.899 38.338H288.773C290.563 38.338 291.459 39.2333 291.459 41.024V47.314C291.459 49.1047 290.563 50 288.773 50H275.071C273.28 50 272.385 49.1047 272.385 47.314V43.37H278.947V46.94C278.947 47.3933 279.015 47.688 279.151 47.824C279.287 47.9373 279.57 47.994 280.001 47.994H283.843C284.296 47.994 284.579 47.9373 284.693 47.824C284.829 47.688 284.897 47.3933 284.897 46.94Z" fill="white"/>
<path d="M138.064 60.656V58.744C138.064 58.6373 138.048 58.5707 138.016 58.544C137.984 58.512 137.917 58.496 137.816 58.496H135.632V60.904H137.816C137.917 60.904 137.984 60.888 138.016 60.856C138.048 60.824 138.064 60.7573 138.064 60.656ZM134.76 58.024H138.304C138.725 58.024 138.936 58.2347 138.936 58.656V60.744C138.936 61.1653 138.725 61.376 138.304 61.376H135.632V63H134.76V58.024ZM143.591 62.28V59.84C143.591 59.7387 143.575 59.672 143.543 59.64C143.511 59.608 143.444 59.592 143.343 59.592H141.727C141.625 59.592 141.559 59.608 141.527 59.64C141.495 59.672 141.479 59.7387 141.479 59.84V62.28C141.479 62.3867 141.495 62.456 141.527 62.488C141.559 62.5147 141.625 62.528 141.727 62.528H143.343C143.444 62.528 143.511 62.5147 143.543 62.488C143.575 62.456 143.591 62.3867 143.591 62.28ZM141.263 59.12H143.807C144.228 59.12 144.439 59.3307 144.439 59.752V62.368C144.439 62.7893 144.228 63 143.807 63H141.263C140.841 63 140.631 62.7893 140.631 62.368V59.752C140.631 59.3307 140.841 59.12 141.263 59.12ZM151.806 59.12H152.622L151.294 63H150.174L149.254 59.784L148.358 63H147.238L145.894 59.12H146.71L147.814 62.44L148.79 59.12H149.742L150.694 62.44L151.806 59.12ZM154.931 60.776H157.099V59.84C157.099 59.7387 157.083 59.672 157.051 59.64C157.019 59.608 156.952 59.592 156.851 59.592H155.179C155.072 59.592 155.003 59.608 154.971 59.64C154.944 59.672 154.931 59.7387 154.931 59.84V60.776ZM154.707 59.12H157.307C157.728 59.12 157.939 59.3307 157.939 59.752V61.248H154.931V62.28C154.931 62.3867 154.944 62.456 154.971 62.488C155.003 62.5147 155.072 62.528 155.179 62.528H156.835C156.936 62.528 157.003 62.5147 157.035 62.488C157.067 62.456 157.083 62.3867 157.083 62.28V61.872H157.923V62.368C157.923 62.7893 157.712 63 157.291 63H154.707C154.286 63 154.075 62.7893 154.075 62.368V59.752C154.075 59.3307 154.286 59.12 154.707 59.12ZM161.331 59.12H162.091V59.616H161.187C160.829 59.616 160.651 59.816 160.651 60.216V63H159.795V59.12H160.651V59.616C160.741 59.2853 160.968 59.12 161.331 59.12ZM164.273 60.776H166.441V59.84C166.441 59.7387 166.425 59.672 166.393 59.64C166.361 59.608 166.295 59.592 166.193 59.592H164.521C164.415 59.592 164.345 59.608 164.313 59.64C164.287 59.672 164.273 59.7387 164.273 59.84V60.776ZM164.049 59.12H166.649C167.071 59.12 167.281 59.3307 167.281 59.752V61.248H164.273V62.28C164.273 62.3867 164.287 62.456 164.313 62.488C164.345 62.5147 164.415 62.528 164.521 62.528H166.177C166.279 62.528 166.345 62.5147 166.377 62.488C166.409 62.456 166.425 62.3867 166.425 62.28V61.872H167.265V62.368C167.265 62.7893 167.055 63 166.633 63H164.049C163.628 63 163.417 62.7893 163.417 62.368V59.752C163.417 59.3307 163.628 59.12 164.049 59.12ZM170.169 62.528H171.721C171.817 62.528 171.887 62.5093 171.929 62.472C171.972 62.4293 171.993 62.3573 171.993 62.256V59.864C171.993 59.7627 171.972 59.6933 171.929 59.656C171.887 59.6133 171.817 59.592 171.721 59.592H170.169C170.063 59.592 169.993 59.608 169.961 59.64C169.935 59.672 169.921 59.7387 169.921 59.84V62.28C169.921 62.3867 169.935 62.456 169.961 62.488C169.993 62.5147 170.063 62.528 170.169 62.528ZM171.993 57.648H172.849V63H171.993V62.752C171.924 62.9173 171.777 63 171.553 63H169.697C169.276 63 169.065 62.7893 169.065 62.368V59.752C169.065 59.3307 169.276 59.12 169.697 59.12H171.553C171.777 59.12 171.924 59.2027 171.993 59.368V57.648ZM180.619 62.28V59.84C180.619 59.7387 180.603 59.672 180.571 59.64C180.539 59.608 180.472 59.592 180.371 59.592H178.819C178.723 59.592 178.653 59.6133 178.611 59.656C178.568 59.6933 178.547 59.7627 178.547 59.864V60.128H178.539V62.064H178.547V62.256C178.547 62.3573 178.568 62.4293 178.611 62.472C178.653 62.5093 178.723 62.528 178.819 62.528H180.371C180.472 62.528 180.539 62.5147 180.571 62.488C180.603 62.456 180.619 62.3867 180.619 62.28ZM178.987 59.12H180.835C181.256 59.12 181.467 59.3307 181.467 59.752V62.368C181.467 62.7893 181.256 63 180.835 63H178.987C178.747 63 178.597 62.912 178.539 62.736V63H177.683V57.648H178.539V59.384C178.597 59.208 178.747 59.12 178.987 59.12ZM184.465 64.128H183.649V63.656H184.177C184.476 63.656 184.676 63.552 184.777 63.344L184.937 63H184.633L182.961 59.12H183.841L185.185 62.424L186.505 59.12H187.369L185.521 63.376C185.409 63.6373 185.278 63.8267 185.129 63.944C184.985 64.0667 184.764 64.128 184.465 64.128ZM195.66 59.552H194.78V58.744C194.78 58.6373 194.764 58.5707 194.732 58.544C194.7 58.512 194.633 58.496 194.532 58.496H192.708C192.606 58.496 192.54 58.512 192.508 58.544C192.476 58.5707 192.46 58.6373 192.46 58.744V62.28C192.46 62.3867 192.476 62.456 192.508 62.488C192.54 62.5147 192.606 62.528 192.708 62.528H194.54C194.646 62.528 194.713 62.5147 194.74 62.488C194.772 62.456 194.788 62.3867 194.788 62.28V60.912H193.548V60.44H195.66V62.368C195.66 62.7893 195.449 63 195.028 63H192.204C191.782 63 191.572 62.7893 191.572 62.368V58.656C191.572 58.2347 191.782 58.024 192.204 58.024H195.028C195.449 58.024 195.66 58.2347 195.66 58.656V59.552ZM201.187 58.496H198.563V60.408H200.875V60.88H198.563V63H197.667V58.024H201.187V58.496ZM203.622 58.024V62.28C203.622 62.3867 203.636 62.456 203.662 62.488C203.694 62.5147 203.764 62.528 203.87 62.528H205.782C205.884 62.528 205.95 62.5147 205.982 62.488C206.014 62.456 206.03 62.3867 206.03 62.28V58.024H206.894V62.368C206.894 62.7893 206.684 63 206.262 63H203.374C202.953 63 202.742 62.7893 202.742 62.368V58.024H203.622ZM212.714 58.024V58.496H210.946V63H210.066V58.496H208.298V58.024H212.714ZM214.988 58.024V62.28C214.988 62.3867 215.001 62.456 215.028 62.488C215.06 62.5147 215.129 62.528 215.236 62.528H217.148C217.249 62.528 217.316 62.5147 217.348 62.488C217.38 62.456 217.396 62.3867 217.396 62.28V58.024H218.26V62.368C218.26 62.7893 218.049 63 217.628 63H214.74C214.319 63 214.108 62.7893 214.108 62.368V58.024H214.988ZM221.224 58.496V60.744H223.416C223.522 60.744 223.589 60.728 223.616 60.696C223.648 60.664 223.664 60.5973 223.664 60.496V58.744C223.664 58.6373 223.648 58.5707 223.616 58.544C223.589 58.512 223.522 58.496 223.416 58.496H221.224ZM221.224 61.216V63H220.352V58.024H223.904C224.325 58.024 224.536 58.2347 224.536 58.656V60.584C224.536 61.0053 224.325 61.216 223.904 61.216H223.448L224.576 63H223.664L222.568 61.216H221.224ZM227.434 62.528H230.162V63H226.538V58.024H230.05V58.496H227.434V60.216H229.722V60.688H227.434V62.528ZM235.656 58.024V58.496H233.888V63H233.008V58.496H231.24V58.024H235.656ZM238.027 62.528H240.755V63H237.131V58.024H240.643V58.496H238.027V60.216H240.315V60.688H238.027V62.528ZM246.521 59.72H245.641V58.744C245.641 58.6373 245.625 58.5707 245.593 58.544C245.566 58.512 245.5 58.496 245.393 58.496H243.577C243.476 58.496 243.409 58.512 243.377 58.544C243.345 58.5707 243.329 58.6373 243.329 58.744V62.28C243.329 62.3867 243.345 62.456 243.377 62.488C243.409 62.5147 243.476 62.528 243.577 62.528H245.393C245.5 62.528 245.566 62.5147 245.593 62.488C245.625 62.456 245.641 62.3867 245.641 62.28V61.304H246.521V62.368C246.521 62.7893 246.31 63 245.889 63H243.073C242.652 63 242.441 62.7893 242.441 62.368V58.656C242.441 58.2347 242.652 58.024 243.073 58.024H245.889C246.31 58.024 246.521 58.2347 246.521 58.656V59.72ZM251.98 58.024H252.868V63H251.98V60.744H249.268V63H248.388V58.024H249.268V60.272H251.98V58.024ZM261.159 60.656V58.744C261.159 58.6373 261.143 58.5707 261.111 58.544C261.079 58.512 261.012 58.496 260.911 58.496H258.727V60.904H260.911C261.012 60.904 261.079 60.888 261.111 60.856C261.143 60.824 261.159 60.7573 261.159 60.656ZM257.855 58.024H261.399C261.82 58.024 262.031 58.2347 262.031 58.656V60.744C262.031 61.1653 261.82 61.376 261.399 61.376H258.727V63H257.855V58.024ZM267.534 58.024H268.414L266.486 63H265.302L263.382 58.024H264.27L265.894 62.408L267.534 58.024ZM273.808 58.024V58.496H272.04V63H271.16V58.496H269.392V58.024H273.808ZM278.99 62.528H281.518V63H278.118V58.024H278.99V62.528ZM286.861 58.024V58.496H285.093V63H284.213V58.496H282.445V58.024H286.861ZM291.616 62.28V58.744C291.616 58.6373 291.6 58.5707 291.568 58.544C291.541 58.512 291.474 58.496 291.368 58.496H289.216V62.528H291.368C291.474 62.528 291.541 62.5147 291.568 62.488C291.6 62.456 291.616 62.3867 291.616 62.28ZM288.336 58.024H291.872C292.293 58.024 292.504 58.2347 292.504 58.656V62.368C292.504 62.7893 292.293 63 291.872 63H288.336V58.024Z" fill="white"/>
<path d="M54.5131 72.5546V72.7319C54.5131 76.0086 51.8518 78.6685 48.564 78.6685H30.8636C27.5757 78.6685 24.9145 76.0163 24.9145 72.7319V72.5546C24.9145 69.2779 27.5757 66.6257 30.8636 66.6257H38.1279L29.239 46.025L16.9927 74.4049C15.515 77.8281 11.5309 79.4086 8.09606 77.9361C4.6612 76.4635 3.0753 72.4929 4.5529 69.0774L22.524 27.4211C23.6922 24.7072 26.4385 23.1576 29.239 23.3657C32.0395 23.1653 34.7858 24.715 35.954 27.4211L53.9251 69.0774C54.3197 69.9872 54.4899 70.9278 54.4744 71.8607C54.4976 72.092 54.5208 72.3233 54.5208 72.5546H54.5131ZM93.1939 20.3666C92.0644 21.5925 90.1536 21.6696 88.9313 20.5439C88.8152 20.436 88.7147 20.3281 88.6218 20.2047L80.259 25.5862C83.2839 33.5273 80.2977 41.9465 74.4569 46.5801V71.5754C74.4569 75.6771 71.1226 79 67.007 79C62.8913 79 59.5571 75.6771 59.5571 71.5754V49.9339C55.4027 49.0395 51.5579 46.7343 48.8966 43.2109C43.783 36.4648 44.1234 26.7889 49.7089 20.4129C53.5228 16.0645 59.2399 13.8441 64.9028 14.3067L65.1348 8.44718C64.5701 8.29298 64.0286 8.00772 63.5644 7.58368C62.0172 6.16506 61.9166 3.7673 63.34 2.22533C64.7635 0.683364 67.1694 0.583129 68.7089 2.00174C70.2562 3.42035 70.3567 5.81812 68.9333 7.35238C68.1751 8.16962 67.1462 8.57825 66.1018 8.57054L65.8775 14.4069C66.9064 14.5457 67.9276 14.7693 68.9333 15.0931C70.2716 15.5248 71.5558 16.1416 72.7704 16.8972L73.4357 15.5094C73.3042 15.4246 73.1804 15.3321 73.0644 15.2241C71.8421 14.0985 71.7647 12.1942 72.8865 10.976C74.0159 9.75015 75.9268 9.67304 77.1491 10.7987C78.3791 11.9243 78.4565 13.8287 77.327 15.0468C76.5379 15.9026 75.3698 16.1956 74.3254 15.9103L73.5905 17.4369C76.244 19.2949 78.4642 21.8546 79.8722 24.6764L88.1499 19.3566C87.7786 18.3312 87.972 17.1439 88.7611 16.2958C89.8906 15.0699 91.8014 14.9928 93.0237 16.1185C94.246 17.2441 94.3311 19.1485 93.2016 20.3666H93.1939ZM70.5037 23.8746C72.2598 24.8075 73.5905 26.4188 74.1552 28.354L78.6963 25.432C77.3657 22.8029 75.3388 20.5362 72.9097 18.8478L70.496 23.8746H70.5037ZM65.8156 15.8563L65.5294 23.1499C66.009 23.0573 66.4964 23.0034 66.9992 23.0034C67.9198 23.0034 68.794 23.1807 69.6063 23.4814L72.0819 18.3081C70.1556 17.1131 68.0204 16.265 65.8079 15.8641L65.8156 15.8563ZM59.5493 48.6695V30.4357C59.5493 29.842 59.6267 29.2638 59.7659 28.701L55.7741 26.2415C54.8767 27.2207 53.3759 27.3055 52.3934 26.4034C51.4109 25.5091 51.3722 24.0057 52.2696 23.0342C53.167 22.0628 54.691 22.0011 55.6735 22.8954C56.5245 23.6741 56.6792 24.9154 56.1222 25.8714L59.8974 28.1921C60.6014 25.964 62.3343 24.1984 64.5392 23.4274L64.8409 15.7021C62.9145 15.4709 60.9341 15.5711 59.0078 16.0799C51.7822 17.9843 46.5758 24.715 46.5139 32.1627C46.4442 39.9727 52.022 46.8962 59.5493 48.6695ZM79.2611 26.2338L74.4028 29.3563C74.5265 30.0656 74.5343 30.7903 74.4569 31.5073V44.7374C76.8396 42.6018 78.6809 39.8031 79.6633 36.5958C80.4215 33.7278 80.6226 29.5413 79.2611 26.2338Z" fill="url(#paint0_linear_234_16567)"/>
<path d="M54.5131 72.5546V72.7319C54.5131 76.0086 51.8518 78.6685 48.564 78.6685H30.8636C27.5757 78.6685 24.9145 76.0163 24.9145 72.7319V72.5546C24.9145 69.2779 27.5757 66.6257 30.8636 66.6257H38.1279L29.239 46.025L16.9927 74.4049C15.515 77.8281 11.5309 79.4086 8.09606 77.9361C4.6612 76.4635 3.0753 72.4929 4.5529 69.0774L22.524 27.4211C23.6922 24.7072 26.4385 23.1576 29.239 23.3657C32.0395 23.1653 34.7858 24.715 35.954 27.4211L53.9251 69.0774C54.3197 69.9872 54.4899 70.9278 54.4744 71.8607C54.4976 72.092 54.5208 72.3233 54.5208 72.5546H54.5131ZM93.1939 20.3666C92.0644 21.5925 90.1536 21.6696 88.9313 20.5439C88.8152 20.436 88.7147 20.3281 88.6218 20.2047L80.259 25.5862C83.2839 33.5273 80.2977 41.9465 74.4569 46.5801V71.5754C74.4569 75.6771 71.1226 79 67.007 79C62.8913 79 59.5571 75.6771 59.5571 71.5754V49.9339C55.4027 49.0395 51.5579 46.7343 48.8966 43.2109C43.783 36.4648 44.1234 26.7889 49.7089 20.4129C53.5228 16.0645 59.2399 13.8441 64.9028 14.3067L65.1348 8.44718C64.5701 8.29298 64.0286 8.00772 63.5644 7.58368C62.0172 6.16506 61.9166 3.7673 63.34 2.22533C64.7635 0.683364 67.1694 0.583129 68.7089 2.00174C70.2562 3.42035 70.3567 5.81812 68.9333 7.35238C68.1751 8.16962 67.1462 8.57825 66.1018 8.57054L65.8775 14.4069C66.9064 14.5457 67.9276 14.7693 68.9333 15.0931C70.2716 15.5248 71.5558 16.1416 72.7704 16.8972L73.4357 15.5094C73.3042 15.4246 73.1804 15.3321 73.0644 15.2241C71.8421 14.0985 71.7647 12.1942 72.8865 10.976C74.0159 9.75015 75.9268 9.67304 77.1491 10.7987C78.3791 11.9243 78.4565 13.8287 77.327 15.0468C76.5379 15.9026 75.3698 16.1956 74.3254 15.9103L73.5905 17.4369C76.244 19.2949 78.4642 21.8546 79.8722 24.6764L88.1499 19.3566C87.7786 18.3312 87.972 17.1439 88.7611 16.2958C89.8906 15.0699 91.8014 14.9928 93.0237 16.1185C94.246 17.2441 94.3311 19.1485 93.2016 20.3666H93.1939ZM70.5037 23.8746C72.2598 24.8075 73.5905 26.4188 74.1552 28.354L78.6963 25.432C77.3657 22.8029 75.3388 20.5362 72.9097 18.8478L70.496 23.8746H70.5037ZM65.8156 15.8563L65.5294 23.1499C66.009 23.0573 66.4964 23.0034 66.9992 23.0034C67.9198 23.0034 68.794 23.1807 69.6063 23.4814L72.0819 18.3081C70.1556 17.1131 68.0204 16.265 65.8079 15.8641L65.8156 15.8563ZM59.5493 48.6695V30.4357C59.5493 29.842 59.6267 29.2638 59.7659 28.701L55.7741 26.2415C54.8767 27.2207 53.3759 27.3055 52.3934 26.4034C51.4109 25.5091 51.3722 24.0057 52.2696 23.0342C53.167 22.0628 54.691 22.0011 55.6735 22.8954C56.5245 23.6741 56.6792 24.9154 56.1222 25.8714L59.8974 28.1921C60.6014 25.964 62.3343 24.1984 64.5392 23.4274L64.8409 15.7021C62.9145 15.4709 60.9341 15.5711 59.0078 16.0799C51.7822 17.9843 46.5758 24.715 46.5139 32.1627C46.4442 39.9727 52.022 46.8962 59.5493 48.6695ZM79.2611 26.2338L74.4028 29.3563C74.5265 30.0656 74.5343 30.7903 74.4569 31.5073V44.7374C76.8396 42.6018 78.6809 39.8031 79.6633 36.5958C80.4215 33.7278 80.6226 29.5413 79.2611 26.2338Z" fill="url(#paint1_linear_234_16567)"/>
<mask id="mask0_234_16567" style="mask-type:luminance" maskUnits="userSpaceOnUse" x="4" y="1" width="90" height="78">
<path d="M54.5131 72.5546V72.7319C54.5131 76.0086 51.8518 78.6685 48.564 78.6685H30.8636C27.5757 78.6685 24.9145 76.0163 24.9145 72.7319V72.5546C24.9145 69.2779 27.5757 66.6257 30.8636 66.6257H38.1279L29.239 46.025L16.9927 74.4049C15.515 77.8281 11.5309 79.4086 8.09606 77.9361C4.6612 76.4635 3.0753 72.4929 4.5529 69.0774L22.524 27.4211C23.6922 24.7072 26.4385 23.1576 29.239 23.3657C32.0395 23.1653 34.7858 24.715 35.954 27.4211L53.9251 69.0774C54.3197 69.9872 54.4899 70.9278 54.4744 71.8607C54.4976 72.092 54.5208 72.3233 54.5208 72.5546H54.5131ZM93.1939 20.3666C92.0644 21.5925 90.1536 21.6696 88.9313 20.5439C88.8152 20.436 88.7147 20.3281 88.6218 20.2047L80.259 25.5862C83.2839 33.5273 80.2977 41.9465 74.4569 46.5801V71.5754C74.4569 75.6771 71.1226 79 67.007 79C62.8913 79 59.5571 75.6771 59.5571 71.5754V49.9339C55.4027 49.0395 51.5579 46.7343 48.8966 43.2109C43.783 36.4648 44.1234 26.7889 49.7089 20.4129C53.5228 16.0645 59.2399 13.8441 64.9028 14.3067L65.1348 8.44718C64.5701 8.29298 64.0286 8.00772 63.5644 7.58368C62.0172 6.16506 61.9166 3.7673 63.34 2.22533C64.7635 0.683364 67.1694 0.583129 68.7089 2.00174C70.2562 3.42035 70.3567 5.81812 68.9333 7.35238C68.1751 8.16962 67.1462 8.57825 66.1018 8.57054L65.8775 14.4069C66.9064 14.5457 67.9276 14.7693 68.9333 15.0931C70.2716 15.5248 71.5558 16.1416 72.7704 16.8972L73.4357 15.5094C73.3042 15.4246 73.1804 15.3321 73.0644 15.2241C71.8421 14.0985 71.7647 12.1942 72.8865 10.976C74.0159 9.75015 75.9268 9.67304 77.1491 10.7987C78.3791 11.9243 78.4565 13.8287 77.327 15.0468C76.5379 15.9026 75.3698 16.1956 74.3254 15.9103L73.5905 17.4369C76.244 19.2949 78.4642 21.8546 79.8722 24.6764L88.1499 19.3566C87.7786 18.3312 87.972 17.1439 88.7611 16.2958C89.8906 15.0699 91.8014 14.9928 93.0237 16.1185C94.246 17.2441 94.3311 19.1485 93.2016 20.3666H93.1939ZM70.5037 23.8746C72.2598 24.8075 73.5905 26.4188 74.1552 28.354L78.6963 25.432C77.3657 22.8029 75.3388 20.5362 72.9097 18.8478L70.496 23.8746H70.5037ZM65.8156 15.8563L65.5294 23.1499C66.009 23.0573 66.4964 23.0034 66.9992 23.0034C67.9198 23.0034 68.794 23.1807 69.6063 23.4814L72.0819 18.3081C70.1556 17.1131 68.0204 16.265 65.8079 15.8641L65.8156 15.8563ZM59.5493 48.6695V30.4357C59.5493 29.842 59.6267 29.2638 59.7659 28.701L55.7741 26.2415C54.8767 27.2207 53.3759 27.3055 52.3934 26.4034C51.4109 25.5091 51.3722 24.0057 52.2696 23.0342C53.167 22.0628 54.691 22.0011 55.6735 22.8954C56.5245 23.6741 56.6792 24.9154 56.1222 25.8714L59.8974 28.1921C60.6014 25.964 62.3343 24.1984 64.5392 23.4274L64.8409 15.7021C62.9145 15.4709 60.9341 15.5711 59.0078 16.0799C51.7822 17.9843 46.5758 24.715 46.5139 32.1627C46.4442 39.9727 52.022 46.8962 59.5493 48.6695ZM79.2611 26.2338L74.4028 29.3563C74.5265 30.0656 74.5343 30.7903 74.4569 31.5073V44.7374C76.8396 42.6018 78.6809 39.8031 79.6633 36.5958C80.4215 33.7278 80.6226 29.5413 79.2611 26.2338Z" fill="white"/>
</mask>
<g mask="url(#mask0_234_16567)">
<g style="mix-blend-mode:color-burn">
<path d="M69.689 -14.4804C39.5411 -24.588 6.87906 -8.42821 -3.26305 21.6248C-13.4052 51.6701 2.80982 84.2211 32.9577 94.3287C63.1055 104.436 95.7676 88.2764 105.91 58.2234C116.052 28.1782 99.8368 -4.37282 69.689 -14.4804ZM40.9646 70.6209C23.9528 64.9156 14.8009 46.5507 20.5179 29.5891C26.2427 12.6351 44.678 3.51435 61.6898 9.21193C78.7016 14.9172 87.8535 33.2898 82.1287 50.2437C76.404 67.1977 57.9764 76.3185 40.9646 70.6209Z" fill="url(#paint2_linear_234_16567)" fill-opacity="0.1"/>
</g>
<path style="mix-blend-mode:color-dodge" opacity="0.4" d="M60.622 6.75883C33.2282 -2.4236 3.55226 12.2637 -5.66152 39.5643C-14.8753 66.8648 -0.137903 96.4398 27.2559 105.622C54.6496 114.805 84.3256 100.117 93.5393 72.8168C102.753 45.5162 88.0157 15.9413 60.622 6.75883ZM34.5201 84.0886C19.0633 78.9076 10.7469 62.2081 15.9456 46.8038C21.1443 31.3995 37.8931 23.1114 53.3577 28.2924C68.8145 33.4735 77.1309 50.1653 71.9322 65.5696C66.7335 80.9815 49.9847 89.2619 34.5201 84.0809V84.0886Z" fill="url(#paint3_radial_234_16567)"/>
<g style="mix-blend-mode:soft-light">
<path d="M66.5857 -49.6763C31.9122 -61.3027 -5.65457 -42.7143 -17.3207 -8.15104C-28.9869 26.4045 -10.335 63.8435 24.3463 75.47C59.0198 87.0964 96.5866 68.5003 108.253 33.9447C119.919 -0.610806 101.267 -38.0498 66.5935 -49.6763H66.5857ZM33.5446 48.208C13.9721 41.6469 3.45088 20.5219 10.0344 1.01596C16.6178 -18.4822 37.815 -28.9753 57.3875 -22.4143C76.9522 -15.8532 87.4811 5.27181 80.8977 24.7777C74.3142 44.2836 53.1171 54.769 33.5446 48.208Z" fill="url(#paint4_linear_234_16567)"/>
</g>
</g>
<line x1="114.5" y1="2.18552e-08" x2="114.5" y2="80" stroke="url(#paint5_linear_234_16567)"/>
</g>
<defs>
<filter id="filter0_d_234_16567" x="0" y="0" width="298" height="88" filterUnits="userSpaceOnUse" color-interpolation-filters="sRGB">
<feFlood flood-opacity="0" result="BackgroundImageFix"/>
<feColorMatrix in="SourceAlpha" type="matrix" values="0 0 0 0 0 0 0 0 0 0 0 0 0 0 0 0 0 0 127 0" result="hardAlpha"/>
<feOffset dy="4"/>
<feGaussianBlur stdDeviation="2"/>
<feComposite in2="hardAlpha" operator="out"/>
<feColorMatrix type="matrix" values="0 0 0 0 0 0 0 0 0 0 0 0 0 0 0 0 0 0 0.25 0"/>
<feBlend mode="normal" in2="BackgroundImageFix" result="effect1_dropShadow_234_16567"/>
<feBlend mode="normal" in="SourceGraphic" in2="effect1_dropShadow_234_16567" result="shape"/>
</filter>
<linearGradient id="paint0_linear_234_16567" x1="4.00363" y1="40.0036" x2="93.9907" y2="40.0036" gradientUnits="userSpaceOnUse">
<stop stop-color="#FF5B91"/>
<stop offset="1" stop-color="#7C0EFF"/>
</linearGradient>
<linearGradient id="paint1_linear_234_16567" x1="4" y1="40" x2="93.9974" y2="40" gradientUnits="userSpaceOnUse">
<stop stop-color="#7B3EFF"/>
<stop offset="0.825" stop-color="#13AFFE"/>
</linearGradient>
<linearGradient id="paint2_linear_234_16567" x1="-6.28516" y1="39.9241" x2="108.932" y2="39.9241" gradientUnits="userSpaceOnUse">
<stop stop-color="#7B3EFF"/>
<stop offset="0.825" stop-color="#13AFFE"/>
</linearGradient>
<radialGradient id="paint3_radial_234_16567" cx="0" cy="0" r="1" gradientUnits="userSpaceOnUse" gradientTransform="translate(43.9474 56.1923) rotate(18.5311) scale(52.3171 52.1751)">
<stop offset="0.77"/>
<stop offset="1" stop-color="#575757"/>
</radialGradient>
<linearGradient id="paint4_linear_234_16567" x1="-20.7969" y1="12.8965" x2="111.729" y2="12.8965" gradientUnits="userSpaceOnUse">
<stop stop-color="#7B3EFF"/>
<stop offset="0.825" stop-color="#13AFFE"/>
</linearGradient>
<linearGradient id="paint5_linear_234_16567" x1="113.5" y1="-2.18552e-08" x2="113.5" y2="80" gradientUnits="userSpaceOnUse">
<stop stop-color="white" stop-opacity="0"/>
<stop offset="0.500918" stop-color="white"/>
<stop offset="1" stop-color="#999999" stop-opacity="0"/>
</linearGradient>
<clipPath id="clip0_234_16567">
<rect width="290" height="80" fill="white" transform="translate(4)"/>
</clipPath>
</defs>
</svg>
