<svg width="406" height="32" viewBox="0 0 406 32" fill="none" xmlns="http://www.w3.org/2000/svg">
<path d="M26.4 11.65H19.65V5.4C19.65 4.73333 19.55 4.31666 19.35 4.15C19.1833 3.95 18.7667 3.85 18.1 3.85H8.3C7.63333 3.85 7.2 3.95 7 4.15C6.83333 4.31666 6.75 4.73333 6.75 5.4V27.5C6.75 28.1667 6.83333 28.6 7 28.8C7.2 28.9667 7.63333 29.05 8.3 29.05H18.1C18.7667 29.05 19.1833 28.9667 19.35 28.8C19.55 28.6 19.65 28.1667 19.65 27.5V21.25H26.4V28.05C26.4 30.6833 25.0833 32 22.45 32H3.95C1.31667 32 2.83122e-07 30.6833 2.83122e-07 28.05V4.85C2.83122e-07 2.21666 1.31667 0.899998 3.95 0.899998H22.45C25.0833 0.899998 26.4 2.21666 26.4 4.85V11.65ZM50.8531 7.75H57.3031V32H50.8531V30.45C50.4531 31.4833 49.5198 32 48.0531 32H36.7531C34.1198 32 32.8031 30.6833 32.8031 28.05V7.75H39.2531V27.5C39.2531 28.1667 39.3365 28.6 39.5031 28.8C39.7031 28.9667 40.1365 29.05 40.8031 29.05H49.1031C49.7365 29.05 50.1865 28.9333 50.4531 28.7C50.7198 28.4333 50.8531 28 50.8531 27.4V7.75ZM81.3832 27.55V22.95C81.3832 22.3167 81.2832 21.9 81.0832 21.7C80.8832 21.5 80.4665 21.4 79.8332 21.4H68.5832C65.9499 21.4 64.6332 20.0833 64.6332 17.45V11.7C64.6332 9.06667 65.9499 7.75 68.5832 7.75H83.6332C86.2665 7.75 87.5832 9.06667 87.5832 11.7V14.75H81.2832V12.2C81.2832 11.5333 81.1832 11.1167 80.9832 10.95C80.7832 10.75 80.3665 10.65 79.7332 10.65H72.6332C71.9999 10.65 71.5832 10.75 71.3832 10.95C71.1832 11.1167 71.0832 11.5333 71.0832 12.2V16.9C71.0832 17.5667 71.1832 18 71.3832 18.2C71.5832 18.3667 71.9999 18.45 72.6332 18.45H83.8332C86.4665 18.45 87.7832 19.7667 87.7832 22.4V28.05C87.7832 30.6833 86.4665 32 83.8332 32H68.7332C66.0999 32 64.7832 30.6833 64.7832 28.05V25H71.0832V27.55C71.0832 28.1833 71.1832 28.6 71.3832 28.8C71.5832 29 71.9999 29.1 72.6332 29.1H79.8332C80.4665 29.1 80.8832 29 81.0832 28.8C81.2832 28.6 81.3832 28.1833 81.3832 27.55ZM108.373 10.7H102.723V27.3C102.723 27.9667 102.806 28.4 102.973 28.6C103.173 28.7667 103.606 28.85 104.273 28.85H108.323V32H100.223C97.5897 32 96.273 30.6833 96.273 28.05V10.7H92.373V7.75H96.273V2.95H102.723V7.75H108.373V10.7ZM131.913 27.5V12.25C131.913 11.6167 131.813 11.2 131.613 11C131.446 10.8 131.029 10.7 130.363 10.7H121.613C120.979 10.7 120.563 10.8 120.363 11C120.163 11.2 120.063 11.6167 120.063 12.25V27.5C120.063 28.1667 120.163 28.6 120.363 28.8C120.563 28.9667 120.979 29.05 121.613 29.05H130.363C131.029 29.05 131.446 28.9667 131.613 28.8C131.813 28.6 131.913 28.1667 131.913 27.5ZM117.613 7.75H134.363C136.996 7.75 138.312 9.06667 138.312 11.7V28.05C138.312 30.6833 136.996 32 134.363 32H117.613C114.979 32 113.663 30.6833 113.663 28.05V11.7C113.663 9.06667 114.979 7.75 117.613 7.75ZM172.998 7.75H183.348C185.982 7.75 187.298 9.06667 187.298 11.7V32H180.848V12.25C180.848 11.6167 180.748 11.2 180.548 11C180.382 10.8 179.965 10.7 179.298 10.7H171.898C170.698 10.7 170.098 11.3167 170.098 12.55V32H163.598V12.25C163.598 11.6167 163.498 11.2 163.298 11C163.098 10.8 162.682 10.7 162.048 10.7H154.098C152.932 10.7 152.348 11.25 152.348 12.35V32H145.898V7.75H152.348V9.3C152.748 8.26667 153.682 7.75 155.148 7.75H166.148C168.082 7.75 169.298 8.45 169.798 9.85C170.198 8.45 171.265 7.75 172.998 7.75ZM200.874 18.1H213.124V12.25C213.124 11.6167 213.024 11.2 212.824 11C212.624 10.8 212.208 10.7 211.574 10.7H202.424C201.758 10.7 201.324 10.8 201.124 11C200.958 11.2 200.874 11.6167 200.874 12.25V18.1ZM198.374 7.75H215.474C218.108 7.75 219.424 9.06667 219.424 11.7V21.05H200.874V27.5C200.874 28.1667 200.958 28.6 201.124 28.8C201.324 28.9667 201.758 29.05 202.424 29.05H211.474C212.108 29.05 212.524 28.9667 212.724 28.8C212.924 28.6 213.024 28.1667 213.024 27.5V24.75H219.324V28.05C219.324 30.6833 218.008 32 215.374 32H198.374C195.741 32 194.424 30.6833 194.424 28.05V11.7C194.424 9.06667 195.741 7.75 198.374 7.75ZM237.613 7.7H241.963V10.95H236.463C234.163 10.95 233.013 12.2 233.013 14.7V32H226.563V7.75H233.013V10.75C233.646 8.71667 235.179 7.7 237.613 7.7ZM283.407 3.85H267.457V15.8H281.457V18.75H267.457V32H260.557V0.899998H283.407V3.85ZM306.717 27.5V12.25C306.717 11.6167 306.617 11.2 306.417 11C306.251 10.8 305.834 10.7 305.167 10.7H296.417C295.784 10.7 295.367 10.8 295.167 11C294.967 11.2 294.867 11.6167 294.867 12.25V27.5C294.867 28.1667 294.967 28.6 295.167 28.8C295.367 28.9667 295.784 29.05 296.417 29.05H305.167C305.834 29.05 306.251 28.9667 306.417 28.8C306.617 28.6 306.717 28.1667 306.717 27.5ZM292.417 7.75H309.167C311.801 7.75 313.117 9.06667 313.117 11.7V28.05C313.117 30.6833 311.801 32 309.167 32H292.417C289.784 32 288.467 30.6833 288.467 28.05V11.7C288.467 9.06667 289.784 7.75 292.417 7.75ZM344.253 16H337.903V12.25C337.903 11.6167 337.803 11.2 337.603 11C337.403 10.8 336.986 10.7 336.353 10.7H328.303C327.636 10.7 327.203 10.8 327.003 11C326.836 11.2 326.753 11.6167 326.753 12.25V27.5C326.753 28.1667 326.836 28.6 327.003 28.8C327.203 28.9667 327.636 29.05 328.303 29.05H336.353C336.986 29.05 337.403 28.9667 337.603 28.8C337.803 28.6 337.903 28.1667 337.903 27.5V23.8H344.253V28.05C344.253 30.6833 342.936 32 340.303 32H324.253C321.62 32 320.303 30.6833 320.303 28.05V11.7C320.303 9.06667 321.62 7.75 324.253 7.75H340.303C342.936 7.75 344.253 9.06667 344.253 11.7V16ZM368.529 7.75H374.979V32H368.529V30.45C368.129 31.4833 367.196 32 365.729 32H354.429C351.796 32 350.479 30.6833 350.479 28.05V7.75H356.929V27.5C356.929 28.1667 357.012 28.6 357.179 28.8C357.379 28.9667 357.812 29.05 358.479 29.05H366.779C367.412 29.05 367.862 28.9333 368.129 28.7C368.396 28.4333 368.529 28 368.529 27.4V7.75ZM399.059 27.55V22.95C399.059 22.3167 398.959 21.9 398.759 21.7C398.559 21.5 398.142 21.4 397.509 21.4H386.259C383.626 21.4 382.309 20.0833 382.309 17.45V11.7C382.309 9.06667 383.626 7.75 386.259 7.75H401.309C403.942 7.75 405.259 9.06667 405.259 11.7V14.75H398.959V12.2C398.959 11.5333 398.859 11.1167 398.659 10.95C398.459 10.75 398.042 10.65 397.409 10.65H390.309C389.676 10.65 389.259 10.75 389.059 10.95C388.859 11.1167 388.759 11.5333 388.759 12.2V16.9C388.759 17.5667 388.859 18 389.059 18.2C389.259 18.3667 389.676 18.45 390.309 18.45H401.509C404.142 18.45 405.459 19.7667 405.459 22.4V28.05C405.459 30.6833 404.142 32 401.509 32H386.409C383.776 32 382.459 30.6833 382.459 28.05V25H388.759V27.55C388.759 28.1833 388.859 28.6 389.059 28.8C389.259 29 389.676 29.1 390.309 29.1H397.509C398.142 29.1 398.559 29 398.759 28.8C398.959 28.6 399.059 28.1833 399.059 27.55Z" fill="white"/>
</svg>
