<svg width="138" height="64" viewBox="0 0 138 64" fill="none" xmlns="http://www.w3.org/2000/svg">
<g clip-path="url(#clip0_234_3636)">
<path d="M77.8278 51.6875C78.2063 51.6875 78.5046 51.7796 78.7226 51.9635C78.9407 52.1475 79.0483 52.4031 79.0483 52.7251C79.0483 53.0496 78.9407 53.3026 78.7226 53.4891C78.5046 53.6732 78.2063 53.7651 77.8278 53.7651H77.106V54.6698H76.6875V51.6875H77.8278ZM77.8153 53.3972C78.0809 53.3972 78.2815 53.3383 78.4218 53.2234C78.5622 53.1084 78.6299 52.9423 78.6299 52.7276C78.6299 52.5129 78.5597 52.3469 78.4218 52.2318C78.2815 52.1168 78.0809 52.0581 77.8153 52.0581H77.1036V53.3972H77.8153ZM83.339 54.6724L82.7074 53.755C82.6297 53.76 82.5671 53.7626 82.5245 53.7626H81.8027V54.6698H81.3841V51.6875H82.5245C82.9029 51.6875 83.2012 51.7796 83.4192 51.9635C83.6373 52.1475 83.745 52.4031 83.745 52.7251C83.745 52.955 83.6899 53.1519 83.5771 53.3128C83.4668 53.4738 83.3064 53.5914 83.1009 53.6655L83.7951 54.6673H83.339V54.6724ZM82.512 53.4023C82.7776 53.4023 82.9781 53.3435 83.1185 53.2285C83.2588 53.1109 83.3264 52.9449 83.3264 52.7302C83.3264 52.5156 83.2563 52.3494 83.1185 52.2344C82.9781 52.1195 82.7776 52.0606 82.512 52.0606H81.8002V53.4023H82.512ZM86.1435 51.6901H86.562V54.6724H86.1435V51.6901ZM91.6719 51.6901L90.3888 54.6724H89.9757L88.6874 51.6901H89.1381L90.1905 54.1408L91.2535 51.6901H91.6719ZM95.5367 53.9287H93.9829L93.6624 54.6749H93.2309L94.5568 51.6927H94.9699L96.2983 54.6749H95.8599L95.5393 53.9287H95.5367ZM95.3917 53.5888L94.7594 52.1271L94.1279 53.5888H95.3917ZM98.8872 52.0632H97.8853V51.6927H100.306V52.0632H99.3038V54.6749H98.8898V52.0632H98.8872ZM104.605 54.3044V54.6749H102.481V51.6927H104.547V52.0632H102.9V52.9806H104.366V53.3435H102.9V54.3069H104.605V54.3044ZM110.408 51.6927H110.827V54.3044H112.411V54.6749H110.408V51.6927ZM114.611 51.6927H115.03V54.6749H114.611V51.6927ZM120.341 54.6749L120.336 52.5002L119.278 54.312H119.085L118.027 52.5129V54.6749H117.626V51.6927H117.97L119.191 53.7907L120.393 51.6927H120.737L120.742 54.6749H120.341ZM123.34 51.6927H123.759V54.6749H123.34V51.6927ZM126.937 52.0632H125.934V51.6927H128.355V52.0632H127.353V54.6749H126.94V52.0632H126.937ZM132.653 54.3044V54.6749H130.531V51.6927H132.596V52.0632H130.949V52.9806H132.416V53.3435H130.949V54.3069H132.653V54.3044ZM135.052 51.6927H136.285C136.593 51.6927 136.869 51.754 137.107 51.8792C137.348 52.0044 137.533 52.1807 137.666 52.4056C137.799 52.6305 137.864 52.8911 137.864 53.1825C137.864 53.4763 137.799 53.7344 137.666 53.9594C137.533 54.1843 137.348 54.3606 137.107 54.4858C136.867 54.611 136.593 54.6724 136.285 54.6724H135.052V51.6901V51.6927ZM136.26 54.3044C136.498 54.3044 136.706 54.2584 136.884 54.1638C137.064 54.0693 137.202 53.9389 137.3 53.7703C137.398 53.6016 137.445 53.4048 137.445 53.1851C137.445 52.9628 137.398 52.7685 137.3 52.5998C137.202 52.4312 137.064 52.2983 136.884 52.2063C136.704 52.1117 136.496 52.0657 136.26 52.0657H135.47V54.3069H136.26V54.3044Z" fill="white"/>
<path d="M42.1713 47.1291L41.3518 46.4008C41.0961 46.6871 40.7227 46.8941 40.2315 47.0167C39.7403 47.1419 39.2114 47.2033 38.645 47.2033C38.1538 47.2033 37.7027 47.1598 37.2917 47.0729C36.8806 46.9861 36.5223 46.8403 36.2115 46.6333C35.9008 46.429 35.6601 46.1555 35.4872 45.8207C35.3143 45.4835 35.2266 45.072 35.2266 44.5864V34.1191C35.2266 33.2604 35.5273 32.6062 36.1288 32.1565C36.7303 31.7067 37.6326 31.4844 38.8355 31.4844C40.056 31.4844 40.9407 31.7093 41.487 32.1565C42.0335 32.6037 42.3066 33.2604 42.3066 34.1191V36.8305H40.0385V34.1012C40.0385 33.516 39.6375 33.2221 38.8355 33.2221C38.1062 33.2221 37.7428 33.516 37.7428 34.1012V44.5864C37.7428 44.8982 37.8431 45.1257 38.0436 45.2687C38.244 45.4118 38.4997 45.4835 38.8079 45.4835C39.5723 45.4835 39.9834 45.2227 40.0385 44.6989V41.3895H38.7001V39.7438H42.472V47.1266H42.1713V47.1291ZM44.9281 47.0346V31.6505H51.1334V33.3882H47.4444V38.397H49.8503V40.1347H47.4444V47.0321H44.9281V47.0346ZM57.607 31.6505H60.1207V44.5864C60.1207 46.3318 58.9277 47.2033 56.5394 47.2033C54.1534 47.2033 52.958 46.3318 52.958 44.5864V31.6505H55.4717V44.5864C55.4717 45.1844 55.8276 45.4835 56.5368 45.4835C57.2486 45.4835 57.6019 45.1844 57.6019 44.5864V31.6505H57.607ZM63.9727 47.0346V33.3908H61.6219V31.6531H68.8398V33.3908H66.489V47.0346H63.9753H63.9727ZM75.3409 31.6505H77.8546V44.5864C77.8546 46.3318 76.6617 47.2033 74.2732 47.2033C71.8873 47.2033 70.6919 46.3318 70.6919 44.5864V31.6505H73.2056V44.5864C73.2056 45.1844 73.5615 45.4835 74.2707 45.4835C74.9825 45.4835 75.3359 45.1844 75.3359 44.5864V31.6505H75.3409ZM85.2855 34.7734C85.2855 34.3005 85.2028 33.9505 85.0399 33.7256C84.8769 33.5006 84.4935 33.3882 83.8921 33.3882H82.9346V38.5478H83.9196C84.8319 38.5478 85.2855 38.2181 85.2855 37.5562V34.7707V34.7734ZM85.2855 47.0346C85.085 45.8642 84.8845 44.7117 84.684 43.577C84.4835 42.4424 84.2479 41.2899 83.9723 40.1195H82.9346V47.0346H80.3933V31.6505H83.8921C85.2028 31.6505 86.1927 31.86 86.8569 32.2766C87.5212 32.6931 87.854 33.4061 87.854 34.4181V37.5409C87.854 38.1389 87.737 38.6092 87.4985 38.9516C87.2604 39.294 86.8869 39.5649 86.3782 39.7642C86.7065 41.0113 87.0022 42.2302 87.2654 43.4288C87.5308 44.6248 87.7894 45.8284 88.0444 47.0372H85.283L85.2855 47.0346ZM90.2026 47.0346V31.6505H96.2702V33.3882H92.7163V38.3229H95.0946V40.0606H92.7163V45.3122H96.4056V47.0321H90.2L90.2026 47.0346Z" fill="white"/>
<path d="M106.332 47.0372V33.3933H103.98V31.6556H111.198V33.3933H108.847V47.0372H106.333H106.332ZM113.133 47.0372V31.6531H119.201V33.3908H115.647V38.3254H118.025V40.0632H115.647V45.3148H119.336V47.0346H113.13L113.133 47.0372ZM126.03 41.3921H128.326V44.5711C128.326 45.4681 128.06 46.1325 127.534 46.5618C127.005 46.9911 126.158 47.2058 124.992 47.2058C122.569 47.2058 121.356 46.3395 121.356 44.6069V34.1396C121.356 32.3712 122.569 31.4844 124.992 31.4844C127.215 31.4844 128.328 32.3558 128.328 34.1012V36.8305H126.033V34.1012C126.033 33.8022 125.955 33.5799 125.799 33.4368C125.644 33.2936 125.376 33.2221 124.992 33.2221C124.28 33.2221 123.928 33.516 123.928 34.1012V44.5864C123.928 45.1844 124.283 45.4835 124.992 45.4835C125.684 45.4835 126.03 45.1844 126.03 44.5864V41.3895V41.3921ZM135.348 47.0372V40.0657H133.215V47.0372H130.699V31.6531H133.215V38.3459H135.348V31.6531H137.862V47.0372H135.348Z" fill="url(#paint0_linear_234_3636)"/>
<path d="M47.3535 4.33945L47.356 4.34201L47.366 4.34713L47.3685 4.34968L47.371 4.35224L47.3735 4.35479L47.376 4.35735L47.3785 4.3599H47.381H47.3835L47.3861 4.36245L47.3886 4.36501L47.391 4.36756L47.3936 4.37012L47.3961 4.37267L47.3985 4.37523L47.4011 4.37778L47.4036 4.38034L47.4061 4.3829L47.4086 4.38546L47.4111 4.38801L47.4136 4.39057L47.4161 4.39312L47.4186 4.39568L47.4212 4.39823L47.4236 4.40079H47.4261H47.4287L47.4311 4.40334L47.4337 4.4059L47.4362 4.40845H47.4386H47.4412L47.4437 4.41101L47.4462 4.41356L47.4487 4.41612L47.4512 4.41867L47.4537 4.42123L47.4562 4.42379L47.4587 4.42635L47.4613 4.4289L47.4637 4.43146L47.4662 4.43401L47.4688 4.43657L47.4712 4.43912L47.4737 4.44168L47.4763 4.44423L47.4788 4.44679L47.4863 4.4519L47.4888 4.45445L47.5013 4.46212L47.5038 4.46468C47.7193 4.60523 47.9324 4.75089 48.1404 4.89655C48.1529 4.90422 48.1679 4.91445 48.178 4.92211C48.178 4.92211 47.9624 4.756 47.3083 4.33945L47.2858 4.32668L47.4136 4.4059C47.7093 4.58734 47.9926 4.78667 48.2907 4.963C48.2883 4.96044 48.0076 4.76367 47.2808 4.32412L47.2757 4.32157L47.2733 4.31901H47.2708L47.2733 4.32157L47.3209 4.35224L47.3535 4.33945ZM21.9205 61.7104C22.4769 61.8919 22.9079 62.012 23.3892 62.127L23.3665 62.1218L23.3916 62.127C23.7124 62.2062 24.0358 62.2803 24.359 62.3468C24.3665 62.3468 24.3766 62.3468 24.3816 62.3468C24.3766 62.3391 24.3716 62.3314 24.3691 62.3237C23.7124 62.0707 23.0157 61.9737 22.3415 61.7896C21.9405 61.6798 21.547 61.5469 21.1461 61.4396C21.1887 61.46 21.1887 61.46 21.3365 61.5137C21.522 61.5776 21.7075 61.6414 21.8929 61.7002L21.8954 61.7028L21.918 61.7104H21.9205ZM22.9706 62.0759L22.9405 62.0656C23.4994 62.2241 24.2437 62.4337 24.8077 62.5742C24.9004 62.5972 24.9956 62.6202 25.0908 62.638C25.0883 62.638 25.0859 62.6355 25.0833 62.6355C24.3791 62.4516 23.6698 62.2854 22.9731 62.0759H22.9706ZM26.3314 62.7097C25.0908 62.5589 25.0908 62.5589 25.0658 62.5589C25.2387 62.7045 28.0807 63.1542 28.5595 63.0469C28.5619 63.0419 28.5644 63.0341 28.567 63.029C28.5595 63.0265 28.5494 63.0214 28.5419 63.0162C28.3565 62.9575 28.3565 62.9575 26.3314 62.7097ZM27.394 63.0699H27.3915L29.2787 63.2872C28.6321 63.231 28.0331 63.162 27.394 63.0699ZM29.7148 62.8221C30.0356 62.8246 30.2887 62.8144 30.5594 62.7888C30.9904 62.7633 31.419 62.7301 31.8501 62.6815C31.9027 62.6279 31.8777 62.6023 31.7975 62.5589C31.2561 62.362 29.7699 62.472 29.4767 62.495C29.1158 62.5231 28.2938 62.6048 28.4491 62.7198C28.5194 62.7735 28.7674 62.8119 28.8602 62.8246C29.1434 62.8271 29.4291 62.8271 29.7123 62.8195L29.7148 62.8221ZM30.9855 63.2156C29.6923 63.2335 29.6923 63.2335 29.6221 63.2488C29.9553 63.3971 33.0004 63.3971 33.2811 63.2488C33.2761 63.2438 33.2686 63.236 33.2636 63.231C33.0581 63.19 32.5769 63.1952 30.9855 63.2156ZM33.9528 62.4873C33.7398 62.5307 32.6897 62.748 32.8601 62.8809C33.236 63.1773 36.3512 62.7352 36.4063 62.3774C36.4114 62.3416 36.3713 62.3212 36.3387 62.3033C35.7648 62.1295 34.028 62.472 33.9528 62.4873ZM35.7071 63.0879C35.2235 63.1569 34.7372 63.2054 34.2535 63.2846C34.2786 63.2897 34.2811 63.2897 34.4515 63.2744L34.5743 63.2642C35.464 63.1492 36.6495 63.0086 37.5316 62.8502C37.8199 62.7939 37.8725 62.7787 37.9101 62.7684C37.9101 62.7659 37.9126 62.7633 37.9126 62.7608C37.1658 62.7991 36.4414 62.983 35.7046 63.0879H35.7071ZM38.8825 61.9711C38.454 62.1091 37.7271 62.3595 37.682 62.4924C37.8224 62.7454 41.0754 61.8689 41.2333 61.5341C41.2508 61.4983 41.2208 61.4855 41.1957 61.4728C40.8097 61.4012 39.514 61.7667 38.8825 61.9711ZM41.281 59.9625C40.6243 60.3176 40.1381 60.7521 40.4764 60.8901C41.2133 61.1916 43.9601 59.9905 43.8147 59.4309C43.7996 59.3721 43.742 59.3415 43.6969 59.3159C43.1205 59.1472 41.91 59.6226 41.281 59.9625ZM43.6442 60.7905C42.8774 61.1405 42.4438 61.3603 42.3561 61.4396C42.3586 61.4447 42.3636 61.4523 42.3661 61.4549C42.8097 61.4191 45.5189 60.2257 45.7745 59.9522C45.7695 59.9471 45.7646 59.9394 45.762 59.9343C45.4713 59.9599 43.9475 60.6525 43.6442 60.7905ZM46.2708 58.5058C45.6191 58.9505 45.0953 59.4437 45.3535 59.5254C45.9274 59.712 48.7319 57.9896 48.5464 57.5654C48.5363 57.5424 48.5038 57.5245 48.4812 57.5143C48.0376 57.4402 46.8898 58.0816 46.2708 58.5033V58.5058ZM47.8923 58.8329C47.4111 59.1293 47.1204 59.2955 47.0101 59.3594L48.1379 58.6873L49.3509 57.8874C48.9524 58.1634 48.4211 58.5084 47.8923 58.8355V58.8329ZM47.985 55.3319C47.2232 56.0781 47.0678 56.7272 47.6441 56.7528C48.7394 56.7988 50.8772 54.9103 50.401 54.3173C50.3734 54.2816 50.3183 54.2535 50.2807 54.2305C49.6567 54.0541 48.5614 54.7672 47.985 55.3319ZM50.7719 56.3183C50.5915 56.4742 49.6942 57.2587 49.7319 57.407C50.0276 57.5245 52.7644 55.2655 52.6892 54.9664C52.6817 54.9639 52.6742 54.9614 52.6691 54.9588C52.3909 54.9946 51.3584 55.8123 50.7719 56.3183ZM52.6165 52.9246C51.9022 53.7858 51.6867 54.4553 52.1453 54.3863C53.015 54.2561 55.0826 51.8539 54.629 51.4986C54.6165 51.4884 54.5938 51.4807 54.5814 51.4731C54.1152 51.399 53.1528 52.2781 52.6165 52.9246ZM54.4986 53.336C54.0049 53.8855 53.5638 54.3634 53.4285 54.5014C54.0651 53.8216 54.9272 52.9246 55.5287 52.2142L56.0074 51.6239C55.8244 51.8462 55.1327 52.6307 54.4986 53.336ZM59.4158 24.9214C59.7968 25.6804 60.0925 25.6114 60.2053 25.2256C60.4584 24.3566 59.8469 22.187 59.2554 21.8625C59.1477 21.8344 59.0549 21.8319 58.9698 22.0925C59.1577 23.0227 59.308 23.9683 59.4158 24.9214ZM61.3531 24.4512C61.6187 25.614 61.902 26.3449 62.0098 26.1507C62.1977 25.8133 61.5486 22.6828 61.1251 22.4784C60.9196 22.5346 61.3506 24.4308 61.3556 24.4512H61.3531ZM62.0649 24.3465C62.0975 24.487 62.1626 24.7681 62.2303 25.0926L61.8243 23.3881L61.6614 22.8004C61.8343 23.406 61.9747 23.9759 62.0624 24.3465H62.0649ZM59.288 20.043C59.6915 21.2236 60.1476 22.0057 60.2855 21.7526C60.5236 21.3054 59.491 18.5404 58.9848 18.272C58.6715 18.2388 59.283 20.0277 59.288 20.0456V20.043ZM60.6513 20.3982C61.105 21.5917 61.2428 21.8932 61.3105 21.9775C61.3155 21.975 61.323 21.9699 61.3281 21.9673C61.303 21.3974 60.12 18.4918 59.9597 18.4331C59.9597 18.5097 59.9597 18.5812 60.6539 20.4007L60.6513 20.3982ZM57.5487 17.1783C57.9071 17.6281 57.9722 17.444 57.9823 17.3444C58.0524 16.7362 56.8996 14.5077 56.3608 14.2037C56.2981 14.1884 56.2705 14.1985 56.2655 14.2982C56.4009 14.5615 56.5312 14.8298 56.659 15.0981C56.7367 15.2872 56.8219 15.4789 56.9096 15.668C56.9447 15.7446 56.9948 15.8468 57.0324 15.9236C57.2129 16.3375 57.3833 16.7541 57.5437 17.1783H57.5487ZM58.4709 16.4193C59.0324 17.4926 59.3607 18.0191 59.4459 17.9884C59.5437 17.6741 58.0224 14.8272 57.654 14.6432C57.6364 14.6764 57.5963 14.7506 58.4685 16.4193H58.4709ZM59.0174 16.3708C59.3406 16.9585 59.5361 17.3444 59.7642 17.7916V17.789C59.2579 16.8256 58.5787 15.5453 58.0198 14.6151C57.9898 14.5666 57.9597 14.518 57.9272 14.472C58.278 15.1135 58.6689 15.7294 59.0174 16.3682V16.3708ZM55.7217 12.5861C56.6164 13.92 56.8194 14.0784 56.8946 14.0836C57.0851 13.8382 55.1979 11.2572 54.7819 11.0297C54.7768 11.0297 54.7718 11.0297 54.7668 11.0297C54.7593 11.0604 54.7417 11.1294 55.7192 12.5861H55.7217ZM56.5938 12.8186C57.5587 14.1449 57.5588 14.1449 57.6289 14.2113C57.6439 13.8945 55.5412 11.2138 55.3557 11.1294C55.3808 11.1856 55.3859 11.1959 55.7543 11.6865C55.9046 11.8884 56.2179 12.3075 56.5914 12.8186H56.5938ZM53.7593 10.2963C53.8846 10.4139 53.9222 10.4369 53.9598 10.4445C54.0375 10.1481 52.0075 8.00149 51.629 7.78172C51.6316 7.80216 51.6416 7.82771 51.6516 7.84304C51.7869 7.98105 51.9198 8.12159 52.0525 8.26215C52.2657 8.50237 52.4762 8.74514 52.6867 8.98788C52.832 9.15402 52.9774 9.32015 53.1227 9.4862C53.3408 9.75202 53.5538 10.0203 53.7593 10.2963ZM53.5914 9.44281C54.7869 10.7205 54.7869 10.7205 54.847 10.7512C54.827 10.4778 52.5488 8.16759 52.1954 7.97594C52.2155 8.01171 52.218 8.01682 52.5463 8.34904C52.827 8.63525 53.1403 8.95728 53.5939 9.44281H53.5914ZM53.8797 9.42238C54.2731 9.82356 54.6315 10.258 55.04 10.6387C54.639 10.0587 52.5112 7.98871 52.3157 7.90694C52.8195 8.43081 53.3684 8.90354 53.8771 9.42238H53.8797ZM52.0225 7.59772C52.1779 7.73061 52.5964 8.0986 53.1352 8.61736C52.8019 8.3107 52.3583 7.89927 52.0225 7.60027V7.59772ZM50.2431 6.43752C50.5439 6.68796 50.8446 6.94862 51.0075 7.08662C51.3935 7.41884 51.5313 7.53639 51.5939 7.57217C51.5338 7.36772 49.2581 5.55588 48.6743 5.20833C49.188 5.62742 49.7319 6.01075 50.2406 6.43752H50.2431ZM50.5313 6.51674C50.9975 6.88217 51.4336 7.28339 51.9123 7.63094C51.7619 7.38817 49.4186 5.59165 48.777 5.22621C50.401 6.41452 50.401 6.41452 50.5313 6.51418V6.51674ZM50.5414 6.43241C50.985 6.76718 51.411 7.12751 51.8521 7.46739C51.1153 6.77485 49.1955 5.41021 48.7544 5.1751C50.0551 6.06697 50.0551 6.06697 50.5414 6.43241ZM50.2882 6.19986C50.5313 6.37874 50.797 6.58318 51.0176 6.76207C50.8747 6.64963 50.6842 6.49885 50.5388 6.38896C50.2431 6.16153 49.97 5.9622 49.7293 5.79098L49.7268 5.78842C49.3459 5.50987 49.3284 5.49965 48.376 4.88633C48.3785 4.88889 48.7268 5.08311 49.203 5.42043C49.3309 5.50987 49.4938 5.62231 49.6366 5.72454C49.0176 5.29266 48.6266 5.06522 48.6241 5.06266C50.0502 6.02353 50.0502 6.02353 50.2932 6.20242L50.2882 6.19986ZM48.3659 4.86077L48.2106 4.76111C48.0702 4.67423 48.0226 4.65123 48.0226 4.65123C48.0226 4.65123 48.0251 4.65378 48.0277 4.65378C48.1805 4.74834 48.3334 4.83778 48.4838 4.93489L48.3659 4.85822V4.86077ZM47.6842 4.43657L47.6241 4.40079C47.6191 4.39823 47.6141 4.39057 47.6066 4.39312C47.6116 4.39823 47.6141 4.40079 47.6191 4.40334C47.6743 4.43401 47.7294 4.46468 47.7821 4.49789L47.6842 4.43912V4.43657ZM47.0928 4.08646L47.0853 4.08135C47.1229 4.1018 47.158 4.12735 47.1956 4.15035C47.2081 4.15802 47.2206 4.16057 47.2331 4.16824L47.0928 4.08646ZM46.4863 3.74658C46.5865 3.8028 46.6843 3.86158 46.7821 3.9178C46.7845 3.9178 46.7871 3.92035 46.7871 3.92035C46.762 3.89991 46.6793 3.85391 46.6768 3.85391C46.6191 3.82069 46.5415 3.77981 46.4838 3.74658H46.4863ZM45.6718 3.31725C45.9199 3.44503 46.163 3.58303 46.4086 3.71591C46.3961 3.70569 46.2407 3.61369 46.0102 3.49103C45.9099 3.43736 45.7745 3.36836 45.6718 3.31725ZM44.8773 2.92882C44.6793 2.83682 44.4136 2.71416 44.2157 2.62472C44.7019 2.84193 44.7019 2.84193 46.0953 3.56258C46.0929 3.56003 45.7018 3.32236 44.9751 2.97482L44.8799 2.92882H44.8773ZM47.3209 4.30879L47.3158 4.30624L47.3184 4.30879H47.3209ZM47.3309 4.31646L47.3434 4.32412L47.3033 4.29856L47.2432 4.26535L47.2984 4.29601C47.0577 4.14524 46.8071 4.00979 46.5691 3.8488C46.5715 3.8488 46.8246 3.99191 47.2482 4.26279L47.3008 4.29601C47.0577 4.13246 46.8046 3.98424 46.5615 3.82069C46.5991 3.84113 46.8672 3.99957 47.2081 4.23213L47.3033 4.29601L47.2432 4.26279L47.356 4.32923L47.3284 4.31135L47.3309 4.31646ZM47.3059 4.29856L47.3033 4.29601L47.2432 4.25001C46.9951 4.05835 46.8096 3.94847 46.8071 3.94591C46.8222 3.95869 46.8372 3.96891 46.8522 3.97913C47.0528 4.11457 47.1505 4.18357 47.3008 4.29601C47.2432 4.24235 47.1831 4.18868 47.1229 4.13757C47.1079 4.12479 47.0928 4.11457 47.0803 4.09924C47.0903 4.10435 47.1906 4.16568 47.2808 4.27301L47.3008 4.29856C47.3059 4.28834 47.3083 4.28068 47.3158 4.27301C47.3385 4.24746 47.391 4.27557 47.3936 4.28834C47.3886 4.29345 47.3861 4.29345 47.3209 4.29856H47.3008C47.5539 4.37778 47.6767 4.45445 47.6793 4.45445C47.6617 4.44934 47.6441 4.44168 47.6266 4.43401C47.5389 4.39568 47.4512 4.35735 47.361 4.32412L47.3008 4.30113C47.7419 4.50301 47.945 4.62823 47.9474 4.62823C47.7645 4.53623 47.5841 4.43912 47.3985 4.34713L47.3008 4.30113C47.8848 4.60012 48.1505 4.76622 48.1505 4.76878C47.9073 4.6359 47.6668 4.49789 47.4236 4.36756L47.3033 4.30368C47.9775 4.67423 48.2858 4.871 48.2883 4.87356C47.9975 4.72278 47.7244 4.54134 47.4386 4.38034L47.3008 4.30368H47.2984L47.2958 4.30113C47.2206 4.28068 47.1429 4.26279 47.0653 4.23979C47.0176 4.22702 47.0001 4.22191 46.9976 4.21679C47.0151 4.21423 47.1053 4.23468 47.2708 4.29345C47.2783 4.29601 47.2883 4.30113 47.2958 4.30368C47.0702 4.19124 46.8396 4.09157 46.6191 3.97146C46.6317 3.97402 46.8597 4.07624 47.2457 4.27812L47.2958 4.30624C47.0201 4.1478 46.7344 4.00213 46.4613 3.84113C46.4787 3.85135 46.772 4.00213 47.2331 4.27046L47.2933 4.30368L47.2357 4.26791C46.7595 3.97913 46.4788 3.82836 46.4788 3.82836C46.747 3.99446 47.0252 4.14269 47.2958 4.30624C47.2984 4.30879 47.3033 4.3139 47.3059 4.31901C47.4587 4.49789 47.4587 4.49789 47.4688 4.50045C47.4662 4.49023 47.4311 4.43401 47.2958 4.30879C47.2833 4.36501 47.2482 4.37523 47.2331 4.36756C47.2157 4.35735 47.2281 4.32668 47.2883 4.31135C47.2908 4.31135 47.2933 4.31135 47.2958 4.30879C47.5515 4.49789 47.6692 4.60267 47.6818 4.62056C47.5539 4.53367 47.4437 4.42635 47.3209 4.32923L47.2958 4.30879L47.3359 4.3369C47.5164 4.46212 47.6868 4.59756 47.8698 4.71767C47.8647 4.71256 47.6968 4.57967 47.2958 4.31135H47.2933L47.3184 4.32668L47.3059 4.31901L47.2933 4.31135L47.3059 4.29856ZM47.3109 4.30113L47.3083 4.29856L47.4487 4.38034C47.7494 4.55923 48.0427 4.756 48.3484 4.92722C48.3459 4.92467 48.0477 4.72534 47.3083 4.29856L47.3059 4.29601H47.3033L47.3083 4.30113H47.3109ZM13.9733 57.6089C13.6149 57.338 13.2816 57.0365 12.9182 56.7732C12.9132 56.7706 12.9082 56.7681 12.9032 56.763C12.9257 56.8064 13.2641 57.0799 13.2791 57.0927C13.4871 57.2485 13.7653 57.4555 13.9733 57.6089ZM14.6725 58.0944C14.7553 58.1532 14.838 58.2119 14.9232 58.2707L15.2941 58.5135L15.3618 58.5569C14.8781 58.2452 14.4796 57.8159 14.0059 57.4938C13.9934 57.4862 13.9784 57.4785 13.9658 57.4734C13.9633 57.476 13.9608 57.481 13.9608 57.4837C14.0135 57.5679 14.2791 57.8108 14.6725 58.0969V58.0944ZM15.4721 58.6003C15.5647 58.6771 15.6751 58.7537 15.7979 58.8304C15.848 58.8611 15.9131 58.9019 15.9633 58.9301C15.8881 58.8815 15.8279 58.815 15.7351 58.7103C15.5673 58.5186 15.457 58.4036 15.3217 58.3142C15.2139 58.2528 15.2038 58.2835 15.2164 58.3167C15.2314 58.3602 15.3066 58.4623 15.4745 58.5978L15.4721 58.6003ZM16.3242 59.114C16.3191 59.1319 16.3317 59.1498 16.3542 59.1651C16.3993 59.1907 16.4569 59.2265 16.5021 59.252C16.7177 59.3721 16.8454 59.3441 16.8253 59.2648C16.8103 59.2061 16.7252 59.1524 16.6976 59.1371C16.4871 59.0246 16.3367 59.0578 16.3242 59.114ZM17.1738 59.6022C17.1086 59.5766 17.0109 59.5382 16.9031 59.4795C16.9582 59.5101 17.0334 59.551 17.0885 59.5817C17.675 59.9011 18.066 59.9957 18.1035 59.9548C18.1011 59.9394 18.091 59.9318 18.0484 59.9063C17.7702 59.7631 17.462 59.712 17.1738 59.6022ZM17.9657 60.034C17.8855 59.9957 17.7226 59.9215 17.5471 59.8296L17.6048 59.8603C17.6825 59.9011 17.7828 59.9522 17.8604 59.9932C18.7953 60.4684 19.2689 60.5936 19.3165 60.5988C19.3141 60.5885 19.3015 60.5809 19.2915 60.5757C18.8604 60.3662 18.3992 60.2334 17.9657 60.034ZM18.6499 60.3841C18.6098 60.3662 18.5572 60.3407 18.5196 60.3203L18.7852 60.448L19.1937 60.6371C20.0609 61.0256 20.3541 61.1098 20.3567 61.1098C20.3541 61.1073 20.3491 61.1048 20.3466 61.1022C19.7852 60.8517 19.2088 60.6474 18.6525 60.3841H18.6499ZM10.5699 54.8055C10.7228 54.9486 10.9258 55.1377 11.0811 55.2782C10.3343 54.5857 9.66769 53.8088 8.93839 53.0984C8.97848 53.1674 9.38444 53.6172 9.83058 54.0746L10.5724 54.8055H10.5699ZM10.9007 55.0329C11.4571 55.59 12.0185 56.073 12.1563 56.1829C12.1463 56.1701 10.1188 54.0388 9.91827 53.8778C9.91076 53.8728 9.90325 53.8676 9.89574 53.865C9.89321 53.8676 9.88823 53.8727 9.88316 53.8753C9.94587 54.0081 10.3418 54.4809 10.8982 55.0354L10.9007 55.0329ZM12.0611 55.8558C12.5322 56.3669 13.0986 56.8575 13.1788 56.8857C13.1689 56.8089 11.9132 55.2731 11.5072 54.9793C11.4596 54.9511 11.4495 54.946 11.422 54.946C11.3644 55.0099 11.64 55.4009 12.0611 55.8558ZM13.6775 56.9112C13.9683 57.3098 14.5422 57.8592 14.5723 57.7341C14.5999 57.6267 14.1713 56.7144 13.64 56.3541C13.3894 56.2109 13.407 56.3771 13.4244 56.4538C13.437 56.5075 13.4871 56.6556 13.6751 56.9112H13.6775ZM15.5372 58.0586C15.6299 58.4522 16.1187 58.8943 16.3367 58.5748C16.4494 58.4113 16.3968 58.051 16.0109 57.798C15.6525 57.6038 15.4745 57.7775 15.5397 58.0561L15.5372 58.0586ZM17.4519 59.1856C17.274 59.298 17.2314 59.4743 17.7076 59.5944C18.2715 59.7376 18.7451 59.5919 18.5672 59.3312C18.5271 59.2725 18.4695 59.2367 18.4144 59.2009C18.0183 58.9965 17.6123 59.0808 17.4519 59.1856ZM19.3015 60.2257C18.8705 60.2078 18.8404 60.2308 18.8253 60.2436C18.9005 60.4762 20.7376 60.8007 20.8102 60.5963C20.8278 60.5502 20.7526 60.5042 20.7075 60.4762C20.3541 60.3023 19.7476 60.2436 19.3015 60.2257ZM20.9707 61.1125C20.6874 61.0536 20.4118 60.954 20.121 60.9361C20.3391 61.1712 22.6648 61.7411 22.7977 61.5929C22.7926 61.5724 22.7851 61.5673 22.74 61.5418C22.4994 61.4344 22.2939 61.391 20.9681 61.1125H20.9707ZM7.19655 51.0208L8.27923 52.3751C7.4998 51.4424 6.82814 50.4279 6.09632 49.4568C6.11888 49.4977 6.12389 49.5079 6.22915 49.6664L7.19404 51.0182L7.19655 51.0208ZM7.8632 51.6904C8.37948 52.3778 8.9659 53.0447 9.07368 53.1162C9.07874 53.0115 7.26171 50.5148 7.02612 50.3052C7.0161 50.2975 6.99856 50.2899 6.98603 50.2873C6.95846 50.3793 7.35945 51.0208 7.86069 51.6904H7.8632ZM9.26417 52.7483C9.72533 53.4204 10.3719 54.1487 10.4772 54.1181C10.5323 53.9647 9.35693 52.0327 8.83558 51.629C8.78545 51.5983 8.66267 51.5242 8.71029 51.7235C8.72784 51.8002 8.82056 52.0992 9.2667 52.7483H9.26417ZM11.3869 54.1845C11.7678 54.8847 12.4872 55.6718 12.5824 55.3983C12.6676 55.1505 12.1664 53.8753 11.4696 53.3821C11.0436 53.1368 11.1488 53.5916 11.1739 53.6836C11.2115 53.8165 11.2917 54.0056 11.3895 54.1845H11.3869ZM14.0936 55.8992C14.2465 56.5279 14.9432 57.2946 15.2415 56.8575C15.4419 56.5636 15.2916 55.8021 14.6851 55.3932C14.1938 55.1223 13.9833 55.4366 14.0961 55.8966L14.0936 55.8992ZM16.9883 57.6421C16.7728 58.2145 17.5121 58.7358 18.1186 58.4368C18.522 58.2375 18.5822 57.7443 18.0559 57.4044C17.492 57.108 17.0936 57.3636 16.9883 57.6421ZM19.8754 59.3031C19.5371 59.4795 19.4594 59.7427 19.9656 59.9011C20.7176 60.1388 21.8378 59.9139 21.5746 59.4718C21.5245 59.39 21.4518 59.3441 21.3741 59.2955C20.8177 59.017 20.1737 59.1472 19.8754 59.3031ZM22.5772 60.7827C22.4067 60.8007 21.8603 60.8748 21.9907 61.0128C22.2714 61.3092 24.4893 61.5137 24.572 61.1201C24.5871 61.0435 24.4893 60.9872 24.4317 60.9514C23.9205 60.7137 23.0257 60.7343 22.5746 60.7827H22.5772ZM24.9154 61.9813C24.0382 61.9379 23.9831 61.9737 23.9555 61.9915C24.0157 62.1039 25.0131 62.3033 25.76 62.3826C26.587 62.4694 27.1008 62.4209 27.1033 62.3237C27.1033 62.2982 27.0632 62.2752 27.0282 62.2547C26.6371 62.0938 25.6648 62.0171 24.9154 61.9813ZM5.15148 47.8111C5.59007 48.5905 6.09132 49.3469 6.19406 49.4184C6.21161 49.2882 4.66027 46.4413 4.44473 46.2113C4.43722 46.2063 4.4297 46.2011 4.42469 46.196C4.35701 46.2931 4.82067 47.2156 5.15399 47.8085L5.15148 47.8111ZM6.48478 48.9253C6.95596 49.8248 7.61258 50.709 7.67774 50.5301C7.74791 50.3282 6.75796 48.0793 6.1665 47.581C6.01362 47.4865 5.97352 47.5862 6.0462 47.875C6.13642 48.2301 6.35947 48.6851 6.48729 48.9253H6.48478ZM8.80056 50.5684C9.19403 51.491 9.97339 52.4672 10.1288 52.0838C10.2766 51.7159 9.73285 50.0982 8.96345 49.5232C8.44213 49.2166 8.60504 49.9602 8.62508 50.0471C8.65015 50.1544 8.70277 50.3307 8.80301 50.5684H8.80056ZM12.0335 52.6818C12.2465 53.612 13.1413 54.5653 13.4921 54.0388C13.7603 53.6376 13.5147 52.4979 12.7302 51.9561C12.1162 51.6111 11.8907 52.0659 12.031 52.6818H12.0335ZM15.7653 54.9869C15.6625 55.82 16.5748 56.6915 17.2464 56.1497C17.6851 55.7944 17.6399 54.9894 16.9256 54.5192C16.2765 54.1717 15.8254 54.4835 15.7653 54.9869ZM19.6098 57.2511C19.1611 57.8593 19.8379 58.5007 20.7601 58.3397C21.5997 58.1941 21.8854 57.4888 21.2814 57.062C21.2564 57.0441 21.2187 57.0237 21.1937 57.0058C20.492 56.648 19.8479 56.9316 19.6122 57.2511H19.6098ZM23.334 59.3441C22.8954 59.574 22.7375 59.9267 23.314 60.126C24.1987 60.4327 25.8176 60.0595 25.5019 59.482C25.4468 59.3798 25.359 59.3262 25.2663 59.2699C24.5871 58.9428 23.7225 59.1421 23.3365 59.3415L23.334 59.3441ZM26.6999 61.1329C26.2537 61.23 25.8176 61.4063 26.0557 61.575C26.6447 61.9864 29.1308 61.7846 29.0456 61.3296C29.0306 61.2556 28.9604 61.2121 28.8827 61.1687C28.2612 60.8978 27.181 61.0256 26.6973 61.1329H26.6999ZM29.7097 62.8144L29.8927 62.8093H29.9053H29.9178L29.7097 62.8144ZM3.03625 43.6175C3.34702 44.4046 3.69789 45.1661 3.80064 45.322C3.83572 45.161 2.46734 41.8567 2.4523 41.8312C2.44979 41.8287 2.44479 41.8236 2.43977 41.8209C2.42473 41.9666 2.73801 42.8662 3.03625 43.6175ZM4.04124 44.632C4.43471 45.6644 5.00112 46.6228 5.08633 46.3979C5.17906 46.1525 4.38709 43.6124 3.83322 43.091C3.59513 42.9402 3.69288 43.4591 3.74551 43.689C3.78811 43.8756 3.87583 44.1924 4.04374 44.632H4.04124ZM6.28178 46.3264C6.63014 47.4226 7.40456 48.5394 7.60757 48.0538C7.82059 47.5504 7.28176 45.6644 6.52989 45.0715C6.04871 44.7828 6.06374 45.4728 6.19156 46.0069C6.21412 46.104 6.25171 46.2292 6.28178 46.3237V46.3264ZM9.68525 48.634C9.90578 49.7967 10.9408 50.9722 11.3543 50.272C11.6576 49.7583 11.3719 48.3452 10.4722 47.7011C9.72778 47.2744 9.56244 47.9899 9.68525 48.634ZM14.0384 51.3938C13.9959 52.457 15.0735 53.5865 15.7928 52.9271C16.2565 52.5055 16.254 51.3709 15.3016 50.7268C14.5448 50.3129 14.0635 50.7396 14.0384 51.3938ZM18.705 54.2075C18.3316 55.1428 19.3968 56.0602 20.3567 55.6284C21.106 55.291 21.2513 54.3225 20.3741 53.7552C19.5246 53.3105 18.8855 53.7526 18.705 54.2075ZM23.3641 56.8907C22.8277 57.453 23.1886 58.2017 24.2889 58.1992C25.4217 58.1966 26.1785 57.4198 25.6372 56.8141C25.5545 56.7195 25.4517 56.6582 25.3716 56.6071C24.557 56.2033 23.7074 56.5304 23.3616 56.8907H23.3641ZM27.7324 59.2852C27.171 59.5944 26.9905 60.0366 27.6572 60.2461C28.765 60.5936 30.5569 59.9676 30.2461 59.3415C30.1885 59.2265 30.0933 59.1677 29.9905 59.1064C29.2236 58.7537 28.1986 59.0297 27.7349 59.2852H27.7324ZM31.5193 61.2249C30.9353 61.4089 30.4767 61.6874 30.8426 61.8664C31.6696 62.2675 34.3187 61.7232 34.0606 61.2044C34.033 61.1482 33.9628 61.1073 33.9102 61.0792C33.2861 60.8288 32.1383 61.0307 31.5168 61.2249H31.5193ZM1.95608 40.4589C1.68791 39.5057 1.43479 38.3812 1.30446 37.6913C1.49493 38.5244 1.73052 39.636 1.95608 40.4589ZM2.09642 40.0066C2.31696 40.8907 2.67535 41.8823 2.83576 41.8874C3.05629 41.6753 2.34704 38.7058 1.97612 38.279C1.76309 38.1334 1.88339 38.9895 1.97612 39.4622C2.0062 39.6181 2.05632 39.8404 2.09892 40.0091L2.09642 40.0066ZM3.94099 41.5628C4.19161 42.7256 4.83069 43.9037 5.09385 43.4616C5.37454 42.9913 4.97104 40.7195 4.25677 40.1088C3.80816 39.8328 3.743 40.648 3.94099 41.5628ZM7.18401 43.8731C7.35694 45.161 8.31932 46.449 8.79803 45.7334C9.18399 45.1585 8.93332 43.4181 8.00855 42.7205C7.27674 42.2937 7.08628 43.1371 7.18652 43.8705L7.18401 43.8731ZM11.7378 46.8553C11.7228 48.0692 12.8906 49.4159 13.6625 48.7336C14.2189 48.2429 14.1813 46.7633 13.0911 46.0043C12.1713 45.4881 11.7478 46.1909 11.7403 46.8527L11.7378 46.8553ZM17.0309 50.1289C16.7276 51.3632 18.0284 52.4979 19.0183 51.8641C19.69 51.4348 19.8503 50.1979 18.7777 49.4874C17.8079 48.9687 17.1738 49.5513 17.0309 50.1289ZM22.4944 53.3514C21.9957 54.2177 22.8177 55.3089 24.0808 55.0253C25.2337 54.7645 25.5846 53.5814 24.6948 52.9502C24.6598 52.9246 24.6097 52.8965 24.5746 52.8735C23.6147 52.3854 22.7801 52.8608 22.4969 53.3539L22.4944 53.3514ZM27.795 56.3362C27.1008 57.0109 27.5394 57.7801 28.6296 57.8081C29.9629 57.8414 31.0055 56.8857 30.4015 56.1829C30.3138 56.0807 30.2035 56.0142 30.1158 55.9606C29.2211 55.5338 28.2186 55.9222 27.7925 56.3362H27.795ZM32.5994 58.8968C31.9729 59.2801 31.7473 59.8193 32.4792 60.0187C33.6646 60.3432 35.632 59.5025 35.3237 58.8074C35.2685 58.6796 35.1658 58.6208 35.0606 58.5569C34.246 58.2043 33.1183 58.5774 32.5994 58.8968ZM36.5743 60.8466C35.9502 61.1098 35.4515 61.4728 35.83 61.6414C36.0404 61.736 36.4465 61.713 36.5793 61.7078C37.4414 61.4497 38.2935 61.1457 39.1381 60.8007C39.266 60.6064 39.1682 60.5298 39.0479 60.4634C38.4264 60.2436 37.2009 60.5809 36.5768 60.8466H36.5743ZM0.973638 35.3275C1.06888 36.1733 1.2393 37.1317 1.33955 37.2134C1.51248 36.9706 1.10145 33.7226 0.946073 33.444C0.94106 33.4389 0.933539 33.4338 0.928526 33.4312C0.780664 33.6076 0.968633 35.3096 0.971131 35.3275H0.973638ZM2.22424 36.618C2.35707 37.8881 2.8132 38.9486 3.08136 38.6087C3.41468 38.1845 3.2568 35.6162 2.62523 35.0029C2.24679 34.7652 2.12399 35.6546 2.22424 36.618ZM5.08883 38.7978C5.16652 40.1395 5.97352 41.4811 6.51235 40.8141C6.99605 40.2136 6.87575 38.1947 5.97101 37.4715C5.28682 37.0652 5.04372 38.003 5.08883 38.7978ZM9.4772 41.7801C9.42453 43.298 10.6927 44.6091 11.4746 43.8449C12.1313 43.2035 11.9583 41.5296 10.8907 40.7579C9.95836 40.2237 9.50226 41.0339 9.4772 41.7801ZM15.1262 45.3706C14.8605 46.7582 16.2089 48.0692 17.2464 47.4354C18.1111 46.9064 18.1286 45.3655 16.9633 44.5733C15.9106 43.9983 15.254 44.6933 15.1262 45.3706ZM21.2062 49.0402C20.705 50.2695 22.0032 51.5114 23.2488 50.9927C24.2964 50.5557 24.547 49.168 23.3616 48.3963C22.2864 47.834 21.4544 48.4346 21.2062 49.0402ZM27.2913 52.5489C26.6196 53.5251 27.4968 54.5882 28.8076 54.3838C30.2085 54.164 30.8075 52.7891 29.8076 52.0838C29.7699 52.0583 29.7173 52.0276 29.6772 52.0021C28.6422 51.491 27.6572 52.0148 27.2913 52.5489ZM33.0054 55.6871C32.2411 56.4231 32.5794 57.2256 33.6746 57.2766C35.1031 57.343 36.444 56.1701 35.8149 55.406C35.7271 55.2986 35.6144 55.2296 35.5242 55.176C34.5919 54.7518 33.4891 55.2195 33.0054 55.6871ZM37.9752 58.2426C37.1983 58.7818 37.1106 59.3415 37.7823 59.4871C39.0404 59.7631 41.1857 58.5825 40.7246 57.867C40.6694 57.7826 40.5817 57.7315 40.509 57.6907C39.7045 57.3712 38.5266 57.8592 37.9752 58.2426ZM0.740565 32.4627C0.723021 31.6449 0.810739 29.3527 0.860862 28.7572C0.803219 29.8689 0.735552 31.3511 0.740565 32.4627ZM1.22677 31.5913C1.20421 32.8231 1.43479 33.8452 1.67538 33.5795C2.03126 33.1885 2.13402 30.3544 1.70295 29.8331C1.43228 29.6516 1.24431 30.6049 1.22677 31.5913ZM3.45228 33.4773C3.39965 34.9211 4.02369 36.1069 4.54498 35.56C5.09134 34.9876 5.20411 32.7055 4.3896 31.9976C3.79312 31.6348 3.48236 32.6442 3.44977 33.4773H3.45228ZM7.38953 36.2884C7.24667 37.8702 8.31431 39.1965 9.14635 38.4758C9.89067 37.8293 9.84814 35.8692 8.82807 35.0949C7.95593 34.5889 7.46221 35.4884 7.39204 36.2884H7.38953ZM12.9308 39.9222C12.6475 41.4683 14.0936 42.9326 15.1763 42.1915C15.9858 41.637 16.1688 39.9145 14.8555 38.9921C13.7578 38.3787 13.0686 39.1658 12.9308 39.9197V39.9222ZM19.3968 43.9267C18.9306 45.3476 20.3992 46.7761 21.6749 46.1398C22.7375 45.6082 22.9104 43.9983 21.6248 43.1421C20.4669 42.5263 19.6274 43.229 19.3992 43.9267H19.3968ZM26.0783 47.8724C25.4392 49.1297 26.6497 50.4203 28.0732 49.9935C29.3488 49.6127 29.8201 48.0078 28.5243 47.1773C27.3765 46.5946 26.4016 47.2335 26.0783 47.8724ZM32.5718 51.5318C31.8175 52.5669 32.5744 53.6452 33.9428 53.4843C35.4314 53.3105 36.2961 51.8488 35.3889 51.0412C35.3212 50.9799 35.2159 50.916 35.1382 50.8675C34.0705 50.3589 32.9929 50.9518 32.5718 51.5344V51.5318ZM38.4615 54.6751C37.6369 55.521 37.9527 56.3695 39.0855 56.3541C40.5993 56.3337 42.0353 54.8463 41.2508 54.1129C41.1957 54.0618 41.108 54.0081 41.0429 53.9698C40.1205 53.5737 38.9777 54.1436 38.4615 54.6726V54.6751ZM43.3461 57.0748C42.5641 57.7085 42.4413 58.3243 43.0754 58.4164C43.3686 58.4598 43.6994 58.3755 43.8774 58.3295C44.5966 57.867 45.3009 57.3712 45.9926 56.8422C46.1028 56.5432 46.0552 56.3899 45.8147 56.257C45.0678 55.9963 43.9024 56.6198 43.3461 57.0748ZM1.19168 26.7077C1.08392 27.4002 0.966127 28.5426 1.11649 28.655C1.39469 28.6065 1.95106 25.2588 1.75057 24.8423C1.74305 24.8371 1.73553 24.832 1.72801 24.8269C1.54756 24.8576 1.30196 25.9973 1.19168 26.7077ZM2.6102 28.1848C2.40719 29.5214 2.71796 30.6356 3.20416 30.3136C3.8633 29.8792 4.27682 27.2418 3.62019 26.5876C3.13901 26.2861 2.74052 27.339 2.6102 28.1823V28.1848ZM5.90335 30.6969C5.63017 32.2532 6.4497 33.5692 7.29429 32.9329C8.13638 32.2991 8.32685 30.1347 7.38452 29.3731C6.60258 28.9106 6.04871 29.8689 5.90335 30.6969ZM10.9658 34.1417C10.6125 35.7184 11.8807 37.2185 13.021 36.5745C14.0435 35.997 14.1788 33.9909 12.9332 33.0863C11.8732 32.4832 11.1439 33.3393 10.9634 34.1417H10.9658ZM17.507 38.3021C17.0109 39.9069 18.5572 41.4581 19.903 40.7042C20.9907 40.096 21.1486 38.3225 19.8128 37.4102C18.6123 36.7585 17.7427 37.5379 17.507 38.3021ZM24.562 42.5647C23.9606 43.9906 25.3289 45.4549 26.7826 44.9412C28.0758 44.4838 28.4617 42.6617 27.0707 41.7494C25.8452 41.1131 24.8678 41.844 24.562 42.562V42.5647ZM38.2785 50.295C37.4765 51.4245 38.2208 52.5515 39.6068 52.3062C41.2107 52.02 42.1005 50.2873 41.0253 49.5386C40.9877 49.513 40.9351 49.4824 40.895 49.4594C39.8399 48.9815 38.7296 49.6612 38.2785 50.295ZM44.0679 53.2747C43.2884 54.1692 43.4814 55.0304 44.4563 55.015C45.945 54.9894 47.544 53.2236 46.7645 52.462C46.7144 52.4136 46.6342 52.365 46.574 52.3292C45.7094 51.9893 44.5891 52.6793 44.0679 53.2747ZM1.91598 23.0048L1.6854 23.8737C1.86585 23.2399 2.72046 20.5643 2.87335 20.1197C2.57761 20.9834 2.15908 22.1258 1.91598 23.0048ZM2.63525 22.9997C2.26935 24.2493 2.29942 25.2741 2.69541 25.0262C3.26432 24.671 4.13898 21.8599 3.70791 21.3029C3.37458 21.0831 2.88087 22.1641 2.63525 22.9997ZM5.0362 25.0543C4.62769 26.4726 5.05625 27.6916 5.82816 27.3032C6.75796 26.8381 7.40205 24.3694 6.55997 23.6156C5.90836 23.222 5.27679 24.2213 5.0362 25.0543ZM9.33937 28.1388C8.86572 29.7079 9.81303 31.1415 10.9508 30.5742C12.0661 30.0171 12.4621 27.8296 11.3168 26.9479C10.3669 26.3985 9.58996 27.3134 9.34182 28.1388H9.33937ZM15.4319 32.1433C14.8982 33.743 16.2991 35.3607 17.6675 34.7295C18.8805 34.1698 19.1787 32.1228 17.8203 31.162C16.6224 30.495 15.7026 31.3332 15.4319 32.1407V32.1433ZM22.5896 36.5822C21.9806 38.1231 23.4392 39.7281 24.9179 39.1428C26.2337 38.624 26.5996 36.6333 25.1635 35.6699C23.9004 35.0004 22.898 35.8002 22.5896 36.5822ZM49.2532 51.2482C48.5063 52.2653 48.6567 53.1495 49.5564 53.0294C49.9874 52.9732 50.396 52.6997 50.5313 52.6103C50.9524 52.1376 51.3634 51.6494 51.7644 51.146C52.0851 50.3052 51.6917 50.0854 51.5639 50.0114C50.7895 49.7455 49.7469 50.5736 49.2532 51.2482ZM3.80816 18.2133C3.31945 19.2738 3.06883 20.1529 3.27433 20.0992C3.57758 20.0174 5.15399 16.9457 4.96352 16.4576C4.80312 16.3426 4.23922 17.278 3.80816 18.2133ZM5.24421 19.744C4.6728 21.0499 4.7956 22.1641 5.47729 21.8727C6.38454 21.4843 7.49478 18.9186 6.84066 18.2388C6.33191 17.9245 5.6001 18.9288 5.24421 19.744ZM8.68022 22.3812C8.06119 23.8507 8.67771 25.1974 9.76036 24.7451C10.9208 24.2596 11.6977 21.9315 10.7002 21.1061C9.87818 20.6256 9.02354 21.5635 8.68022 22.3812ZM14.0034 26.0152C13.3318 27.6431 14.5898 29.2454 16.0109 28.5733C17.2665 27.9804 17.7151 25.8976 16.4294 24.947C15.3191 24.3209 14.3442 25.1923 14.0059 26.0127L14.0034 26.0152ZM20.9255 30.426C20.2388 32.0616 21.6824 33.7251 23.2313 33.0812C24.5795 32.5215 25.0056 30.4388 23.5746 29.4498C22.314 28.77 21.2664 29.6108 20.9255 30.426ZM28.4216 34.962C27.7123 36.572 29.1835 38.1999 30.7724 37.5635C32.1633 37.0064 32.607 34.9518 31.1383 33.9781C29.8552 33.3188 28.7775 34.1544 28.4216 34.9594V34.962ZM5.08382 15.507C5.07881 15.5172 5.07129 15.5275 5.06878 15.5376C5.26677 15.3051 7.28677 12.2258 7.2968 12.2052L7.26922 12.2334C6.59255 13.2019 5.68781 14.4925 5.08382 15.507ZM6.48228 14.817C5.8056 15.898 5.59258 16.8359 6.0437 16.749C6.74293 16.6135 8.54238 13.9788 8.09627 13.368C7.75042 13.1431 6.94593 14.0784 6.48478 14.817H6.48228ZM8.8983 16.8946C8.16394 18.1519 8.3469 19.3121 9.24661 19.1153C10.407 18.8598 11.7754 16.4448 10.9133 15.6629C10.2516 15.2642 9.33431 16.1433 8.89576 16.8946H8.8983ZM13.2591 20.0277C12.4872 21.4639 13.2064 22.8796 14.5221 22.5116C15.9207 22.1206 16.8379 19.9101 15.6399 18.9825C14.6826 18.4305 13.67 19.261 13.2566 20.0277H13.2591ZM19.4519 24.1012C18.7025 25.6242 19.9105 27.2649 21.4368 26.8023C22.9405 26.3474 23.5771 24.2213 22.1285 23.1914C20.9205 22.5193 19.8379 23.3191 19.4519 24.1012ZM26.755 28.6346C26.0056 30.2574 27.4843 31.9465 29.0832 31.2923C30.4867 30.7173 30.9428 28.6909 29.4742 27.7018C28.2061 27.0297 27.1208 27.8424 26.755 28.6346ZM8.76038 10.6541C8.01357 11.5153 7.55995 12.2769 7.81307 12.2513C8.20154 12.213 10.5098 9.78271 10.3569 9.31244C10.1765 9.17953 9.3143 10.0178 8.76038 10.6541ZM10.1313 12.1337C9.31431 13.1509 9.20155 14.1322 9.90578 14.0427C10.9308 13.9124 12.7754 11.689 12.1237 11.0042C11.6225 10.6924 10.6551 11.477 10.1288 12.1337H10.1313ZM13.4671 14.6995C12.5999 15.9057 12.9658 17.1272 14.1287 16.915C15.4771 16.6697 16.8079 14.5742 15.8028 13.7412C15.0058 13.2709 13.9558 14.0197 13.4671 14.702V14.6995ZM18.6525 18.2439C17.7878 19.629 18.7953 21.1418 20.3065 20.733C21.7551 20.342 22.5545 18.3589 21.2739 17.416C20.2013 16.8077 19.096 17.5335 18.6525 18.2439ZM25.4192 22.5602C24.6423 24.0194 25.8728 25.6191 27.4417 25.1949C28.9604 24.7834 29.597 22.7518 28.1259 21.7348C26.9129 21.0755 25.8126 21.8216 25.4166 22.5602H25.4192ZM32.7649 27.0093C32.038 28.6039 33.5092 30.2368 35.0806 29.5776C36.4339 29.0102 36.8374 27.0425 35.3939 26.0918C34.1608 25.453 33.1132 26.2452 32.7649 27.0093ZM11.1714 7.97594L10.6776 8.43337C10.6476 8.46148 10.6175 8.49214 10.5899 8.52281C10.7228 8.48958 13.5071 6.08231 13.5247 6.05931C13.5047 6.06442 13.5022 6.06442 13.3994 6.14108C12.7277 6.68796 11.813 7.39328 11.1714 7.97594ZM12.2515 8.10882C11.4195 8.86014 11.011 9.59614 11.3944 9.6498C11.9759 9.7316 14.6024 7.6846 14.1964 7.09429C13.8706 6.87706 12.8631 7.55683 12.2541 8.10882H12.2515ZM14.457 10.028C13.5648 10.9352 13.5122 11.8987 14.3568 11.9037C15.6174 11.9114 17.4194 9.94367 16.7978 9.23836C16.7803 9.21793 16.7502 9.19487 16.7301 9.17444C16.1112 8.79877 15.0259 9.44789 14.457 10.028ZM18.4995 12.9412C17.5773 14.0453 18.0308 15.2642 19.3216 15.1492C20.8528 15.0138 22.0583 13.115 21.1385 12.287C21.1085 12.259 21.0633 12.2283 21.0333 12.2052C20.1436 11.689 19.0158 12.3253 18.502 12.9412H18.4995ZM24.2688 16.7464C23.3967 18.0471 24.4843 19.56 26.0332 19.2023C27.4943 18.8649 28.2738 16.9917 26.963 16.0615C25.8402 15.4354 24.7099 16.0845 24.2663 16.7464H24.2688ZM31.1233 21.009C30.3914 22.3839 31.6295 23.9427 33.1282 23.5364C34.5493 23.1505 35.1307 21.17 33.7248 20.2219C32.5493 19.5984 31.4967 20.3062 31.1233 21.009ZM38.2459 25.2306C37.6169 26.7666 39.0654 28.3407 40.4915 27.6712C41.697 27.1064 42.0002 25.1591 40.6569 24.2877C39.499 23.705 38.5517 24.487 38.2459 25.2306ZM15.3292 4.99367C14.4645 5.55588 13.8731 6.08997 14.041 6.15898C14.3743 6.29952 17.284 4.42635 17.2164 4.11457C17.061 3.99957 16.1161 4.48001 15.3292 4.99111V4.99367ZM16.5021 6.29441C15.6149 6.9384 15.264 7.64116 15.7627 7.77149C16.6725 8.00404 19.1662 6.2203 18.7627 5.62742C18.7526 5.61209 18.7326 5.59421 18.7201 5.57887C18.264 5.29266 17.1512 5.82675 16.5046 6.29441H16.5021ZM19.4519 8.57903C18.5246 9.38144 18.5496 10.3244 19.502 10.4113C20.8252 10.534 22.6147 8.92143 22.0534 8.10882C22.0183 8.05771 21.9555 8.00404 21.9079 7.96571C21.1937 7.5415 20.0408 8.07049 19.4519 8.57903ZM24.0758 11.7504C23.1736 12.7445 23.7274 13.9686 25.0658 13.9328C26.5971 13.8945 27.7474 12.287 26.9028 11.3671C26.8452 11.3057 26.755 11.2367 26.6873 11.1882C25.7325 10.6439 24.5846 11.1907 24.0758 11.7504ZM30.1484 15.6322C29.3188 16.8665 30.4015 18.3052 31.9053 17.9654C33.2987 17.651 34.0004 15.8826 32.7173 14.9959C31.637 14.4082 30.5644 15.0138 30.1484 15.6322ZM36.7697 19.6495C36.1281 20.9885 37.3312 22.4554 38.7196 22.0286C40.0128 21.6325 40.4664 19.7261 39.1331 18.847C38.0404 18.2797 37.0931 18.9748 36.7723 19.6495H36.7697ZM43.4387 23.5133C42.9501 25.039 44.321 26.5033 45.564 25.7826C46.594 25.1847 46.7444 23.291 45.5064 22.5065C44.4663 21.9979 43.6693 22.7901 43.4387 23.5133ZM19.2839 2.67838L17.9933 3.29426C17.6851 3.45014 17.6048 3.4987 17.5672 3.52936C17.7176 3.53959 20.9707 2.01651 20.9882 2.00117C20.9681 1.99862 20.9281 1.9935 20.4168 2.2005L19.2815 2.68093L19.2839 2.67838ZM19.3842 3.41692C18.4669 3.8718 17.9206 4.36245 18.1937 4.49023C18.7151 4.73556 21.6899 3.31214 21.547 2.88793C21.5421 2.87771 21.532 2.86493 21.527 2.85471C21.2589 2.67838 20.2088 3.00804 19.3867 3.41692H19.3842ZM21.2588 5.05755C20.3416 5.60188 20.0408 6.26375 20.6248 6.44775C21.6173 6.75951 24.0533 5.39232 23.725 4.7049C23.7074 4.66656 23.6648 4.62568 23.6322 4.59501C23.0884 4.26535 21.9154 4.66656 21.2564 5.05755H21.2588ZM24.7175 7.55683C23.7902 8.26726 23.8804 9.1719 24.8928 9.32016C26.2762 9.51943 28.0256 8.08837 27.3891 7.27828C27.3489 7.22717 27.2813 7.17351 27.2312 7.13262C26.4642 6.68796 25.3013 7.11217 24.7199 7.55683H24.7175ZM29.6696 10.8278C28.8226 11.7401 29.4341 12.9336 30.7448 12.9234C32.1859 12.9106 33.251 11.3978 32.419 10.5468C32.3613 10.488 32.2711 10.4216 32.206 10.3755C31.2461 9.84145 30.1458 10.3193 29.6696 10.8305V10.8278ZM35.5768 14.5052C34.855 15.6629 35.9151 17.0224 37.271 16.6774C38.5266 16.358 39.093 14.6867 37.8925 13.8741C36.8975 13.3451 35.9377 13.9225 35.5768 14.5027V14.5052ZM41.7246 18.1519C41.2333 19.4322 42.3862 20.8096 43.5666 20.3522C44.6693 19.9255 44.9475 18.0932 43.732 17.306C42.7596 16.8154 41.9726 17.5054 41.7246 18.1519ZM47.7344 21.5558C47.4512 22.9818 48.594 24.303 49.5865 23.6999C50.4987 23.1454 50.5213 21.1828 49.3659 20.4647C48.4737 20.043 47.8747 20.8505 47.7344 21.5558ZM53.2305 24.5074C53.1403 26.0228 54.1929 27.2546 54.9373 26.5058C55.6264 25.8108 55.4485 23.7561 54.436 23.1505C53.6365 22.8106 53.2706 23.8047 53.2305 24.5074ZM57.8394 26.7972C57.897 28.2334 58.6013 29.299 59.1175 28.7292C59.7015 28.0851 59.4685 25.6625 58.5888 25.1642C57.9898 24.9624 57.8119 26.0586 57.8394 26.7972ZM23.0307 1.45174C22.2839 1.68429 21.4969 2.00373 21.5095 2.14173C21.725 2.30017 25.1084 1.28308 25.0934 1.06586C24.9505 0.961087 23.8903 1.18597 23.0307 1.45174ZM23.9655 2.50205C23.0408 2.84704 22.5345 3.29682 22.8804 3.46548C23.5245 3.78236 26.3765 2.8036 26.3088 2.28995C26.3064 2.26183 26.2813 2.23372 26.2638 2.21328C25.9129 1.9935 24.7976 2.19283 23.9655 2.50205ZM26.3565 4.3599C25.4442 4.80967 25.1961 5.42298 25.8377 5.64532C26.8953 6.01331 29.2862 4.88633 28.8852 4.20912C28.8627 4.17079 28.8151 4.1299 28.78 4.09924C28.191 3.75169 26.9856 4.04813 26.3565 4.35735V4.3599ZM30.1208 6.94351C29.2562 7.56194 29.4116 8.43592 30.4216 8.61225C31.83 8.86014 33.2561 7.62072 32.7849 6.8694C32.7222 6.76974 32.632 6.70329 32.5619 6.64963C31.7824 6.20753 30.6646 6.55507 30.1233 6.94351H30.1208ZM35.0806 10.1174C34.3262 10.971 34.9252 12.0647 36.1332 12.0366C37.4264 12.0085 38.3236 10.6055 37.5442 9.82865C37.4915 9.77499 37.4088 9.7188 37.3487 9.67531C36.474 9.20005 35.4966 9.64726 35.0806 10.1149V10.1174ZM40.499 13.409C39.9225 14.5283 40.9225 15.7651 42.093 15.3869C43.1481 15.0445 43.5265 13.46 42.4438 12.7445C41.5692 12.2922 40.7797 12.8621 40.4964 13.409H40.499ZM45.9675 16.5803C45.6618 17.8401 46.7344 19.0873 47.6767 18.5685C48.5363 18.0982 48.589 16.3375 47.5213 15.6577C46.6994 15.2565 46.1179 15.9568 45.9675 16.5803ZM51.1428 19.4399C51.0827 20.8199 52.1428 22.0235 52.8345 21.3616C53.4711 20.7509 53.2456 18.8496 52.2606 18.2465C51.4987 17.9066 51.1704 18.7985 51.1428 19.4399ZM55.6941 21.8038C55.8445 23.3191 56.7367 24.2596 57.1677 23.6565C57.6765 22.9435 57.1477 20.802 56.3482 20.3318C55.7417 20.0992 55.624 21.1112 55.6941 21.8012V21.8038ZM27.2612 0.340099C26.3991 0.470429 25.6172 0.62887 25.5194 0.67998C25.6397 0.708091 29.1985 0.150992 29.2211 0.140769C29.1208 0.112659 28.2236 0.194436 27.2612 0.340099ZM27.364 0.843532C26.4642 1.00964 25.8077 1.26008 25.9305 1.39041C26.1635 1.64341 29.6145 1.05819 29.5845 0.771979C29.5845 0.764312 29.577 0.756645 29.5719 0.748979C29.3514 0.605871 28.2311 0.682536 27.364 0.840977V0.843532ZM28.7599 2.08039C27.8377 2.32317 27.374 2.70905 27.765 2.90327C28.4617 3.25081 31.2761 2.57616 31.1483 2.09062C31.1408 2.06251 31.1108 2.03439 31.0907 2.01651C30.7097 1.78651 29.577 1.86573 28.7599 2.08039ZM31.3764 3.97913C30.5618 4.3139 30.3213 4.81989 30.8501 5.08311C31.8576 5.58654 34.0781 4.62823 33.8525 4.0328C33.8249 3.96124 33.7648 3.91269 33.7147 3.87436C33.1232 3.53191 31.9704 3.73636 31.3764 3.97913ZM35.1433 6.4733C34.3688 7.01251 34.5643 7.8226 35.5066 7.99382C36.7873 8.22382 38.0304 7.12751 37.5717 6.45286C37.5116 6.36342 37.4289 6.30463 37.3638 6.25608C36.6369 5.85231 35.6094 6.14619 35.1433 6.4733ZM39.6694 9.2971C39.0178 10.1251 39.697 11.1576 40.7872 10.9965C41.8824 10.8356 42.4338 9.50672 41.6543 8.90871C41.6293 8.88829 41.5917 8.86523 41.5641 8.84734C40.8148 8.45125 40.0052 8.87294 39.6694 9.2971ZM44.3911 12.1031C44.0102 13.1585 44.9375 14.2727 45.8473 13.8562C46.6392 13.4932 46.7946 11.983 45.8848 11.3901C45.163 11.0272 44.5766 11.5894 44.3911 12.1031ZM49.0176 14.7301C48.9274 16.0565 49.9574 17.0199 50.5714 16.4909C51.1955 15.9516 50.8822 14.2523 50.0626 13.7386C49.4111 13.4345 49.0602 14.1347 49.0176 14.7301ZM53.2606 17.0147C53.446 18.4075 54.3358 19.307 54.7367 18.7806C55.1979 18.1724 54.6139 16.2123 53.832 15.7421C53.258 15.5019 53.1779 16.3963 53.2606 17.0147ZM56.8319 18.7959C57.2003 20.1478 57.8644 20.94 58.11 20.5669C58.476 20.0098 57.6389 17.6562 56.9322 17.2524C56.4635 17.099 56.7016 18.3155 56.8319 18.7959ZM33.3513 0.0359942C32.5268 0.0257723 31.424 -0.00489374 30.5995 0.0232168C31.83 -0.0253378 32.9152 0.0129947 33.4515 0.0411053L33.3513 0.0359942ZM31.3588 0.133103C30.5494 0.150992 29.8477 0.225101 29.7273 0.306877C29.8401 0.501096 33.4415 0.283878 33.4715 0.268545C33.4715 0.265989 33.4741 0.260878 33.4741 0.258322C33.3663 0.181657 32.3689 0.110104 31.3588 0.133103ZM31.9804 0.853754C31.0105 0.922749 30.4992 1.11442 30.6471 1.24475C30.9353 1.49774 34.3287 1.29841 34.241 1.03264C34.2385 1.02497 34.2285 1.0173 34.2235 1.00964C33.9828 0.861421 32.9152 0.787311 31.9804 0.853754ZM33.6345 2.14684C32.8325 2.28228 32.3939 2.57361 32.6796 2.77805C33.2411 3.18182 36.1006 2.78316 35.9327 2.32317C35.9226 2.29761 35.8951 2.27461 35.875 2.25672C35.4866 2.02928 34.4039 2.01651 33.6345 2.14684ZM36.2585 3.95613C35.5342 4.21423 35.3387 4.66145 35.8424 4.90934C36.8224 5.39488 38.7521 4.63079 38.504 4.08646C38.4765 4.02513 38.4188 3.98169 38.3737 3.94847C37.8199 3.63669 36.7823 3.76702 36.256 3.95613H36.2585ZM39.7371 6.18708C39.0378 6.70585 39.3537 7.37539 40.098 7.4955C41.1606 7.66927 42.138 6.69818 41.7345 6.12575C41.6819 6.05164 41.6143 6.00564 41.5616 5.96731C40.9576 5.64276 40.1156 5.90597 39.7371 6.18708ZM43.5591 8.51259C43.0754 9.33287 43.8022 10.1635 44.5741 9.9769C45.4412 9.76737 45.6969 8.50492 44.9701 8.01938C44.3761 7.71527 43.7871 8.12415 43.5591 8.51259ZM47.4212 10.7563C47.2733 11.8297 48.1705 12.6883 48.7219 12.2641C49.2808 11.8347 49.0652 10.4241 48.371 9.9769C47.8271 9.71371 47.4888 10.2759 47.4212 10.7563ZM51.0877 12.7854C51.2732 14.0069 52.0802 14.8144 52.4335 14.3621C52.8245 13.8587 52.2556 12.1542 51.5538 11.7172C51.0652 11.5026 51.01 12.259 51.0902 12.7854H51.0877ZM54.3232 14.4694C54.7743 15.7856 55.4736 16.5062 55.644 16.0641C55.8645 15.4942 54.9648 13.5188 54.3057 13.1278C53.8872 12.9719 54.1753 14.0427 54.3207 14.4694H54.3232ZM35.6946 0.263434C34.8475 0.153547 34.1433 0.104992 33.9603 0.115215C33.9954 0.148436 37.6745 0.631426 37.702 0.62887C37.5867 0.577761 36.7146 0.39632 35.6946 0.263434ZM35.7447 0.567538C34.9528 0.485762 34.2711 0.483207 34.1933 0.559872C34.236 0.600759 34.2886 0.654426 35.3086 0.766867C35.4114 0.777089 37.8274 1.04286 37.89 0.966198C37.7572 0.881867 36.7747 0.672314 35.7422 0.564982L35.7447 0.567538ZM36.6019 1.32908C35.7297 1.2933 35.261 1.39552 35.3287 1.51307C35.4565 1.73796 38.5417 1.92196 38.7672 1.71751C38.7622 1.70729 38.7547 1.69196 38.7497 1.68174C38.5065 1.53863 37.4439 1.3623 36.6019 1.32908ZM38.2183 2.50461C37.454 2.56082 37.1557 2.76015 37.3111 2.92115C37.7221 3.34792 40.2484 3.09749 40.286 2.81383C40.2909 2.78316 40.2609 2.7576 40.2334 2.7346C39.895 2.54038 38.89 2.4535 38.2183 2.50205V2.50461ZM40.5517 4.05324C39.88 4.26023 39.8248 4.63079 40.2233 4.82756C41.0178 5.21344 42.6042 4.62823 42.4087 4.1989C42.3887 4.15291 42.3436 4.11968 42.3084 4.09412C41.91 3.87436 41.0629 3.89736 40.5517 4.05324ZM43.3711 5.81142C42.8498 6.25864 43.128 6.81318 43.707 6.88729C44.4989 6.98695 45.1605 6.14364 44.8347 5.68876C44.7946 5.63254 44.7445 5.59932 44.7044 5.57121C44.2583 5.33865 43.6468 5.57632 43.3711 5.81142ZM46.3134 7.56194C46.0753 8.32092 46.6919 9.00577 47.2031 8.77326C47.7394 8.53047 47.7168 7.38561 47.1705 7.02529C46.7595 6.8234 46.4236 7.21695 46.3134 7.56194ZM49.198 9.20005C49.3309 10.1711 50.0125 10.8636 50.2983 10.5007C50.6316 10.0766 50.0852 8.69914 49.5589 8.36692C49.1479 8.17782 49.1629 8.92406 49.2005 9.20259L49.198 9.20005ZM51.8471 10.6286C52.3082 11.758 52.9373 12.3893 53.0525 12.0161C53.208 11.5127 52.2456 9.83636 51.7143 9.51435C51.3333 9.36101 51.827 10.5774 51.8471 10.6286ZM54.0826 11.7453C54.7869 12.954 55.2781 13.4498 55.3282 13.2172C55.4259 12.7675 54.0074 10.6797 53.4937 10.3832C53.4811 10.3781 53.4586 10.3755 53.4461 10.3806C53.3784 10.5161 53.9172 11.4591 54.0826 11.7453ZM40.093 1.14763C39.1606 0.881868 38.4188 0.723424 38.3462 0.710646C38.9928 0.894641 39.6494 1.04286 40.296 1.23197C40.8674 1.40063 41.4213 1.6204 41.9952 1.77373C41.9325 1.74307 41.1631 1.45174 40.093 1.14508V1.14763ZM39.8474 1.18852C39.0629 0.976421 38.3486 0.835865 38.2008 0.838421C38.3136 0.915086 41.8849 1.86062 41.9025 1.85807C41.7571 1.78395 40.8849 1.46707 39.8474 1.18852ZM40.1507 1.54629C39.4614 1.38785 38.8524 1.29586 38.697 1.32908C38.697 1.33674 38.697 1.34441 38.6945 1.35207C38.8524 1.44663 42.1355 2.21073 42.2083 2.16728C42.0879 2.09573 41.1631 1.77884 40.1481 1.54374L40.1507 1.54629ZM40.9726 2.19028C40.4464 2.10595 39.8524 2.05995 39.7898 2.15961C39.8574 2.38194 42.727 2.74993 42.905 2.70649C42.9025 2.70138 42.8999 2.69372 42.8974 2.68605C42.7195 2.58383 41.8123 2.32317 40.9726 2.18772V2.19028ZM42.2834 3.09493C41.6267 3.07448 41.3586 3.1997 41.4865 3.32747C41.5992 3.43992 42.0127 3.52936 42.514 3.54981C43.0729 3.5728 43.9851 3.52425 43.9701 3.4297C43.9676 3.41692 43.95 3.40669 43.94 3.39648C43.7245 3.27637 42.9175 3.11537 42.2834 3.09749V3.09493ZM44.0278 4.21423C43.5465 4.34201 43.4713 4.59501 43.7019 4.73811C44.2608 5.08566 45.4187 4.55923 45.331 4.30368C45.3209 4.27557 45.2959 4.25768 45.2733 4.24235C45.0402 4.11968 44.4337 4.10691 44.0278 4.21423ZM45.9474 5.3821C45.6292 5.78587 45.9049 6.24075 46.3209 6.21008C46.8672 6.16664 47.0176 5.34888 46.7344 5.124C46.7269 5.11633 46.7144 5.10866 46.7044 5.10355C46.4562 4.98088 46.1004 5.19044 45.9474 5.38465V5.3821ZM47.8898 6.51163C47.9499 7.26806 48.4562 7.71272 48.6516 7.45717C48.8923 7.14284 48.4587 6.13853 48.1304 5.92387C47.8447 5.79353 47.8873 6.50396 47.8873 6.51163H47.8898ZM49.7343 7.53383C50.203 8.49214 50.6266 8.84734 50.7017 8.66081C50.8346 8.32859 49.8521 6.90007 49.4687 6.6573C49.4186 6.63685 49.3258 6.59852 49.5639 7.15817C49.5865 7.2144 49.6516 7.36261 49.7343 7.53383ZM51.3634 8.38226C52.3483 9.74431 52.4962 9.69583 52.5163 9.64726C52.629 9.40186 51.0877 7.52872 50.6265 7.24762C50.6215 7.24506 50.614 7.2425 50.6091 7.2425C50.6015 7.27572 50.5915 7.31406 51.3634 8.3797V8.38226ZM44.2783 2.68093C43.3862 2.2695 42.6719 2.00629 42.6669 2.00373C44.0803 2.60683 44.0803 2.60683 46.0603 3.5907C46.0528 3.58559 45.3184 3.15881 44.2809 2.68093H44.2783ZM44.0252 2.61705C43.1731 2.23628 42.5265 2.00373 42.3887 1.96029C42.4162 1.98073 42.4162 1.98073 42.6794 2.08551C43.0503 2.23628 43.6693 2.48416 44.366 2.79849C44.9099 3.04381 45.4337 3.33003 45.9776 3.57792C45.9701 3.5728 45.1405 3.11281 44.0252 2.61705ZM44.0327 2.70394C43.2107 2.35894 42.5866 2.15195 42.4689 2.13151C42.4964 2.14939 42.534 2.16728 42.5641 2.18006C43.2508 2.47138 43.955 2.71416 44.6418 3.00548C45.1004 3.20226 45.5389 3.44758 46.0051 3.62647C45.8798 3.55747 45.0353 3.12559 44.0353 2.70394H44.0327ZM44.2833 2.93138C43.6017 2.67327 43.0703 2.51483 42.9175 2.4995C42.935 2.52761 42.935 2.52761 43.0227 2.56082C43.6042 2.78316 44.1982 2.96715 44.7796 3.18437C45.2307 3.35303 45.6693 3.56003 46.1204 3.72869C46.1229 3.72869 46.1229 3.72869 46.1255 3.72869C46.0151 3.67247 45.2132 3.28148 44.2833 2.93138ZM44.767 3.28403C44.2357 3.11793 43.767 3.01571 43.6794 3.04637C43.6944 3.06937 43.7044 3.08982 43.95 3.16648C43.9801 3.17671 46.3235 3.87946 46.3385 3.88457C46.3008 3.86414 45.5841 3.54214 44.7646 3.28659L44.767 3.28403ZM45.4663 3.74914C45.0001 3.66481 44.7344 3.68525 44.7571 3.75169C44.762 3.76447 44.7996 3.82836 45.1656 3.8948C45.1705 3.8948 46.6292 4.0839 46.6367 4.0839C46.6367 4.08135 46.6392 4.08135 46.6392 4.07879C46.5715 4.04302 46.0076 3.8488 45.4663 3.74914ZM46.3184 4.28323C46.0076 4.34201 45.9274 4.49023 46.0678 4.57711C46.381 4.76878 47.0001 4.3599 46.9976 4.30879C46.9976 4.30624 46.9926 4.30113 46.99 4.29856C46.9249 4.2679 46.5816 4.23468 46.3184 4.28579V4.28323ZM47.2106 4.81478C47.1354 5.21088 47.4086 5.46132 47.5389 5.35144C47.7244 5.193 47.4587 4.5899 47.3509 4.51068C47.2958 4.48767 47.2181 4.76622 47.2106 4.81478ZM48.0878 5.31311C48.6342 6.21264 48.7193 6.09764 48.7319 6.06697C48.807 5.85998 47.9249 4.86077 47.7043 4.70745C47.7069 4.72278 47.7069 4.72278 47.7469 4.78155C47.8798 4.97066 47.9549 5.09333 48.0903 5.31311H48.0878ZM48.8948 5.75009C49.7519 6.66751 49.7519 6.66751 49.8421 6.69818C49.8446 6.69307 49.8496 6.68541 49.8521 6.68029C49.7218 6.30974 48.3309 5.078 48.0201 4.87611C48.0427 4.90934 48.0753 4.92978 48.1028 4.95789C48.2958 5.13677 48.5138 5.34376 48.8948 5.75009ZM49.5789 6.09253C50.7569 7.14795 50.7569 7.14795 50.7819 7.16072C50.7769 6.9384 48.7995 5.32588 48.2832 5.00389C48.7018 5.38465 49.158 5.71432 49.5789 6.08997V6.09253Z" fill="url(#paint1_linear_234_3636)"/>
</g>
<defs>
<linearGradient id="paint0_linear_234_3636" x1="103.98" y1="31.4844" x2="134.853" y2="51.7829" gradientUnits="userSpaceOnUse">
<stop stop-color="#386AE7"/>
<stop offset="1" stop-color="#38E8DE"/>
</linearGradient>
<linearGradient id="paint1_linear_234_3636" x1="0.738281" y1="-1.23804e-07" x2="74.5221" y2="21.8473" gradientUnits="userSpaceOnUse">
<stop stop-color="#386AE7"/>
<stop offset="1" stop-color="#38E8DE"/>
</linearGradient>
<clipPath id="clip0_234_3636">
<rect width="138" height="64" fill="white"/>
</clipPath>
</defs>
</svg>
