<svg width="64" height="64" viewBox="0 0 64 64" fill="none" xmlns="http://www.w3.org/2000/svg">
<path opacity="0.5" d="M32 0.5C14.63 0.5 0.5 14.63 0.5 32C0.5 49.37 14.63 63.5 32 63.5C49.37 63.5 63.5 49.37 63.5 32C63.5 14.63 49.37 0.5 32 0.5ZM32 60.5C16.286 60.5 3.5 47.714 3.5 32C3.5 16.286 16.286 3.5 32 3.5C47.714 3.5 60.5 16.286 60.5 32C60.5 47.714 47.714 60.5 32 60.5ZM45.5 32C45.5 32.828 44.828 33.5 44 33.5H23.6211L30.0591 39.938C30.6441 40.523 30.6441 41.4741 30.0591 42.0591C29.7651 42.3531 29.3811 42.4971 28.9971 42.4971C28.6131 42.4971 28.2291 42.3501 27.9351 42.0591L18.9351 33.0591C18.7971 32.9211 18.6863 32.7528 18.6113 32.5698C18.4583 32.2038 18.4583 31.7903 18.6113 31.4243C18.6863 31.2383 18.7971 31.0731 18.9351 30.9351L27.9351 21.9351C28.5201 21.3501 29.4712 21.3501 30.0562 21.9351C30.6412 22.5201 30.6412 23.4712 30.0562 24.0562L23.6182 30.4941H44C44.828 30.5001 45.5 31.172 45.5 32Z" fill="white"/>
</svg>
