<svg width="64" height="64" viewBox="0 0 64 64" fill="none" xmlns="http://www.w3.org/2000/svg">
<path opacity="0.5" d="M32 0.5C14.63 0.5 0.5 14.63 0.5 32C0.5 49.37 14.63 63.5 32 63.5C49.37 63.5 63.5 49.37 63.5 32C63.5 14.63 49.37 0.5 32 0.5ZM32 60.5C16.286 60.5 3.5 47.714 3.5 32C3.5 16.286 16.286 3.5 32 3.5C47.714 3.5 60.5 16.286 60.5 32C60.5 47.714 47.714 60.5 32 60.5ZM45.3828 32.5728C45.3078 32.7588 45.1971 32.924 45.0591 33.062L36.0591 42.062C35.7651 42.356 35.3811 42.5 34.9971 42.5C34.6131 42.5 34.2291 42.353 33.9351 42.062C33.3501 41.477 33.3501 40.5259 33.9351 39.9409L40.373 33.5029H20C19.172 33.5029 18.5 32.8309 18.5 32.0029C18.5 31.1749 19.172 30.5029 20 30.5029H40.3789L33.9409 24.0649C33.3559 23.4799 33.3559 22.5288 33.9409 21.9438C34.5259 21.3588 35.477 21.3588 36.062 21.9438L45.062 30.9438C45.2 31.0818 45.3107 31.2501 45.3857 31.4331C45.5357 31.7931 45.5358 32.2068 45.3828 32.5728Z" fill="white"/>
</svg>
