<svg width="18" height="18" viewBox="0 0 18 18" fill="none" xmlns="http://www.w3.org/2000/svg">
<path d="M8.9974 17.3359C7.84462 17.3359 6.76129 17.1172 5.7474 16.6797C4.73351 16.2422 3.85156 15.6484 3.10156 14.8984C2.35156 14.1484 1.75781 13.2665 1.32031 12.2526C0.882813 11.2387 0.664062 10.1554 0.664062 9.0026C0.664062 7.84982 0.882813 6.76649 1.32031 5.7526C1.75781 4.73871 2.35156 3.85677 3.10156 3.10677C3.85156 2.35677 4.73351 1.76302 5.7474 1.32552C6.76129 0.88802 7.84462 0.66927 8.9974 0.66927C9.90018 0.66927 10.7543 0.801214 11.5599 1.0651C12.3655 1.32899 13.1085 1.69705 13.7891 2.16927L12.5807 3.39844C12.053 3.0651 11.4905 2.80469 10.8932 2.61719C10.296 2.42969 9.66406 2.33594 8.9974 2.33594C7.15017 2.33594 5.57726 2.98524 4.27865 4.28385C2.98004 5.58246 2.33073 7.15538 2.33073 9.0026C2.33073 10.8498 2.98004 12.4227 4.27865 13.7214C5.57726 15.02 7.15017 15.6693 8.9974 15.6693C10.8446 15.6693 12.4175 15.02 13.7161 13.7214C15.0148 12.4227 15.6641 10.8498 15.6641 9.0026C15.6641 8.7526 15.6502 8.5026 15.6224 8.2526C15.5946 8.0026 15.553 7.75955 15.4974 7.52344L16.8516 6.16927C17.0043 6.61371 17.1224 7.07205 17.2057 7.54427C17.2891 8.01649 17.3307 8.5026 17.3307 9.0026C17.3307 10.1554 17.112 11.2387 16.6745 12.2526C16.237 13.2665 15.6432 14.1484 14.8932 14.8984C14.1432 15.6484 13.2613 16.2422 12.2474 16.6797C11.2335 17.1172 10.1502 17.3359 8.9974 17.3359ZM7.83073 12.8359L4.28906 9.29427L5.45573 8.1276L7.83073 10.5026L16.1641 2.14844L17.3307 3.3151L7.83073 12.8359Z" fill="#452FF4"/>
<path d="M8.9974 17.3359C7.84462 17.3359 6.76129 17.1172 5.7474 16.6797C4.73351 16.2422 3.85156 15.6484 3.10156 14.8984C2.35156 14.1484 1.75781 13.2665 1.32031 12.2526C0.882813 11.2387 0.664062 10.1554 0.664062 9.0026C0.664062 7.84982 0.882813 6.76649 1.32031 5.7526C1.75781 4.73871 2.35156 3.85677 3.10156 3.10677C3.85156 2.35677 4.73351 1.76302 5.7474 1.32552C6.76129 0.88802 7.84462 0.66927 8.9974 0.66927C9.90018 0.66927 10.7543 0.801214 11.5599 1.0651C12.3655 1.32899 13.1085 1.69705 13.7891 2.16927L12.5807 3.39844C12.053 3.0651 11.4905 2.80469 10.8932 2.61719C10.296 2.42969 9.66406 2.33594 8.9974 2.33594C7.15017 2.33594 5.57726 2.98524 4.27865 4.28385C2.98004 5.58246 2.33073 7.15538 2.33073 9.0026C2.33073 10.8498 2.98004 12.4227 4.27865 13.7214C5.57726 15.02 7.15017 15.6693 8.9974 15.6693C10.8446 15.6693 12.4175 15.02 13.7161 13.7214C15.0148 12.4227 15.6641 10.8498 15.6641 9.0026C15.6641 8.7526 15.6502 8.5026 15.6224 8.2526C15.5946 8.0026 15.553 7.75955 15.4974 7.52344L16.8516 6.16927C17.0043 6.61371 17.1224 7.07205 17.2057 7.54427C17.2891 8.01649 17.3307 8.5026 17.3307 9.0026C17.3307 10.1554 17.112 11.2387 16.6745 12.2526C16.237 13.2665 15.6432 14.1484 14.8932 14.8984C14.1432 15.6484 13.2613 16.2422 12.2474 16.6797C11.2335 17.1172 10.1502 17.3359 8.9974 17.3359ZM7.83073 12.8359L4.28906 9.29427L5.45573 8.1276L7.83073 10.5026L16.1641 2.14844L17.3307 3.3151L7.83073 12.8359Z" fill="url(#paint0_linear_262_406)"/>
<defs>
<linearGradient id="paint0_linear_262_406" x1="0.664062" y1="9.0026" x2="17.3307" y2="9.0026" gradientUnits="userSpaceOnUse">
<stop stop-color="#6430FB"/>
<stop offset="1" stop-color="#B596FD"/>
</linearGradient>
</defs>
</svg>
