<svg width="26" height="26" viewBox="0 0 26 26" fill="none" xmlns="http://www.w3.org/2000/svg">
<path d="M24.1168 3.55264H8.68257C8.60015 3.29888 8.49602 3.05344 8.36147 2.82048L8.6305 2.32128C8.76499 2.06336 8.71728 1.75552 8.50466 1.55168L8.1185 1.18144C7.90588 0.977601 7.58478 0.927679 7.31575 1.0608L6.79503 1.31872C6.53471 1.18144 6.26135 1.07328 5.97497 0.99424L5.79706 0.4576C5.70594 0.18304 5.44125 0 5.14186 0H4.59946C4.30007 0 4.03538 0.18304 3.94426 0.4576L3.76635 0.990083C3.47998 1.06912 3.20227 1.17728 2.94626 1.31872L2.42557 1.0608C2.1522 0.931842 1.83111 0.977601 1.61849 1.18144L1.23231 1.55168C1.01969 1.75552 0.971964 2.06336 1.10648 2.32128L1.3755 2.82048C1.23231 3.07008 1.11949 3.33216 1.03271 3.60672L0.477303 3.77728C0.190921 3.86464 0 4.1184 0 4.40544V4.92544C0 5.21248 0.190921 5.46624 0.477303 5.5536L1.03271 5.72416C1.11515 5.99872 1.22797 6.26078 1.37116 6.51042L1.10648 7.00958C0.971964 7.26333 1.01969 7.57535 1.23231 7.77919L1.29306 7.83746V20.3257C1.29306 21.32 2.13918 22.1312 3.17624 22.1312H9.91919V23.479H9.30306C8.73899 23.479 8.27905 23.92 8.27905 24.4608V25.2013H6.57813C6.34813 25.2013 6.16155 25.3801 6.16155 25.6006C6.16155 25.8211 6.34813 26 6.57813 26H20.7193C20.9492 26 21.1359 25.8211 21.1359 25.6006C21.1359 25.3801 20.9492 25.2013 20.7193 25.2013H19.014V24.4608C19.014 23.92 18.5541 23.479 17.99 23.479H17.3738V22.1312H24.1168C25.1539 22.1312 26 21.32 26 20.3257V5.34976C26 4.35968 25.1539 3.55264 24.1168 3.55264ZM25.1669 5.35808V17.9338H2.1305V8.34079C2.23031 8.33662 2.33011 8.31998 2.42123 8.27424L2.94192 8.02048C3.20227 8.15777 3.47998 8.27006 3.76202 8.34497L3.93992 8.87746C4.03104 9.15197 4.29573 9.33506 4.59513 9.33506H5.14186C5.44125 9.33506 5.70594 9.15197 5.79706 8.87746L5.97497 8.34497C6.26135 8.26595 6.53906 8.15777 6.79503 8.01631L7.31575 8.27424C7.58478 8.40735 7.90588 8.35743 8.1185 8.15359L8.50466 7.78337C8.71728 7.57953 8.76934 7.27168 8.6305 7.01376L8.36147 6.51454C8.50466 6.26913 8.6175 6.00288 8.70428 5.72832L9.2597 5.55776C9.54603 5.4704 9.737 5.21664 9.737 4.9296V4.4096C9.737 4.3888 9.72829 4.37216 9.72829 4.35552H24.1168C24.694 4.35136 25.1669 4.80064 25.1669 5.35808ZM0.833111 4.8256V4.50528L1.50567 4.29728C1.64453 4.25568 1.753 4.14336 1.78338 4.00192C1.86582 3.65664 2.00467 3.33632 2.19993 3.04512C2.28238 2.92448 2.28671 2.77472 2.22163 2.64576L1.90053 2.04672L2.13485 1.82208L2.76836 2.13408C2.89853 2.20064 3.05908 2.19232 3.18492 2.11328C3.48865 1.92608 3.82277 1.79296 4.18291 1.71392C4.3261 1.6848 4.44326 1.5808 4.49099 1.44768L4.70794 0.802877H5.03771L5.25467 1.45184C5.29807 1.58912 5.41522 1.68896 5.56275 1.71808C5.91856 1.79296 6.25267 1.92608 6.55642 2.11328C6.68226 2.19232 6.83845 2.19648 6.97294 2.13408L7.60649 1.82208L7.84082 2.04672L7.51536 2.65408C7.44594 2.78304 7.45459 2.9328 7.53707 3.05344C7.73233 3.34464 7.87117 3.66496 7.94924 4.00608C7.94924 4.01024 7.9536 4.01024 7.9536 4.0144C7.98395 4.20576 8.14885 4.35136 8.35711 4.35136H8.39618L8.90389 4.50944V4.8256L8.23134 5.0336C8.09243 5.0752 7.98395 5.18752 7.9536 5.32896C7.87118 5.67424 7.73233 5.99456 7.53707 6.28577C7.45459 6.40642 7.45023 6.55616 7.51536 6.6851L7.84082 7.2925L7.60649 7.51715L6.97294 7.20513C6.83845 7.13858 6.68226 7.14686 6.55642 7.22594C6.25267 7.41314 5.91856 7.54625 5.55841 7.62527C5.41522 7.65437 5.29807 7.75838 5.25034 7.89155L5.03338 8.53634H4.69927L4.48231 7.89155C4.43458 7.75427 4.32177 7.65437 4.17423 7.62527C3.82277 7.55043 3.48431 7.41726 3.17624 7.23006C3.0504 7.15521 2.89419 7.14686 2.76402 7.21342L2.1305 7.52126L1.89619 7.29661L2.21729 6.68927C2.28238 6.56445 2.27804 6.41059 2.19993 6.29406C2.00467 5.99456 1.86148 5.67424 1.78771 5.33728C1.75734 5.2 1.64887 5.08768 1.51002 5.04192L0.833111 4.8256ZM18.1766 24.4649V25.2055H9.11651V24.4649C9.11651 24.3651 9.19893 24.2861 9.30306 24.2861H17.99C18.0941 24.2861 18.1766 24.3693 18.1766 24.4649ZM16.5364 23.4874H10.7567V22.1395H16.5364V23.4874ZM24.1168 21.3366H3.17624C2.59913 21.3366 2.1305 20.8873 2.1305 20.3341V18.7325H25.1669V20.3341C25.1669 20.8873 24.694 21.3366 24.1168 21.3366Z" fill="white"/>
<path d="M14.2418 19.6367H13.0572C12.8272 19.6367 12.6406 19.8156 12.6406 20.0361C12.6406 20.2566 12.8272 20.4355 13.0572 20.4355H14.2418C14.4717 20.4355 14.6583 20.2566 14.6583 20.0361C14.6583 19.8156 14.4717 19.6367 14.2418 19.6367Z" fill="white"/>
<path d="M5.53317 11.0368C5.403 11.1866 5.403 11.4029 5.53317 11.5527C5.67637 11.7149 9.10864 15.5463 13.4434 15.5463C17.7781 15.5463 21.2104 11.7149 21.3536 11.5527C21.4838 11.4029 21.4838 11.1866 21.3536 11.0368C21.2104 10.8746 17.7781 7.03906 13.4434 7.03906C9.10429 7.03906 5.67637 10.8746 5.53317 11.0368ZM13.4434 7.84195C16.7671 7.84195 19.631 10.4545 20.4684 11.2947C19.631 12.1351 16.7671 14.7434 13.4434 14.7434C10.1197 14.7434 7.25582 12.1351 6.41836 11.2947C7.25582 10.4503 10.1197 7.84195 13.4434 7.84195Z" fill="white"/>
<path d="M13.4432 14.0511C15.0313 14.0511 16.3201 12.8156 16.3201 11.2971C16.3201 9.77462 15.0313 8.53906 13.4432 8.53906C11.8551 8.53906 10.5664 9.77462 10.5664 11.2971C10.5664 12.8156 11.8551 14.0511 13.4432 14.0511ZM13.4432 9.33784C14.5671 9.33784 15.4826 10.2156 15.4826 11.2971C15.4826 12.3746 14.5671 13.2524 13.4432 13.2524C12.3194 13.2524 11.3995 12.3746 11.3995 11.2971C11.3995 10.2197 12.315 9.33784 13.4432 9.33784Z" fill="white"/>
<path d="M12.4967 11.5568C12.7266 11.5568 12.9132 11.378 12.9132 11.1575C12.9132 10.9537 13.0867 10.7831 13.3037 10.7831C13.5337 10.7831 13.7203 10.6042 13.7203 10.3837C13.7203 10.1632 13.5337 9.98438 13.3037 9.98438C12.6268 9.98438 12.0801 10.5127 12.0801 11.1575C12.0801 11.378 12.2667 11.5568 12.4967 11.5568Z" fill="white"/>
<path d="M19.729 6.7362H21.0091V8.33781C21.0091 8.55828 21.1957 8.73719 21.4257 8.73719C21.6556 8.73719 21.8422 8.55828 21.8422 8.33781V6.33688C21.8422 6.11638 21.6556 5.9375 21.4257 5.9375H19.729C19.4991 5.9375 19.3125 6.11638 19.3125 6.33688C19.3125 6.55735 19.4948 6.7362 19.729 6.7362Z" fill="white"/>
<path d="M21.4273 14C21.1974 14 21.0107 14.1789 21.0107 14.3994V15.8512H19.5962C19.3662 15.8512 19.1797 16.0301 19.1797 16.2506C19.1797 16.471 19.3662 16.65 19.5962 16.65H21.4273C21.6573 16.65 21.8439 16.471 21.8439 16.2506V14.3952C21.8439 14.1789 21.6573 14 21.4273 14Z" fill="white"/>
<path d="M7.15609 15.8484H5.87608V14.251C5.87608 14.0305 5.6895 13.8516 5.45952 13.8516C5.22955 13.8516 5.04297 14.0305 5.04297 14.251V16.2519C5.04297 16.4724 5.22955 16.6513 5.45952 16.6513H7.15609C7.38606 16.6513 7.57268 16.4724 7.57268 16.2519C7.57268 16.0314 7.38606 15.8484 7.15609 15.8484Z" fill="white"/>
<path d="M4.86816 6.64804C6.00501 6.64804 6.93355 5.76198 6.93355 4.6679C6.93355 3.57798 6.00934 2.68774 4.86816 2.68774C3.7313 2.68774 2.80273 3.57383 2.80273 4.6679C2.80273 5.75782 3.7313 6.64804 4.86816 6.64804ZM4.86816 3.49062C5.54506 3.49062 6.09613 4.01894 6.09613 4.6679C6.09613 5.31686 5.54506 5.84519 4.86816 5.84519C4.19125 5.84519 3.63585 5.31686 3.63585 4.6679C3.64018 4.01894 4.19125 3.49062 4.86816 3.49062Z" fill="white"/>
</svg>
