<svg width="32" height="26" viewBox="0 0 32 26" fill="none" xmlns="http://www.w3.org/2000/svg">
<path d="M12.2095 15.911C12.2095 15.6782 11.9701 15.4453 11.7307 15.4453H3.35184C3.11244 15.4453 2.87305 15.6782 2.87305 15.911C2.87305 16.1439 3.11244 16.3768 3.35184 16.3768H11.7307C12.0499 16.3768 12.2095 16.1439 12.2095 15.911Z" fill="white"/>
<path d="M14.6031 22.4322H2.39395C1.59597 22.4322 0.957582 21.8112 0.957582 21.035V5.4334H27.3709V9.15916C27.3709 9.39202 27.6103 9.62488 27.8497 9.62488C28.0891 9.62488 28.3285 9.39202 28.3285 9.15916V2.25098C28.3285 1.00906 27.2911 0 26.0143 0H2.39395C1.11718 0 0 1.00906 0 2.25098V21.035C0 22.2769 1.03738 23.286 2.31416 23.286H14.5233C14.7627 23.286 15.0021 23.0531 15.0021 22.8203C15.0819 22.5874 14.8425 22.4322 14.6031 22.4322ZM0.957582 4.50196V2.25098C0.957582 1.5524 1.59597 0.93144 2.39395 0.93144H26.0143C26.8123 0.93144 27.4507 1.5524 27.4507 2.3286V4.57958H0.957582V4.50196Z" fill="white"/>
<path d="M5.98381 1.71094C5.26562 1.71094 4.70703 2.3319 4.70703 2.95286C4.70703 3.57382 5.26562 4.19478 5.98381 4.19478C6.70199 4.19478 7.26058 3.65144 7.26058 2.95286C7.26058 2.25428 6.62219 1.71094 5.98381 1.71094ZM6.303 2.95286C6.303 3.1081 6.1434 3.26334 5.98381 3.26334C5.74441 3.34096 5.58481 3.18572 5.58481 2.95286C5.58481 2.79762 5.74441 2.64238 5.90401 2.64238C6.1434 2.64238 6.303 2.79762 6.303 2.95286Z" fill="white"/>
<path d="M3.11271 1.71094C2.39453 1.71094 1.83594 2.3319 1.83594 2.95286C1.83594 3.57382 2.39453 4.19478 3.11271 4.19478C3.8309 4.19478 4.38949 3.65144 4.38949 2.95286C4.38949 2.25428 3.8309 1.71094 3.11271 1.71094ZM3.43191 2.95286C3.43191 3.1081 3.27231 3.26334 3.11271 3.26334C2.95312 3.26334 2.79352 3.1081 2.79352 2.95286C2.79352 2.79762 2.95312 2.64238 3.11271 2.64238C3.27231 2.64238 3.43191 2.79762 3.43191 2.95286Z" fill="white"/>
<path d="M21.7031 18.0057C21.9425 18.0057 22.1819 17.7728 22.1819 17.5399C22.1819 17.3071 21.9425 17.0742 21.7031 17.0742C20.9849 17.0742 20.2667 17.3847 19.7081 17.928C19.1496 18.4714 18.9102 19.17 18.9102 19.8685C18.9102 20.5671 19.2293 21.2657 19.7879 21.809C20.3465 22.3524 20.9849 22.5852 21.7829 22.5852C22.5011 22.5852 23.2193 22.2748 23.7779 21.7314C24.3365 21.1881 24.5758 20.4895 24.5758 19.7909C24.5758 19.5581 24.3365 19.3252 24.0971 19.3252C23.8577 19.3252 23.6183 19.5581 23.6183 19.7909C23.6183 20.2566 23.4587 20.7224 23.0597 21.0328C22.7405 21.3433 22.2617 21.5762 21.7829 21.5762C21.3041 21.5762 20.8253 21.4209 20.5061 21.0328C20.1869 20.7224 19.9475 20.2566 19.9475 19.7909C19.9475 19.3252 20.1071 18.8595 20.5061 18.549C20.8253 18.2385 21.2243 18.0057 21.7031 18.0057Z" fill="white"/>
<path d="M27.4496 20.5655L26.7314 20.255C26.492 20.1774 26.1728 20.255 26.093 20.4879C26.0132 20.7207 26.093 21.0312 26.3324 21.1088L27.0506 21.4193L26.7314 22.1955L26.0132 21.885C25.7739 21.8074 25.5345 21.885 25.3749 22.0403C25.0557 22.506 24.6567 22.8941 24.1779 23.2046C24.0183 23.3598 23.9385 23.5927 24.0183 23.8255L24.3375 24.6017L23.4597 24.9122L23.1405 24.2913C23.0607 24.0584 22.8213 23.9808 22.5819 23.9808C22.0233 24.0584 21.4647 24.0584 20.9061 23.9808C20.6667 23.9032 20.4274 24.0584 20.3476 24.2913L20.0284 24.9898L19.2304 24.6017L19.5496 23.9032C19.6294 23.6703 19.5496 23.4374 19.39 23.2822C18.9112 22.9717 18.5122 22.5836 18.193 22.1179C18.0334 21.9627 17.794 21.885 17.5546 21.9627L16.7566 22.2731L16.4374 21.4193L17.1556 21.1088C17.395 21.0312 17.4748 20.7984 17.4748 20.5655C17.395 20.0222 17.395 19.4788 17.4748 18.9355C17.5546 18.7026 17.395 18.4698 17.1556 18.3921L16.4374 18.0817L16.8364 17.3055L17.5546 17.6159C17.794 17.6936 18.0334 17.6159 18.193 17.4607C18.5122 16.995 18.9112 16.6069 19.39 16.2964C19.5496 16.1412 19.6294 15.9083 19.5496 15.6754L19.2304 14.8992L20.1082 14.5888L20.4274 15.2873C20.5072 15.4426 20.587 15.5202 20.6667 15.5202C20.8263 15.5978 20.9061 15.5978 21.0657 15.5202C21.3051 15.4426 21.4647 15.1321 21.3051 14.8992L20.9859 14.2007C20.7465 13.7349 20.188 13.4245 19.6294 13.6573L18.8314 13.9678C18.592 14.0454 18.3526 14.2783 18.2728 14.5111C18.193 14.744 18.193 15.0545 18.2728 15.2873L18.4324 15.6754C18.1132 15.9083 17.794 16.2188 17.5546 16.5293L17.1556 16.374C16.9162 16.2964 16.597 16.2964 16.3576 16.374C16.1182 16.4516 15.8788 16.6845 15.799 16.9174L15.4798 17.6936C15.4 17.9264 15.4 18.2369 15.4798 18.4698C15.5596 18.7026 15.799 18.9355 16.0384 19.0131L16.4374 19.1683C16.3576 19.5564 16.3576 20.0222 16.4374 20.4103L16.0384 20.5655C15.5596 20.7984 15.2405 21.3417 15.4798 21.885L15.799 22.6612C16.0384 23.127 16.597 23.4374 17.1556 23.2046L17.5546 23.0493C17.794 23.3598 18.1132 23.6703 18.4324 23.9032L18.2728 24.2913C18.193 24.5241 18.193 24.8346 18.2728 25.0675C18.3526 25.3003 18.592 25.5332 18.8314 25.6108L19.6294 25.9213C19.8688 25.9989 20.188 25.9989 20.4274 25.9213C20.6667 25.8437 20.9061 25.6108 20.9859 25.3779L21.1455 24.9898C21.5445 25.0675 22.0233 25.0675 22.4223 24.9898L22.5819 25.3779C22.7415 25.766 23.1405 25.9989 23.5395 25.9989C23.6991 25.9989 23.7789 25.9989 23.9385 25.9213L24.7365 25.6108C25.2153 25.3779 25.5345 24.8346 25.2951 24.2913L25.1355 23.9032C25.4547 23.6703 25.7739 23.3598 26.0132 23.0493L26.4122 23.2046C26.6516 23.2822 26.9708 23.2822 27.2102 23.2046C27.4496 23.127 27.689 22.8941 27.7688 22.6612L28.088 21.885C28.1678 21.6522 28.1678 21.3417 28.088 21.1088C27.9284 20.876 27.7688 20.7207 27.4496 20.5655Z" fill="white"/>
<path d="M14.2047 7.29688H3.83091C3.35212 7.29688 2.95312 7.68498 2.95312 8.1507V12.3422C2.95312 12.8079 3.35212 13.196 3.83091 13.196H14.2047C14.6835 13.196 15.0825 12.8079 15.0825 12.3422V8.1507C15.0825 7.68498 14.6835 7.29688 14.2047 7.29688ZM14.2047 12.3422H3.83091V8.1507H14.1249L14.2047 12.3422Z" fill="white"/>
<path d="M26.9732 12.8906C25.7762 12.8906 24.8984 13.8221 24.8984 14.9087C24.8984 16.073 25.856 16.9269 26.9732 16.9269C28.1702 16.9269 29.048 15.9954 29.048 14.9087C29.048 13.7444 28.0904 12.8906 26.9732 12.8906ZM28.0904 14.9087C28.0904 15.5297 27.6116 15.9954 26.9732 15.9954C26.3348 15.9954 25.856 15.5297 25.856 14.9087C25.856 14.2878 26.3348 13.8221 26.9732 13.8221C27.5318 13.8221 28.0904 14.2878 28.0904 14.9087Z" fill="white"/>
<path d="M31.0426 13.738H30.883C30.8032 13.5051 30.7234 13.2723 30.5638 13.0394L30.7234 12.8842C31.0426 12.5737 31.0426 12.0303 30.7234 11.7199L30.2446 11.2541C29.9254 10.9437 29.3669 10.9437 29.0477 11.2541L28.8881 11.4094C28.6487 11.2541 28.4093 11.1765 28.1699 11.0989V10.9437C28.1699 10.4779 27.7709 10.0898 27.2921 10.0898H26.6537C26.1749 10.0898 25.7759 10.4779 25.7759 10.9437V11.1765C25.5365 11.2541 25.2971 11.3318 25.0577 11.487L24.8981 11.3318C24.5789 11.0213 24.0204 11.0213 23.7012 11.3318L23.2224 11.7975C22.9032 12.108 22.9032 12.6513 23.2224 12.9618L23.382 13.117C23.2224 13.3499 23.1426 13.5827 23.0628 13.8156H22.9032C22.4244 13.8156 22.0254 14.2037 22.0254 14.6694V15.2904C22.0254 15.7561 22.4244 16.1442 22.9032 16.1442H23.1426C23.2224 16.3771 23.3022 16.6099 23.4618 16.8428L23.3022 16.998C22.983 17.3085 22.983 17.8518 23.3022 18.1623L23.781 18.628C24.1002 18.9385 24.6587 18.9385 24.9779 18.628L25.1375 18.4728C25.3769 18.628 25.6163 18.7057 25.8557 18.7833V18.9385C25.8557 19.4042 26.2547 19.7923 26.7335 19.7923H27.3719C27.8507 19.7923 28.2497 19.4042 28.2497 18.9385V18.628C28.4891 18.5504 28.7285 18.4728 28.9679 18.3176L29.1275 18.4728C29.4466 18.7833 30.0052 18.7833 30.3244 18.4728L30.8032 18.0071C31.1224 17.6966 31.1224 17.1533 30.8032 16.8428L30.6436 16.6875C30.8032 16.4547 30.883 16.2218 30.9628 15.989H31.1224C31.6012 15.989 32.0002 15.6009 32.0002 15.1351V14.5142C31.9204 14.1261 31.5214 13.738 31.0426 13.738ZM29.9254 15.4456C29.8456 15.8337 29.686 16.2218 29.4467 16.5323C29.2871 16.6875 29.3669 16.998 29.5264 17.1533L29.8456 17.4637L29.5264 17.7742L29.2073 17.4637C29.0477 17.3085 28.8083 17.3085 28.5689 17.3861C28.2497 17.619 27.8507 17.7742 27.4517 17.8518C27.2921 17.8518 27.1325 18.0847 27.1325 18.3176V18.7833H26.7335V18.3176C26.7335 18.0847 26.5739 17.9295 26.3345 17.8518C25.9355 17.7742 25.5365 17.619 25.2173 17.3861C25.0577 17.2309 24.7385 17.3085 24.5789 17.4637L24.2597 17.7742L23.9406 17.4637L24.2597 17.1533C24.4193 16.998 24.4193 16.7652 24.3395 16.5323C24.1002 16.2218 23.9406 15.8337 23.8608 15.4456C23.781 15.2128 23.6214 15.0575 23.382 15.0575H22.9032V14.6694H23.382C23.6214 14.6694 23.781 14.5142 23.8608 14.2813C23.9406 13.8932 24.1002 13.5051 24.3395 13.1946C24.4991 13.0394 24.4193 12.7289 24.2597 12.5737L23.9406 12.2632L24.2597 11.9527L24.5789 12.2632C24.7385 12.4184 24.9779 12.4184 25.2173 12.3408C25.5365 12.108 25.9355 11.9527 26.3345 11.8751C26.5739 11.7975 26.7335 11.6422 26.7335 11.4094V10.9437H27.1325V11.4094C27.1325 11.6422 27.2921 11.7975 27.5315 11.8751C27.9305 11.9527 28.3295 12.108 28.6487 12.3408C28.8083 12.4961 29.1275 12.4184 29.2871 12.2632L29.6062 11.9527L29.9254 12.2632L29.5264 12.6513C29.3669 12.8065 29.3669 13.0394 29.4467 13.2723C29.686 13.5827 29.8456 13.9708 29.9254 14.3589C30.0052 14.5918 30.1648 14.747 30.4042 14.747H30.883V15.1351H30.4042C30.1648 15.0575 30.0052 15.2904 29.9254 15.4456Z" fill="white"/>
<path d="M10.5326 8.45976C10.373 8.30452 10.0538 8.30452 9.89425 8.53738C9.81445 8.615 9.81445 8.77024 9.81445 8.84786C9.81445 9.0031 9.89425 9.08072 9.97405 9.15834L11.3306 10.245L9.97405 11.3317C9.89425 11.4093 9.81445 11.4869 9.81445 11.6422C9.81445 11.7974 9.81445 11.875 9.89425 11.9527C9.97405 12.0303 10.0538 12.1079 10.2134 12.1079C10.2134 12.1079 10.2134 12.1079 10.2932 12.1079C10.373 12.1079 10.5326 12.1079 10.6124 12.0303L12.368 10.5555C12.4478 10.4779 12.5276 10.3226 12.5276 10.245C12.5276 10.0898 12.4478 10.0122 12.368 9.85692L10.5326 8.45976Z" fill="white"/>
<path d="M8.13893 8.85244C8.13893 8.6972 8.13893 8.61958 8.05913 8.54196C7.97933 8.46434 7.89953 8.38672 7.73994 8.38672C7.58034 8.38672 7.50054 8.38672 7.42074 8.46434L5.58538 9.93912C5.50558 10.0167 5.42578 10.172 5.42578 10.2496C5.42578 10.4048 5.50558 10.4825 5.58538 10.6377L7.34094 12.1125C7.42074 12.1901 7.50054 12.1901 7.66014 12.1901C7.66014 12.1901 7.66014 12.1901 7.73994 12.1901C7.89953 12.1901 7.97933 12.1125 8.05913 12.0349C8.13893 11.9572 8.13893 11.802 8.13893 11.7244C8.13893 11.6468 8.05913 11.4915 7.97933 11.4139L6.62276 10.3272L7.97933 9.24054C8.05913 9.0853 8.05913 8.93006 8.13893 8.85244Z" fill="white"/>
<path d="M9.33688 8.69531C9.25708 8.69531 9.09748 8.69531 9.01768 8.77293C8.93788 8.85055 8.85809 8.92817 8.77829 9.08341L8.1399 11.2568C8.0601 11.4896 8.2197 11.7225 8.45909 11.8001C8.53889 11.8001 8.53889 11.8001 8.61869 11.8001C8.69849 11.8001 8.77829 11.8001 8.85809 11.7225C8.93788 11.6449 9.01768 11.5673 9.09748 11.412L9.73587 9.23865C9.73587 9.08341 9.73587 9.00579 9.65607 8.92817C9.57627 8.77293 9.49647 8.69531 9.33688 8.69531Z" fill="white"/>
<path d="M3.35184 17.1602C3.11244 17.1602 2.87305 17.393 2.87305 17.6259C2.87305 17.8587 3.11244 18.0916 3.35184 18.0916H8.85793C9.09733 18.0916 9.33672 17.8587 9.33672 17.6259C9.33672 17.393 9.09733 17.1602 8.85793 17.1602H3.35184Z" fill="white"/>
</svg>
