<svg width="28" height="26" viewBox="0 0 28 26" fill="none" xmlns="http://www.w3.org/2000/svg">
<path d="M27.3226 20.2712C27.6967 20.2712 28 20.5671 28 20.9322V24.678C28 25.4081 27.3934 26 26.6451 26H22.8064C22.4323 26 22.129 25.704 22.129 25.339C22.129 24.9739 22.4323 24.678 22.8064 24.678H26.6451V20.9322C26.6451 20.5671 26.9485 20.2712 27.3226 20.2712ZM0.677419 20.2712C1.05155 20.2712 1.35484 20.5671 1.35484 20.9322V24.678H5.19355C5.56767 24.678 5.87097 24.9739 5.87097 25.339C5.87097 25.704 5.56767 26 5.19355 26H1.35484C0.606582 26 0 25.4081 0 24.678V20.9322C0 20.5671 0.303291 20.2712 0.677419 20.2712ZM26.6451 0C27.3934 0 28 0.591895 28 1.32203V5.0678C28 5.43287 27.6967 5.72882 27.3226 5.72882C26.9485 5.72882 26.6451 5.43287 26.6451 5.0678V1.32203H22.8064C22.4323 1.32203 22.129 1.02609 22.129 0.661017C22.129 0.295948 22.4323 0 22.8064 0H26.6451ZM5.19355 0C5.56767 0 5.87097 0.295948 5.87097 0.661017C5.87097 1.02609 5.56767 1.32203 5.19355 1.32203H1.35484V5.0678C1.35484 5.43287 1.05155 5.72882 0.677419 5.72882C0.303291 5.72882 0 5.43287 0 5.0678V1.32203C0 0.591895 0.606582 0 1.35484 0H5.19355Z" fill="white"/>
<path d="M13.9996 2.73438L5.59961 7.69722V17.58L13.9996 22.5429L22.3996 17.58V7.69722L13.9996 2.73438ZM13.3774 20.7477L6.84406 16.8877V9.1248L13.3774 12.9848V20.7477ZM7.42892 8.04339L13.9996 4.16196L20.5703 8.04339L13.9996 11.9248L7.42892 8.04339ZM21.1551 16.8877L14.6218 20.7477V12.9848L21.1551 9.1248V16.8877Z" fill="white"/>
</svg>
