<svg width="26" height="28" viewBox="0 0 26 28" fill="none" xmlns="http://www.w3.org/2000/svg">
<path d="M7.35847 27.6267L7.5298 27.4511C7.73611 27.2388 7.86351 26.9593 7.89002 26.661C7.91653 26.3626 7.84049 26.0642 7.67497 25.8172L7.70304 25.8038L9.24796 27.3872C9.34606 27.4878 9.46247 27.5676 9.59062 27.6221C9.71885 27.6766 9.85623 27.7046 9.99497 27.7046C10.1337 27.7046 10.2711 27.6766 10.3993 27.6221C10.5274 27.5676 10.6438 27.4878 10.7419 27.3872L12.8018 25.276C12.9996 25.0727 13.1107 24.7974 13.1107 24.5104C13.1107 24.2234 12.9996 23.9481 12.8018 23.7448L12.5326 23.4689L16.8177 21.398L17.0144 21.599C17.1317 21.7194 17.2711 21.8149 17.4246 21.8801C17.578 21.9453 17.7424 21.9788 17.9085 21.9788C18.0746 21.9788 18.2391 21.9453 18.3925 21.8801C18.5459 21.8149 18.6853 21.7194 18.8027 21.599L18.9769 21.4205C19.0944 21.3002 19.1875 21.1573 19.2511 21.0001C19.3147 20.8428 19.3475 20.6743 19.3475 20.504C19.3475 20.3338 19.3147 20.1653 19.2511 20.008C19.1875 19.8508 19.0944 19.7078 18.9769 19.5876L10.9334 11.3435C10.6925 11.108 10.3723 10.9766 10.0394 10.9766C9.70648 10.9766 9.38636 11.108 9.14549 11.3435L8.97081 11.5221C8.85331 11.6424 8.76 11.7853 8.6964 11.9426C8.63273 12.0998 8.6 12.2685 8.6 12.4388C8.6 12.6091 8.63273 12.7777 8.6964 12.9349C8.76 13.0923 8.85331 13.2352 8.97081 13.3554L9.16701 13.5565L4.85616 22.9291C4.61342 22.7662 4.32412 22.6922 4.03519 22.7191C3.74626 22.7459 3.47463 22.872 3.2644 23.0769L3.09305 23.2525C2.85837 23.4935 2.72656 23.8201 2.72656 24.1606C2.72656 24.5011 2.85837 24.8277 3.09305 25.0687L5.5879 27.6257C5.7042 27.7451 5.84231 27.8397 5.99434 27.9043C6.14636 27.9689 6.30933 28.0021 6.47389 28.0021C6.63846 28.0021 6.80142 27.9689 6.95344 27.9043C7.1055 27.8397 7.24357 27.7451 7.3599 27.6257L7.35847 27.6267ZM12.21 24.6652L10.1501 26.7764C10.109 26.8165 10.0543 26.8389 9.9975 26.8389C9.94073 26.8389 9.88608 26.8165 9.84489 26.7764L8.51345 25.4118L11.7302 23.8576L12.212 24.3509C12.232 24.3714 12.2478 24.3957 12.2587 24.4225C12.2695 24.4493 12.2751 24.478 12.2751 24.507C12.2751 24.5361 12.2695 24.5648 12.2587 24.5916C12.2478 24.6184 12.232 24.6427 12.212 24.6632L12.21 24.6652ZM9.56774 12.1309L9.74235 11.9525C9.82186 11.8711 9.92966 11.8254 10.042 11.8254C10.1543 11.8254 10.2621 11.8711 10.3416 11.9525L18.3856 20.196C18.4649 20.2776 18.5093 20.388 18.5093 20.5031C18.5093 20.6182 18.4649 20.7286 18.3856 20.8102L18.2114 20.9887C18.1307 21.0676 18.0234 21.1117 17.9118 21.1117C17.8002 21.1117 17.6929 21.0676 17.6122 20.9887C16.2302 19.5698 17.8688 21.2497 9.56917 12.7446C9.48979 12.6631 9.44525 12.5527 9.44525 12.4375C9.44525 12.3224 9.48979 12.2119 9.56917 12.1304L9.56774 12.1309ZM9.80185 14.2029L16.189 20.7507L7.06732 25.1603L5.49895 23.5534L9.80185 14.2029ZM3.68575 23.8628L3.85709 23.6872C3.89536 23.648 3.94079 23.6169 3.9908 23.5956C4.0408 23.5744 4.0944 23.5635 4.14853 23.5635C4.20266 23.5635 4.25626 23.5744 4.30626 23.5956C4.35627 23.6169 4.4017 23.648 4.43995 23.6872L6.93527 26.2443C7.01239 26.3236 7.05563 26.431 7.05563 26.5429C7.05563 26.6549 7.01239 26.7623 6.93527 26.8416L6.76392 27.0173C6.68546 27.0944 6.58096 27.1375 6.47225 27.1375C6.36355 27.1375 6.25904 27.0944 6.18059 27.0173L3.68575 24.4602C3.60864 24.3809 3.56535 24.2735 3.56535 24.1615C3.56535 24.0496 3.60864 23.9422 3.68575 23.8628Z" fill="white"/>
<path d="M8.99341 17.25L9.75934 17.6051L8.09406 21.3785L7.32812 21.0234L8.99341 17.25Z" fill="white"/>
<path d="M17.6204 12.1328L18.215 12.7422L16.8133 14.1788L16.2188 13.5695L17.6204 12.1328Z" fill="white"/>
<path d="M16.5684 15.2325L19.4906 13.9922L19.8122 14.7882L16.89 16.0286L16.5684 15.2325Z" fill="white"/>
<path d="M15.1889 13.8203L14.4122 13.4907L15.6229 10.4961L16.3995 10.8257L15.1889 13.8203Z" fill="white"/>
<path d="M23.7145 4.27051C23.7145 1.91549 21.0497 0 17.7745 0C14.4992 0 11.834 1.91597 11.834 4.27051C11.834 5.71001 12.7965 7.01469 14.4243 7.80881V10.4958L17.1518 8.54728H17.774C21.0512 8.54728 23.7141 6.62793 23.7141 4.27291L23.7145 4.27051ZM17.773 7.68356H16.8864L15.2637 8.84282V7.24546L15.0081 7.13414C13.5461 6.49598 12.6734 5.42547 12.6734 4.27051C12.6734 2.39053 14.9608 0.861303 17.773 0.861303C20.5853 0.861303 22.8719 2.39053 22.8719 4.27051C22.8719 6.15049 20.5848 7.68356 17.773 7.68356Z" fill="white"/>
<path d="M15.1777 2.69922H20.3683V3.56292H15.1777V2.69922Z" fill="white"/>
<path d="M15.1777 4.98438H20.3683V5.84808H15.1777V4.98438Z" fill="white"/>
<path d="M8.65647 10.2055C8.67164 10.2856 8.70859 10.3596 8.76311 10.4191C8.81762 10.4785 8.88744 10.5209 8.9645 10.5413C8.99879 10.5502 9.03404 10.5547 9.06943 10.5548C9.13105 10.5547 9.19191 10.5408 9.24773 10.514C9.30354 10.4873 9.35293 10.4483 9.39241 10.3998L11.2585 8.10574C11.2982 8.05652 11.3269 7.99889 11.3422 7.937C11.3577 7.8751 11.3594 7.81048 11.3476 7.74781C11.3356 7.68508 11.3103 7.62591 11.2734 7.57445C11.2364 7.52299 11.1889 7.48056 11.134 7.45024L8.56609 6.0386C8.496 6.00051 8.41683 5.98347 8.33772 5.98945C8.25861 5.99544 8.18271 6.0242 8.11884 6.07243C8.05497 6.12066 8.00564 6.18639 7.97661 6.26207C7.94758 6.33774 7.93999 6.42028 7.95468 6.50019L8.65647 10.2055ZM10.2815 7.95933L9.31283 9.15081L8.94817 7.22668L10.2815 7.95933Z" fill="white"/>
<path d="M1.48815 6.75402L7.68428 5.1557C7.79228 5.12762 7.88505 5.05682 7.9423 4.95879C7.99948 4.86077 8.01649 4.74351 7.9895 4.63268L7.02368 0.700452C6.99157 0.592773 6.92162 0.501151 6.82732 0.443348C6.73303 0.385545 6.62117 0.36568 6.51341 0.387603L0.317744 1.98592C0.209723 2.01401 0.116961 2.08481 0.0597532 2.18283C0.00254596 2.28085 -0.0144423 2.39811 0.0125055 2.50894L0.978322 6.44117C1.00573 6.55178 1.07474 6.64678 1.17027 6.70539C1.2658 6.76401 1.38008 6.7815 1.48815 6.75402ZM5.33973 1.57903L3.90902 3.15576L1.95304 2.4528L5.33973 1.57903ZM3.88843 4.06168C3.96563 4.08931 4.04901 4.09332 4.1284 4.07321C4.20779 4.0531 4.27976 4.00975 4.33552 3.94844L6.39543 1.67883L7.06959 4.42443L1.6904 5.81259L1.00548 3.02428L3.88843 4.06168Z" fill="white"/>
<path d="M2.33025 13.7305L3.21508 12.8237C3.60162 13.0703 4.06314 13.1625 4.51176 13.0829C4.96038 13.0033 5.36476 12.7573 5.64788 12.3918C5.931 12.0264 6.07309 11.5669 6.04707 11.101C6.02106 10.6352 5.82877 10.1954 5.50683 9.8654C5.18488 9.53541 4.75577 9.33838 4.30121 9.3117C3.84666 9.28503 3.39841 9.43066 3.04184 9.72081C2.68527 10.011 2.44528 10.4255 2.36759 10.8853C2.2899 11.3451 2.37991 11.8181 2.62051 12.2142L1.73569 13.1212C1.66595 13.2036 1.62929 13.3102 1.63308 13.4193C1.63686 13.5284 1.68082 13.6319 1.7561 13.7092C1.83138 13.7864 1.9324 13.8315 2.03884 13.8355C2.14527 13.8395 2.24969 13.8019 2.33025 13.7305ZM4.18465 10.1923C4.38319 10.1923 4.57726 10.2526 4.74234 10.3657C4.90741 10.4787 5.03606 10.6394 5.11202 10.8274C5.18798 11.0155 5.20783 11.2223 5.16906 11.4219C5.13029 11.6215 5.03465 11.8048 4.89422 11.9487C4.7538 12.0925 4.57491 12.1904 4.38017 12.2301C4.18543 12.2697 3.98361 12.2493 3.8002 12.1713C3.6168 12.0934 3.46007 11.9615 3.34983 11.7923C3.23959 11.623 3.18081 11.424 3.1809 11.2206C3.18084 11.0855 3.20675 10.9518 3.25714 10.8269C3.30754 10.7022 3.38144 10.5888 3.47461 10.4933C3.56779 10.3978 3.67841 10.322 3.80016 10.2704C3.92191 10.2188 4.05288 10.1922 4.18465 10.1923Z" fill="white"/>
<path d="M23.376 11.294L23.8516 11.546L24.1133 11.0272L23.6376 10.7754L23.7022 10.6463C23.7197 10.5931 23.7488 10.5448 23.7873 10.5049C23.8257 10.465 23.8726 10.4347 23.9243 10.4162C23.9759 10.3976 24.031 10.3915 24.0853 10.398C24.1397 10.4047 24.1918 10.4239 24.2378 10.4543C24.3109 10.4958 24.379 10.5457 24.441 10.603L24.7144 10.0608C24.6124 9.95197 24.4923 9.86276 24.3595 9.79744C24.2455 9.72392 24.1168 9.67764 23.9829 9.6621C23.8491 9.64655 23.7135 9.6621 23.5863 9.70761C23.4592 9.75312 23.3436 9.82741 23.2482 9.92494C23.1529 10.0225 23.0802 10.1407 23.0356 10.271L22.9616 10.4179L22.5356 10.1918L22.2739 10.711L22.6999 10.937L21.787 12.7465L22.463 13.105L23.376 11.294Z" fill="white"/>
<path d="M25.9979 18.4408L24.753 17.1649L23.7545 18.1883L24.143 18.5871L24.6426 18.0756L25.2044 18.6514C25.1022 18.8286 24.9789 18.9921 24.8373 19.138C24.3261 19.6619 23.7791 19.6253 23.1964 19.0281C22.6255 18.443 22.5853 17.8992 23.0756 17.3967C23.3312 17.1311 23.667 16.9619 24.0283 16.9168L23.8069 16.3242C23.3513 16.3871 22.9313 16.6107 22.6191 16.9566C22.2865 17.3159 22.105 17.7946 22.1136 18.2898C22.1222 18.785 22.3204 19.2568 22.6653 19.6036C23.0103 19.9505 23.4744 20.1444 23.9576 20.1437C24.4408 20.1431 24.9043 19.9478 25.2484 19.6C25.5763 19.2725 25.8326 18.8773 26.0007 18.4408H25.9979Z" fill="white"/>
</svg>
