<svg width="20" height="26" viewBox="0 0 20 26" fill="none" xmlns="http://www.w3.org/2000/svg">
<path d="M18.2611 6.06676H15.652V1.73342C15.6516 1.27383 15.4682 0.833202 15.1421 0.508225C14.816 0.183247 14.3739 0.000468609 13.9128 0H1.73927C1.27813 0.000468609 0.83601 0.183247 0.50994 0.508225C0.183867 0.833202 0.000470188 1.27383 0 1.73342V24.2666C0.000470188 24.7262 0.183867 25.1668 0.50994 25.4918C0.83601 25.8168 1.27813 25.9995 1.73927 26H13.9132C14.3743 25.9994 14.8163 25.8166 15.1422 25.4916C15.4683 25.1666 15.6516 24.7261 15.652 24.2666V20.7993H18.2607C18.7218 20.7988 19.164 20.616 19.4901 20.291C19.8161 19.9661 19.9995 19.5255 20 19.0659V7.80019C19.9995 7.34058 19.8161 6.89994 19.4901 6.57501C19.164 6.25 18.7223 6.06722 18.2611 6.06676ZM10.0022 0.866931V1.30018C10.0021 1.41504 9.95627 1.52517 9.87475 1.6064C9.79329 1.68762 9.68274 1.7333 9.5675 1.73342H6.08897C5.97372 1.7333 5.86322 1.68762 5.78173 1.6064C5.70023 1.52517 5.65438 1.41504 5.65427 1.30018V0.866931H10.0022ZM14.7848 24.267C14.7845 24.4967 14.6928 24.7169 14.5298 24.8793C14.3668 25.0418 14.1459 25.1332 13.9155 25.1335H1.73927C1.50879 25.1332 1.28785 25.0418 1.12488 24.8793C0.961915 24.7169 0.870204 24.4967 0.869852 24.267V1.73342C0.870204 1.50372 0.961915 1.28353 1.12488 1.12111C1.28785 0.958685 1.50879 0.867282 1.73927 0.866931H4.78263V1.30018C4.78288 1.64494 4.9204 1.9755 5.165 2.21928C5.4096 2.46306 5.74128 2.60012 6.0872 2.60035H9.56574C9.91166 2.60012 10.2433 2.46306 10.4879 2.21928C10.7325 1.9755 10.8701 1.64494 10.8703 1.30018V0.866931H13.9136C14.1441 0.867282 14.3651 0.958685 14.5281 1.12111C14.691 1.28353 14.7827 1.50372 14.7831 1.73342V6.06676H3.47853C3.01739 6.06722 2.57527 6.25 2.2492 6.57501C1.92313 6.89994 1.73974 7.34058 1.73927 7.80019V19.0668C1.73974 19.5263 1.92313 19.967 2.2492 20.292C2.57527 20.617 3.01739 20.7997 3.47853 20.8002H14.7831L14.7848 24.267ZM19.1328 19.0672C19.1325 19.2969 19.0407 19.5171 18.8777 19.6795C18.7148 19.842 18.4938 19.9334 18.2633 19.9337H3.47853C3.24805 19.9334 3.02712 19.842 2.86415 19.6795C2.70118 19.5171 2.60947 19.2969 2.60912 19.0672V7.80019C2.60947 7.57048 2.70118 7.35026 2.86415 7.18789C3.02712 7.02546 3.24805 6.93407 3.47853 6.93368H18.2616C18.4921 6.93407 18.713 7.02546 18.8759 7.18789C19.0389 7.35026 19.1306 7.57048 19.131 7.80019L19.1328 19.0672Z" fill="white"/>
<path d="M7.9516 13.742C8.03319 13.8233 8.1438 13.8689 8.25911 13.8689C8.37442 13.8689 8.48503 13.8233 8.56662 13.742C8.64814 13.6607 8.69399 13.5504 8.69399 13.4355C8.69399 13.3206 8.64814 13.2104 8.56662 13.1291L6.70168 11.2704L8.56662 9.41177C8.64814 9.33045 8.69399 9.22021 8.69399 9.10529C8.69399 8.99037 8.64814 8.88013 8.56662 8.79882C8.48503 8.71757 8.37442 8.67188 8.25911 8.67188C8.1438 8.67188 8.03319 8.71757 7.9516 8.79882L5.77587 10.9673C5.73547 11.0075 5.70342 11.0553 5.68156 11.1079C5.65969 11.1605 5.64844 11.2168 5.64844 11.2737C5.64844 11.3306 5.65969 11.387 5.68156 11.4396C5.70342 11.4922 5.73547 11.5399 5.77587 11.5802L7.9516 13.742Z" fill="white"/>
<path d="M13.7853 8.79491C13.7038 8.7136 13.5932 8.66797 13.4778 8.66797C13.3625 8.66797 13.2519 8.7136 13.1703 8.79491C13.0888 8.87616 13.043 8.9864 13.043 9.10139C13.043 9.21631 13.0888 9.32655 13.1703 9.4078L15.0353 11.2665L13.1703 13.1251C13.13 13.1654 13.0979 13.2132 13.0761 13.2657C13.0543 13.3183 13.043 13.3747 13.043 13.4316C13.043 13.4885 13.0543 13.5449 13.0761 13.5974C13.0979 13.65 13.13 13.6978 13.1703 13.738C13.2107 13.7783 13.2586 13.8102 13.3114 13.832C13.3642 13.8538 13.4207 13.865 13.4778 13.865C13.5349 13.865 13.5915 13.8538 13.6442 13.832C13.697 13.8102 13.7449 13.7783 13.7853 13.738L15.9611 11.5696C16.0014 11.5294 16.0335 11.4816 16.0554 11.429C16.0772 11.3765 16.0885 11.3201 16.0885 11.2632C16.0885 11.2062 16.0772 11.1499 16.0554 11.0973C16.0335 11.0447 16.0014 10.9969 15.9611 10.9567L13.7853 8.79491Z" fill="white"/>
<path d="M12.3452 7.83219C12.2928 7.80976 12.2364 7.7978 12.1793 7.79715C12.1222 7.79644 12.0656 7.8069 12.0126 7.82803C11.9596 7.84915 11.9113 7.88048 11.8705 7.92026C11.8296 7.95998 11.797 8.00736 11.7746 8.05969L9.16597 14.1251C9.12058 14.2307 9.11914 14.35 9.16199 14.4567C9.20478 14.5634 9.28839 14.6487 9.39437 14.694C9.50041 14.7392 9.62009 14.7406 9.72711 14.6979C9.83414 14.6552 9.91977 14.5719 9.96516 14.4663L12.5739 8.39951C12.5964 8.34725 12.6084 8.29109 12.6091 8.23421C12.6098 8.17734 12.5992 8.12085 12.578 8.06807C12.5568 8.01523 12.5254 7.96713 12.4856 7.92637C12.4456 7.88568 12.3981 7.85325 12.3457 7.83089L12.3452 7.83219Z" fill="white"/>
<path d="M9.56612 16.0312H4.34877C4.23347 16.0312 4.1229 16.0769 4.04138 16.1581C3.95986 16.2394 3.91406 16.3496 3.91406 16.4645C3.91406 16.5794 3.95986 16.6896 4.04138 16.7708C4.1229 16.8521 4.23347 16.8978 4.34877 16.8978H9.56612C9.68143 16.8978 9.79197 16.8521 9.8735 16.7708C9.95502 16.6896 10.0008 16.5794 10.0008 16.4645C10.0008 16.3496 9.95502 16.2394 9.8735 16.1581C9.79197 16.0769 9.68143 16.0312 9.56612 16.0312Z" fill="white"/>
<path d="M7.82536 17.7656H4.34682C4.23153 17.7656 4.12096 17.8113 4.03944 17.8925C3.95791 17.9738 3.91211 18.0839 3.91211 18.1989C3.91211 18.3138 3.95791 18.4239 4.03944 18.5052C4.12096 18.5864 4.23153 18.6321 4.34682 18.6321H7.82536C7.94066 18.6321 8.05121 18.5864 8.13273 18.5052C8.21426 18.4239 8.26004 18.3138 8.26004 18.1989C8.26004 18.0839 8.21426 17.9738 8.13273 17.8925C8.05121 17.8113 7.94066 17.7656 7.82536 17.7656Z" fill="white"/>
<path d="M6.08705 24.265H9.56556C9.68087 24.265 9.79142 24.2193 9.87294 24.138C9.95446 24.0568 10.0002 23.9466 10.0002 23.8317C10.0002 23.7168 9.95446 23.6066 9.87294 23.5253C9.79142 23.4441 9.68087 23.3984 9.56556 23.3984H6.08705C5.97176 23.3984 5.86119 23.4441 5.77966 23.5253C5.69814 23.6066 5.65234 23.7168 5.65234 23.8317C5.65234 23.9466 5.69814 24.0568 5.77966 24.138C5.86119 24.2193 5.97176 24.265 6.08705 24.265Z" fill="white"/>
</svg>
