<svg width="26" height="26" viewBox="0 0 26 26" fill="none" xmlns="http://www.w3.org/2000/svg">
<path d="M22.5807 26C22.3438 26 22.1068 26 21.8698 26C21.5448 25.8578 21.2334 25.6953 21.0709 25.3635C20.9557 25.1266 20.7865 25.0724 20.5427 25.0724C19.7031 25.0724 18.8703 25.0995 18.0307 25.0589C17.7802 25.0453 17.5771 24.9438 17.401 24.7745C16.5615 23.9349 15.7286 23.1021 14.8891 22.2625C14.686 22.0594 14.5911 21.8156 14.5911 21.5312C14.5911 21.2469 14.5844 20.9557 14.5911 20.6714C14.5911 20.4953 14.5166 20.4276 14.3474 20.4276C14.1375 20.4344 13.9209 20.4411 13.711 20.4276C13.4807 20.414 13.3927 20.4885 13.3995 20.7323C13.413 21.1521 13.413 21.5786 13.3995 21.9985C13.3927 22.2354 13.4604 22.3776 13.6839 22.4927C14.3068 22.8312 14.5437 23.576 14.2661 24.226C13.9885 24.8625 13.2911 25.1943 12.6344 25.0047C12.0995 24.849 11.7068 24.3953 11.6459 23.8672C11.5781 23.2646 11.8354 22.7568 12.3568 22.4656C12.4786 22.3979 12.6073 22.3573 12.6005 22.1812C12.5938 21.6666 12.6005 21.1521 12.6005 20.6307C12.6005 20.475 12.5193 20.4276 12.3771 20.4276C12.1265 20.4344 11.8693 20.4344 11.6187 20.4276C11.4495 20.4209 11.3682 20.4953 11.375 20.6714C11.3818 20.9151 11.3682 21.1656 11.375 21.4094C11.3953 21.8021 11.2464 22.1068 10.9688 22.3776C10.224 23.1021 9.47915 23.8334 8.76824 24.5849C8.42289 24.9505 8.04375 25.0995 7.55625 25.086C6.81148 25.0656 6.06666 25.0791 5.32187 25.0791C5.19323 25.0791 5.05781 25.0724 4.9901 25.2146C4.80729 25.6073 4.48229 25.8375 4.09635 26C3.85938 26 3.6224 26 3.38541 26C3.35156 25.9865 3.32448 25.9729 3.29062 25.9594C2.63385 25.6885 2.29531 25.1536 2.35625 24.4969C2.41041 23.9349 2.87084 23.4203 3.41927 23.3052C4.0625 23.1698 4.63802 23.4474 4.96979 24.0771C5.04427 24.226 5.14584 24.2531 5.29479 24.2531C6.08021 24.2464 6.86562 24.2464 7.65778 24.2531C7.85415 24.2531 7.9896 24.1854 8.125 24.05C8.72085 23.4474 9.31664 22.8515 9.91926 22.2557C10.5625 21.6125 10.5557 21.6125 10.5422 20.7188C10.5422 20.5021 10.4745 20.4141 10.251 20.4209C9.88539 20.4344 9.52653 20.4209 9.1609 20.4209C8.76148 20.4209 8.41613 20.2854 8.13176 20.001C7.42085 19.2901 6.70988 18.5791 5.99896 17.8615C5.70104 17.5635 5.56562 17.2047 5.55885 16.7849C5.55885 16.4193 5.55209 16.0604 5.55885 15.6948C5.56562 15.4984 5.4776 15.4375 5.28802 15.4172C4.7125 15.363 4.21146 15.4443 3.83906 15.9589C3.71041 16.1349 3.63594 16.2568 3.68334 16.4937C3.79844 17.0557 3.60209 17.5365 3.12812 17.8682C2.6474 18.2068 2.13281 18.2203 1.625 17.9224C1.14427 17.638 0.89375 17.0964 0.981773 16.5615C1.12396 15.6541 1.9974 15.1464 2.86406 15.4781C3.03334 15.5459 3.14166 15.5255 3.26354 15.3969C3.42604 15.2141 3.60885 15.0515 3.7849 14.8755C3.98125 14.686 4.21823 14.5911 4.49584 14.5979C4.74635 14.6047 5.00365 14.5844 5.25416 14.6047C5.50469 14.625 5.58594 14.5166 5.5724 14.2797C5.55885 14.0969 5.55885 13.9073 5.5724 13.7245C5.58594 13.4943 5.49791 13.413 5.26771 13.413C4.50937 13.4266 3.74427 13.4198 2.98594 13.413C2.77604 13.413 2.65416 13.4672 2.54584 13.6635C2.24115 14.2323 1.61146 14.4896 0.988539 14.3271C0.473959 14.1916 0.182812 13.826 0 13.3521C0 13.1151 0 12.8781 0 12.6411C0.223437 12.0453 0.636459 11.6526 1.29323 11.6187C1.9026 11.5916 2.34271 11.8896 2.61354 12.438C2.66771 12.5464 2.74896 12.5802 2.86406 12.5802C3.6901 12.5802 4.52291 12.5802 5.34896 12.5802C5.51146 12.5802 5.57916 12.5057 5.5724 12.35C5.56562 12.1672 5.5724 11.9776 5.5724 11.7948C5.5724 11.3953 5.5724 11.4021 5.18646 11.3953C4.00156 11.3885 4.17084 11.5104 3.28385 10.6099C3.14844 10.4677 3.03334 10.4406 2.84375 10.5151C1.88906 10.8875 0.853125 10.1021 0.981773 9.12034C1.08334 8.3146 1.7875 7.74585 2.54584 7.87449C3.37865 8.00988 3.86615 8.75472 3.68334 9.60102C3.65625 9.71613 3.65625 9.80414 3.7375 9.90574C4.11666 10.3729 4.55 10.7115 5.20677 10.576C5.24062 10.5693 5.27448 10.5693 5.30834 10.576C5.49791 10.5896 5.58594 10.5015 5.57916 10.3052C5.5724 9.95312 5.59948 9.59426 5.5724 9.24222C5.51146 8.49062 5.93125 8.00312 6.4526 7.56977C6.62863 7.42761 6.81824 7.44789 6.98074 7.60363C7.14324 7.75937 7.15 7.95574 7.01461 8.13176C6.90625 8.27398 6.77762 8.39585 6.64898 8.51773C6.48646 8.67347 6.41198 8.84949 6.41198 9.07972C6.41875 11.6526 6.41875 14.2255 6.41198 16.7985C6.41198 17.0151 6.47969 17.1911 6.62863 17.3469C7.31926 18.0375 8.00312 18.7281 8.69375 19.412C8.80886 19.5271 8.95102 19.6015 9.12034 19.6015C9.51977 19.6015 9.9125 19.6016 10.312 19.6084C10.4812 19.6084 10.5625 19.5339 10.5557 19.3646C10.549 19.1344 10.5557 18.911 10.5557 18.6807C10.5557 18.2068 10.5557 18.2 10.0885 18.2068C9.68227 18.2135 9.35051 18.0849 9.07289 17.7802C8.78176 17.462 8.47028 17.164 8.15886 16.8594C7.92863 16.636 7.81352 16.3651 7.81352 16.0401C7.81352 13.9682 7.81352 11.8964 7.81352 9.81773C7.81352 9.50625 7.92188 9.24222 8.15211 9.02551C8.26715 8.91722 8.38903 8.80886 8.49062 8.68023C8.97812 8.08438 9.54687 7.68489 10.3661 7.82028C10.5219 7.84738 10.5964 7.75937 10.5964 7.59687C10.5896 7.28539 10.5896 6.96722 10.5964 6.65574C10.6031 6.47969 10.5219 6.41198 10.3526 6.41198C10.1765 6.41875 9.99375 6.42552 9.81773 6.41198C9.1271 6.3375 8.51773 6.44584 8.07086 7.06199C7.91511 7.27864 7.65778 7.25836 7.48852 7.09585C7.3125 6.9266 7.3125 6.70312 7.50886 6.48646C7.65778 6.32396 7.82034 6.175 7.96926 6.01927C8.26722 5.72136 8.62602 5.57917 9.04585 5.57917C9.47915 5.57917 9.9125 5.5724 10.3391 5.57917C10.5219 5.57917 10.6031 5.51823 10.5964 5.32865C10.5896 5.09844 10.5896 4.86823 10.5964 4.64479C10.6031 4.46875 10.549 4.3401 10.4203 4.21823C9.64841 3.45312 8.88336 2.68802 8.125 1.92292C8.00988 1.80781 7.88801 1.75365 7.71875 1.75365C6.96722 1.76042 6.20885 1.76719 5.45729 1.75365C5.20677 1.74688 5.06459 1.82136 4.94271 2.05156C4.61771 2.65416 3.88646 2.89115 3.25677 2.6474C2.61354 2.3901 2.26146 1.71302 2.42396 1.03594C2.5526 0.514585 2.91146 0.203126 3.39896 0.0135425C3.63594 0.0135425 3.87291 0.0135425 4.1099 0.0135425C4.44166 0.142188 4.7599 0.304689 4.91562 0.629689C5.04427 0.89375 5.22709 0.934375 5.48438 0.934375C6.22916 0.920835 6.97398 0.927608 7.71875 0.934375C8.03699 0.934375 8.34164 0.988539 8.57863 1.23229C9.41824 2.07865 10.2646 2.91823 11.1109 3.76459C11.3005 3.95416 11.3953 4.1776 11.3885 4.44844C11.3818 4.73281 11.3953 5.02396 11.3885 5.30834C11.3818 5.51823 11.4698 5.59948 11.6729 5.58594C11.8828 5.5724 12.0995 5.57916 12.3094 5.58594C12.5057 5.59271 12.5802 5.51146 12.5802 5.3151C12.5734 4.90209 12.5666 4.48229 12.5802 4.06927C12.5938 3.79844 12.5193 3.62916 12.262 3.48698C11.7135 3.17552 11.4901 2.52552 11.6729 1.92292C11.8557 1.32031 12.4177 0.934375 13.0677 0.954687C13.6703 0.975 14.1916 1.41511 14.3339 2.01771C14.476 2.63386 14.212 3.21615 13.6365 3.54115C13.5281 3.60209 13.4062 3.64948 13.413 3.81198C13.4198 4.32656 13.413 4.84115 13.413 5.3625C13.413 5.51146 13.4807 5.57917 13.6297 5.57917C13.8734 5.57917 14.124 5.5724 14.3677 5.57917C14.5573 5.58594 14.625 5.49115 14.6182 5.3151C14.6115 5.07135 14.6182 4.8276 14.6182 4.57709C14.6115 4.21146 14.7401 3.91355 15.011 3.64948C15.7557 2.925 16.5005 2.19375 17.2182 1.43541C17.5771 1.05625 17.9698 0.900523 18.4776 0.914062C19.2156 0.934375 19.9469 0.920835 20.6849 0.920835C20.8203 0.920835 20.9557 0.920835 21.0302 0.765109C21.213 0.372397 21.538 0.142187 21.9375 0C22.1541 0 22.3776 0 22.601 0C22.6214 0.00677085 22.6484 0.0203141 22.6687 0.027085C23.3052 0.257293 23.7047 0.8125 23.6573 1.40834C23.6099 2.0448 23.1698 2.56615 22.574 2.69479C21.9375 2.83021 21.3552 2.5526 21.037 1.93646C20.9557 1.78073 20.8541 1.7401 20.6985 1.7401C19.9401 1.74687 19.175 1.74687 18.4166 1.7401C18.1865 1.73334 18.0172 1.80104 17.8547 1.97031C17.2656 2.57291 16.663 3.16875 16.0604 3.76459C15.424 4.40104 15.424 4.40104 15.451 5.30156C15.451 5.30834 15.451 5.32187 15.451 5.32865C15.4375 5.50469 15.5187 5.5724 15.6948 5.5724C16.0604 5.56562 16.4193 5.5724 16.7849 5.5724C17.1776 5.5724 17.5161 5.70104 17.7937 5.97865C18.5115 6.69636 19.2291 7.41409 19.9401 8.13852C20.2312 8.43648 20.3735 8.8021 20.3735 9.21511C20.3735 9.56722 20.3802 9.92602 20.3735 10.2781C20.3666 10.488 20.4547 10.5557 20.6578 10.5625C21.5651 10.5896 21.5651 10.5896 22.1677 9.99375C22.3166 9.84477 22.3573 9.70937 22.3031 9.50625C22.1745 8.98488 22.4115 8.40938 22.8651 8.11148C23.3526 7.78648 23.8672 7.77289 24.3682 8.07086C24.8422 8.35523 25.0859 8.89687 25.0047 9.43852C24.8625 10.3323 23.9823 10.8469 23.1427 10.5151C22.9666 10.4474 22.8515 10.4406 22.7229 10.5896C22.5672 10.7656 22.3911 10.9281 22.2219 11.0974C22.0187 11.3005 21.7818 11.3953 21.4906 11.3953C21.1927 11.3885 20.9015 11.3953 20.6036 11.3953C20.4411 11.3953 20.3735 11.463 20.3735 11.6255C20.3802 11.8422 20.387 12.0656 20.3735 12.2823C20.3599 12.5193 20.4615 12.587 20.6849 12.587C21.4703 12.5802 22.2557 12.5802 23.0479 12.587C23.2443 12.587 23.3526 12.5193 23.4406 12.35C23.7724 11.7406 24.4427 11.4765 25.086 11.6932C25.5599 11.849 25.8307 12.201 26 12.6479C26 12.8849 26 13.1219 26 13.3589C25.9797 13.3995 25.9594 13.4334 25.9459 13.474C25.7156 14.0291 25.3026 14.3474 24.7068 14.3745C24.1245 14.4015 23.6844 14.124 23.4135 13.6026C23.339 13.4536 23.2375 13.4198 23.0885 13.4198C22.4385 13.4265 21.7885 13.4198 21.1318 13.4198C20.3734 13.4198 20.3735 13.4198 20.3735 14.1849C20.3735 14.6047 20.3734 14.6047 20.7932 14.6047C22.012 14.6115 21.8224 14.4693 22.7161 15.3834C22.8584 15.5255 22.9666 15.5459 23.1562 15.4781C24.1177 15.1125 25.1469 15.8911 25.0182 16.8729C24.9166 17.6786 24.2057 18.2474 23.461 18.1187C22.6146 17.9698 22.1339 17.2453 22.3235 16.399C22.3505 16.2839 22.364 16.189 22.2693 16.0943C21.45 15.3089 21.7885 15.3765 20.712 15.424C20.6985 15.424 20.6781 15.424 20.6646 15.424C20.4615 15.4104 20.3735 15.5052 20.3802 15.7084C20.387 16.1078 20.3802 16.5005 20.3802 16.9C20.387 17.3469 20.2312 17.726 19.913 18.0443C19.2698 18.6875 18.6334 19.324 17.9969 19.9672C17.6854 20.2786 17.3198 20.4276 16.8797 20.4209C16.5005 20.4141 16.1214 20.4276 15.7354 20.414C15.512 20.4073 15.4307 20.4953 15.4443 20.712C15.4578 20.9422 15.451 21.1656 15.4443 21.3959C15.4375 21.5584 15.4984 21.6802 15.6135 21.8021C16.3786 22.5604 17.137 23.3188 17.8953 24.0839C18.0104 24.199 18.139 24.2531 18.3015 24.2464C19.0531 24.2396 19.8047 24.2328 20.563 24.2464C20.8068 24.2531 20.9557 24.1922 21.0776 23.9552C21.3687 23.4 22.012 23.1495 22.6146 23.3052C23.2104 23.461 23.6437 24.0094 23.6302 24.6323C23.6031 25.3432 23.2104 25.763 22.5807 26ZM19.5203 13.088C19.5203 11.8084 19.5203 10.5354 19.5203 9.25574C19.5203 9.02551 19.4661 8.82914 19.2969 8.65988C18.613 7.97602 17.9359 7.29222 17.2521 6.60836C17.137 6.49323 17.0015 6.40521 16.8255 6.40521C16.4396 6.40521 16.0469 6.40521 15.6609 6.39844C15.5052 6.39844 15.4307 6.46615 15.4307 6.62863C15.4375 6.89949 15.4307 7.17034 15.4307 7.44113C15.4307 7.8 15.4307 7.80676 15.8031 7.80676C16.1485 7.80676 16.4802 7.85415 16.7375 8.11824C17.0964 8.47711 17.4552 8.83597 17.814 9.19477C17.9901 9.37085 18.0985 9.5875 18.1052 9.82449C18.1187 10.6302 18.112 11.4291 18.112 12.2349C18.112 12.289 18.0916 12.35 18.0646 12.4041C17.9969 12.5531 17.875 12.6411 17.7057 12.6479C17.5297 12.6547 17.401 12.5666 17.3266 12.4041C17.2791 12.3026 17.2791 12.1875 17.2791 12.0791C17.2791 11.4224 17.2724 10.7589 17.2791 10.1021C17.2791 9.89898 17.2182 9.75 17.0693 9.60784C16.8255 9.37761 16.5818 9.14062 16.3515 8.89011C16.1823 8.70727 15.9995 8.63278 15.749 8.6396C14.0969 8.64637 12.4448 8.70051 10.7995 8.61926C9.92602 8.57863 9.28278 8.8021 8.775 9.49273C8.68023 9.62136 8.60574 9.73648 8.60574 9.89898C8.6125 11.9099 8.60574 13.9276 8.60574 15.9385C8.60574 16.0943 8.65312 16.2161 8.76148 16.3245C9.03227 16.5885 9.30989 16.8594 9.56715 17.137C9.70938 17.2927 9.87187 17.3469 10.0818 17.3469C11.7474 17.3401 13.413 17.3469 15.0854 17.3401C15.4646 17.3401 15.8776 17.4416 16.2161 17.2995C16.5682 17.1573 16.7781 16.7714 17.0693 16.5141C17.225 16.3786 17.2724 16.2229 17.2724 16.0198C17.2656 15.3291 17.2656 14.6318 17.2724 13.9411C17.2724 13.562 17.4214 13.3656 17.6922 13.3656C17.9562 13.3656 18.1052 13.5552 18.1052 13.9209C18.1052 14.6656 18.1052 15.4104 18.1052 16.1552C18.1052 16.4735 17.9969 16.751 17.7666 16.9745C17.4891 17.2453 17.2115 17.5161 16.9406 17.8005C16.6969 18.0578 16.399 18.1729 16.0536 18.1661C15.9385 18.1661 15.8166 18.1729 15.7016 18.1661C15.4985 18.1526 15.4036 18.2271 15.4104 18.4437C15.4172 18.7281 15.4172 19.0193 15.4104 19.3036C15.4036 19.5 15.4849 19.5745 15.6812 19.5745C16.0672 19.5677 16.4599 19.5677 16.8459 19.5745C17.0828 19.5812 17.2656 19.4932 17.4281 19.324C18.024 18.7146 18.6265 18.1052 19.2359 17.5026C19.4255 17.3198 19.5068 17.1099 19.5068 16.8459C19.5203 15.6068 19.5203 14.3474 19.5203 13.088ZM11.375 18.8839C11.375 19.026 11.3818 19.1682 11.375 19.3172C11.3615 19.5068 11.436 19.6016 11.6391 19.5948C11.876 19.588 12.113 19.588 12.35 19.5948C12.5464 19.6016 12.6209 19.5135 12.614 19.3172C12.6073 19.114 12.614 18.9109 12.614 18.7078C12.614 18.139 12.6547 18.1729 12.0791 18.1797C11.2599 18.1865 11.3818 18.0849 11.375 18.8839ZM11.3818 7.08909C11.3818 7.25159 11.3885 7.40727 11.3818 7.56977C11.375 7.74585 11.4563 7.81352 11.6255 7.81352C11.8625 7.80676 12.0995 7.80676 12.3365 7.81352C12.4922 7.81352 12.5666 7.74585 12.5666 7.58335C12.5666 7.3125 12.5666 7.04165 12.5666 6.77085C12.5666 6.41198 12.5599 6.40521 12.1943 6.40521C12.1536 6.40521 12.113 6.40521 12.0656 6.40521C11.2666 6.41198 11.3885 6.30365 11.3818 7.08909ZM13.3995 7.00778C13.3995 7.24477 13.4062 7.40727 13.3995 7.56301C13.3927 7.73227 13.474 7.80676 13.6432 7.80676C13.8802 7.8 14.1172 7.8 14.3541 7.80676C14.5437 7.81352 14.6115 7.71875 14.6047 7.54273C14.5979 7.33284 14.6047 7.12289 14.6047 6.90625C14.6047 6.39844 14.6047 6.39166 14.0901 6.39844C13.2979 6.40521 13.413 6.30365 13.3995 7.00778ZM14.5911 18.8906C14.5911 18.7281 14.5911 18.5724 14.5911 18.4099C14.5979 18.2474 14.5166 18.1797 14.3609 18.1797C14.1172 18.1797 13.8735 18.1797 13.6229 18.1797C13.4807 18.1797 13.4062 18.2474 13.4062 18.3964C13.4062 18.7146 13.413 19.0396 13.4062 19.3578C13.4062 19.5203 13.4807 19.588 13.6365 19.588C13.8802 19.588 14.124 19.588 14.3745 19.588C14.5166 19.588 14.5911 19.5203 14.5911 19.3714C14.5911 19.2156 14.5911 19.0531 14.5911 18.8906ZM3.19584 1.34062C3.19584 1.64531 3.43281 1.89584 3.73073 1.9026C4.03541 1.90937 4.28594 1.65209 4.28594 1.34062C4.28594 1.02917 4.04896 0.792187 3.74427 0.792187C3.44635 0.792187 3.2026 1.04271 3.19584 1.34062ZM24.6459 13.5416C24.9505 13.5349 25.1943 13.2911 25.1875 12.9932C25.1807 12.6818 24.9302 12.4448 24.6052 12.4584C24.314 12.4651 24.0771 12.7089 24.0703 12.9932C24.0703 13.2979 24.3276 13.5416 24.6459 13.5416ZM13.5281 2.30209C13.5214 1.99063 13.2979 1.77396 12.9797 1.77396C12.6615 1.77396 12.438 1.9974 12.4448 2.31562C12.4448 2.63385 12.7021 2.87761 13.0068 2.87084C13.3047 2.8573 13.5281 2.61354 13.5281 2.30209ZM23.6235 9.78386C23.9281 9.79062 24.1719 9.56039 24.1854 9.25574C24.1922 8.95784 23.9552 8.70727 23.6573 8.69375C23.3255 8.68699 23.0953 8.91039 23.0953 9.23539C23.0953 9.55363 23.312 9.7771 23.6235 9.78386ZM1.32709 13.5416C1.63177 13.5416 1.88229 13.3047 1.88906 13.0068C1.89584 12.7021 1.63854 12.4516 1.32031 12.4516C1.01562 12.4584 0.771875 12.6953 0.771875 13C0.778648 13.2979 1.0224 13.5416 1.32709 13.5416ZM23.637 17.2995C23.9416 17.2995 24.1854 17.0625 24.1854 16.7578C24.1854 16.4464 23.9349 16.2026 23.6166 16.2094C23.3052 16.2161 23.0885 16.4396 23.0885 16.7646C23.0953 17.076 23.3255 17.2995 23.637 17.2995ZM2.87084 16.751C2.87084 16.426 2.65416 16.2094 2.32916 16.2094C2.01771 16.2094 1.78073 16.4464 1.77396 16.751C1.77396 17.0557 2.01771 17.2995 2.3224 17.2995C2.64062 17.2995 2.87084 17.0693 2.87084 16.751ZM2.87084 9.22863C2.87084 8.91039 2.6474 8.68699 2.3224 8.69375C2.01771 8.69375 1.77396 8.9375 1.77396 9.24222C1.77396 9.54687 2.01771 9.78386 2.32916 9.78386C2.6474 9.78386 2.87084 9.54688 2.87084 9.22863ZM13 24.2193C13.3115 24.2193 13.5552 23.989 13.5552 23.6844C13.562 23.4 13.3047 23.1291 13.0135 23.1224C12.7089 23.1156 12.438 23.3797 12.4448 23.6776C12.4515 23.9755 12.6953 24.2125 13 24.2193ZM22.2625 0.792187C21.9646 0.792187 21.7209 1.03594 21.7209 1.34062C21.7209 1.64531 21.951 1.89584 22.249 1.9026C22.5469 1.90937 22.8177 1.64531 22.811 1.34062C22.811 1.04948 22.5536 0.792187 22.2625 0.792187ZM3.18906 24.6526C3.18906 24.9573 3.43281 25.201 3.73073 25.201C4.02187 25.201 4.27916 24.9438 4.28594 24.6526C4.28594 24.3479 4.02187 24.0839 3.72396 24.0906C3.41927 24.0974 3.18229 24.3479 3.18906 24.6526ZM22.7771 24.6459C22.7771 24.3411 22.5401 24.0906 22.2422 24.0906C21.9443 24.0839 21.6802 24.3547 21.6802 24.6594C21.687 24.9505 21.951 25.2078 22.2354 25.2078C22.5469 25.201 22.7771 24.9573 22.7771 24.6459Z" fill="white"/>
</svg>
