<svg width="37" height="43" viewBox="0 0 37 43" fill="none" xmlns="http://www.w3.org/2000/svg">
<path d="M28.2914 1.72949C28.2914 1.31509 28.1267 0.917663 27.8337 0.624638C27.5407 0.331612 27.1433 0.166992 26.7289 0.166992C26.3145 0.166992 25.917 0.331612 25.624 0.624638C25.331 0.917663 25.1664 1.31509 25.1664 1.72949V17.3545C25.1664 17.7689 25.331 18.1663 25.624 18.4593C25.917 18.7524 26.3145 18.917 26.7289 18.917C27.1433 18.917 27.5407 18.7524 27.8337 18.4593C28.1267 18.1663 28.2914 17.7689 28.2914 17.3545V1.72949ZM36.6247 1.72949C36.6247 1.31509 36.4601 0.917663 36.1671 0.624638C35.874 0.331612 35.4766 0.166992 35.0622 0.166992C34.6478 0.166992 34.2504 0.331612 33.9573 0.624638C33.6643 0.917663 33.4997 1.31509 33.4997 1.72949V17.3545C33.4997 17.7689 33.6643 18.1663 33.9573 18.4593C34.2504 18.7524 34.6478 18.917 35.0622 18.917C35.4766 18.917 35.874 18.7524 36.1671 18.4593C36.4601 18.1663 36.6247 17.7689 36.6247 17.3545V1.72949ZM17.7247 7.72741L15.8455 3.54824C15.2753 2.27916 14.2628 1.26092 12.997 0.683586C11.7311 0.10625 10.2985 0.00926822 8.96637 0.410742L6.53512 1.14408L6.10595 1.28783C4.91769 1.72263 3.85283 2.43954 3.00292 3.37691C2.15301 4.31427 1.54349 5.44405 1.22678 6.66908C-0.266967 12.4441 1.35178 19.3274 5.96637 27.3212C10.5747 35.3003 15.7184 40.1441 21.458 41.7462C22.7574 42.1084 24.1284 42.128 25.4377 41.803C26.7469 41.4781 27.9496 40.8197 28.9289 39.892L30.7768 38.1441C31.7844 37.1898 32.4114 35.9022 32.5413 34.5205C32.6712 33.1388 32.2952 31.7569 31.483 30.6316L28.8143 26.9337C28.1143 25.9641 27.1284 25.2379 25.9949 24.8568C24.8614 24.4757 23.637 24.4589 22.4934 24.8087L18.3059 26.0878C18.1872 26.1232 17.9101 26.0253 17.4039 25.5795C16.681 24.9378 15.8309 23.7962 14.8914 22.1691C13.5997 19.9295 13.0372 18.3191 13.1309 17.492C13.1443 17.3687 13.2012 17.2542 13.2914 17.1691L16.4059 14.2649C17.2806 13.4492 17.8781 12.3802 18.1146 11.2078C18.3511 10.0354 18.2148 8.81841 17.7247 7.72741ZM7.4372 4.13574L9.86845 3.40449C10.4736 3.22244 11.1242 3.26663 11.6992 3.5288C12.2741 3.79098 12.7341 4.25326 12.9934 4.82949L14.8726 9.00866C15.0954 9.50432 15.1575 10.0573 15.0503 10.59C14.9431 11.1227 14.6719 11.6086 14.2747 11.9795L11.1601 14.8837C10.524 15.4775 10.1213 16.2792 10.0247 17.1441C9.8372 18.8149 10.583 20.9587 12.1851 23.7316C14.5601 27.8462 16.7705 29.8066 19.208 29.0795L23.4059 27.7962C23.9261 27.6368 24.4831 27.6444 24.9987 27.8177C25.5143 27.9911 25.9627 28.3216 26.2809 28.7628L28.9476 32.4607C29.3173 32.9724 29.4886 33.6009 29.4296 34.2294C29.3706 34.8579 29.0853 35.4435 28.6268 35.8774L26.7809 37.6253C26.1931 38.1817 25.4712 38.5765 24.6855 38.7711C23.8999 38.9657 23.0772 38.9535 22.2976 38.7357C17.4705 37.3878 12.9101 33.0962 8.67262 25.7566C4.43095 18.4107 2.99553 12.3087 4.25178 7.45241C4.43816 6.73028 4.79416 6.06304 5.29021 5.50612C5.78625 4.9492 6.40802 4.51868 7.10387 4.25033L7.4372 4.13574Z" fill="white"/>
</svg>
