<svg width="28" height="28" viewBox="0 0 28 28" fill="none" xmlns="http://www.w3.org/2000/svg">
<path d="M0 16.4603C0 12.0135 0 7.56678 0 3.12002C0.0291668 3.00339 0.058333 2.89404 0.0947918 2.7774C0.38646 1.73496 1.00625 0.954962 1.94687 0.422807C2.31146 0.218693 2.7125 0.109347 3.12083 0C7.56875 0 12.0166 0 16.4646 0C18.2511 0.32075 19.7385 1.82973 19.651 4.17703C19.6073 5.43817 19.6437 6.70656 19.6437 7.97502C19.6437 8.3468 19.651 8.36136 20.0302 8.36136C21.4156 8.36136 22.801 8.36136 24.1791 8.36136C25.0541 8.36136 25.8489 8.60922 26.5489 9.14138C27.3437 9.75369 27.8031 10.5702 28 11.5397C28 15.9865 28 20.4332 28 24.88C27.9708 24.9966 27.9344 25.106 27.9052 25.2226C27.6062 26.2796 26.9791 27.0742 26.0094 27.599C25.6521 27.7886 25.2656 27.8906 24.8864 28C20.4385 28 15.9906 28 11.5427 28C9.74166 27.672 8.26876 26.163 8.35626 23.823C8.4 22.5618 8.36354 21.2934 8.36354 20.025C8.36354 19.6532 8.35626 19.6386 7.97709 19.6386C6.59169 19.6386 5.20625 19.6459 3.82812 19.6386C2.7125 19.6314 1.75 19.2377 0.977083 18.414C0.444794 17.8599 0.153125 17.1893 0 16.4603ZM27.0448 18.188C27.0448 16.2416 27.0375 14.288 27.0448 12.3416C27.0521 10.315 25.499 9.30177 24.0625 9.35278C22.7354 9.4038 21.401 9.36006 20.0739 9.36006C19.6437 9.36006 19.6437 9.36006 19.6437 9.78286C19.6437 11.7657 19.6437 13.7558 19.6437 15.7386C19.6437 16.5623 19.4396 17.3278 18.9583 18.0057C18.1781 19.0919 17.1062 19.6241 15.7791 19.6314C13.7739 19.6459 11.7687 19.6314 9.76351 19.6386C9.38435 19.6386 9.36978 19.6459 9.36978 20.0177C9.36978 21.4173 9.36978 22.8243 9.36978 24.2239C9.36978 24.3624 9.36978 24.5009 9.39897 24.6321C9.64689 26.112 10.7406 27.0305 12.2937 27.0378C16.2239 27.045 20.1469 27.045 24.0771 27.0378C25.076 27.0378 25.9073 26.6951 26.5125 25.8714C26.9208 25.3174 27.0448 24.6832 27.0448 24.0125C27.0448 22.0734 27.0448 20.1271 27.0448 18.188ZM0.955209 15.2429C0.955209 15.4033 0.947916 15.571 0.955209 15.7313C0.977083 16.2343 1.05729 16.7227 1.30521 17.1747C1.41458 17.3788 1.51667 17.4007 1.6625 17.2184C1.70625 17.1601 1.76458 17.1164 1.81563 17.0653C6.37289 12.5166 10.9375 7.95312 15.5021 3.38974C16.0854 2.80656 16.6541 2.22338 17.2448 1.65478C17.4198 1.48711 17.3833 1.39964 17.1864 1.29758C16.8729 1.14449 16.5521 1.02786 16.2021 0.991407C15.8667 0.954962 15.5239 0.984116 15.1958 0.947671C14.6781 0.889353 14.3209 1.07888 13.9563 1.45066C9.8146 5.6131 5.6656 9.76102 1.50209 13.8943C1.10833 14.288 0.809376 14.6597 0.955209 15.2429ZM0.947916 12.9102C4.93646 8.9227 8.93231 4.92788 12.9063 0.954962C11.8781 0.954962 10.7917 0.954962 9.71248 0.954962C9.56667 0.954962 9.47918 1.04973 9.39169 1.14449C6.64271 3.88545 3.89375 6.6337 1.15208 9.37462C1.01354 9.51317 0.955209 9.65894 0.955209 9.85578C0.962497 10.8107 0.955209 11.7657 0.962497 12.728C0.955209 12.8081 0.926043 12.8883 0.947916 12.9102ZM17.1792 9.36734C16.8146 9.36734 16.45 9.37462 16.0854 9.36734C15.9104 9.36006 15.7719 9.41836 15.6479 9.54229C13.6136 11.5762 11.5792 13.6173 9.54477 15.6438C9.42081 15.7678 9.3625 15.899 9.3625 16.0812C9.36978 16.7737 9.3625 17.4663 9.3625 18.1588C9.3625 18.6181 9.53021 18.7493 9.9823 18.618C10.1135 18.5816 10.1865 18.4723 10.2813 18.3848C12.9791 15.6876 15.6771 12.9904 18.3823 10.2931C18.5791 10.0964 18.6448 9.89951 18.6302 9.6371C18.6229 9.44026 18.55 9.36006 18.3531 9.36006C17.9667 9.37462 17.5729 9.36734 17.1792 9.36734ZM8.35626 13.7485C8.35626 13.2382 8.35626 12.728 8.35626 12.2176C8.35626 12.1666 8.37082 12.101 8.31251 12.0719C8.25414 12.0427 8.21773 12.101 8.17393 12.1374C8.13018 12.1739 8.09377 12.2104 8.05731 12.2541C6.18334 14.1276 4.30937 16.001 2.43542 17.8745C2.39896 17.911 2.3625 17.9547 2.31875 17.9911C2.20208 18.1005 2.21666 18.188 2.35521 18.2682C2.6177 18.414 2.89479 18.5233 3.19375 18.5816C3.7625 18.6837 4.33854 18.6108 4.90729 18.6399C5.075 18.6472 5.19896 18.5889 5.31562 18.4723C6.26355 17.5173 7.21877 16.5623 8.17393 15.6147C8.29789 15.4908 8.34897 15.3522 8.34897 15.1773C8.34897 14.6889 8.35626 14.215 8.35626 13.7485ZM13.7229 8.35408C14.2115 8.35408 14.7073 8.35408 15.1958 8.35408C15.3489 8.35408 15.4729 8.31034 15.5823 8.20098C16.5521 7.23145 17.5146 6.2692 18.4844 5.30695C18.5791 5.21218 18.6375 5.11013 18.6302 4.97162C18.6229 4.49779 18.6375 4.02395 18.6229 3.55011C18.6083 3.14189 18.4771 2.77011 18.2875 2.40563C18.1854 2.2088 18.0906 2.2088 17.9448 2.36188C16.0198 4.28639 14.0948 6.2109 12.1771 8.1354C12.126 8.18642 12.0385 8.23015 12.0823 8.31034C12.1188 8.38326 12.2135 8.35408 12.2865 8.35408C12.7604 8.35408 13.2417 8.35408 13.7229 8.35408ZM8.1448 1.02786C8.02812 0.97683 8.00622 0.962248 7.97709 0.962248C7.1604 0.962248 6.33648 0.962248 5.51979 0.962248C5.38127 0.962248 5.27916 1.03515 5.19166 1.12991C3.83542 2.47852 2.47188 3.83442 1.11562 5.19032C1.02812 5.27779 0.955209 5.36527 0.955209 5.49648C0.955209 6.30566 0.955209 7.1148 0.955209 7.924C0.955209 7.96774 0.96979 8.02603 0.998957 8.04059C1.05729 8.07705 1.09375 8.01875 1.13021 7.9823C1.17396 7.93856 1.21771 7.89482 1.26875 7.85109C3.25937 5.86096 5.25 3.87087 7.24061 1.88076C7.51772 1.60375 7.81667 1.34132 8.1448 1.02786ZM11.5427 18.6254C12.4104 18.6254 13.2708 18.6254 14.1385 18.6254C14.2698 18.6254 14.35 18.5379 14.4375 18.4577C15.7791 17.1164 17.1135 15.7824 18.4552 14.4411C18.5791 14.3171 18.6375 14.1859 18.6375 14.0036C18.6302 13.2965 18.6375 12.5821 18.6302 11.875C18.6302 11.7584 18.6666 11.6418 18.6156 11.5543C16.2604 13.9089 13.9125 16.2562 11.5427 18.6254ZM14.35 9.36734C13.5625 9.36734 12.8041 9.36006 12.0385 9.36734C10.7625 9.38924 9.6177 10.3588 9.42809 11.6272C9.28957 12.5092 9.38435 13.4059 9.38435 14.2952C9.38435 14.3098 9.40625 14.3244 9.39897 14.3171C11.0396 12.6769 12.6802 11.0367 14.35 9.36734ZM0.984376 3.76881C1.90312 2.8503 2.85104 1.90263 3.76979 0.984116C2.18021 0.87477 0.845836 2.36918 0.984376 3.76881ZM18.6302 15.7459C18.55 15.7824 18.5208 15.7896 18.5063 15.8042C17.624 16.6863 16.7416 17.5683 15.8521 18.4504C15.8156 18.4868 15.7573 18.5233 15.7865 18.5889C15.8156 18.6472 15.8813 18.6254 15.9396 18.6254C16.4719 18.6108 16.9677 18.465 17.4052 18.1588C18.2219 17.5829 18.6229 16.7956 18.6302 15.7459ZM18.6302 6.72118C18.076 7.24601 17.5146 7.78546 16.9312 8.3468C17.4416 8.3468 17.9375 8.3468 18.4333 8.3468C18.5719 8.3468 18.6229 8.25933 18.6229 8.1354C18.6302 7.64697 18.6302 7.15854 18.6302 6.72118ZM8.34897 16.956C7.7802 17.5173 7.22605 18.064 6.65 18.6254C7.1604 18.6254 7.66352 18.6254 8.16665 18.6254C8.27604 18.6254 8.34164 18.5597 8.34164 18.4577C8.35626 17.9474 8.34897 17.4444 8.34897 16.956Z" fill="white"/>
</svg>
