<svg width="28" height="28" viewBox="0 0 28 28" fill="none" xmlns="http://www.w3.org/2000/svg">
<path d="M13.8563 9.125C18.0903 9.18313 21.1535 12.2894 21.6507 16.0185C21.9072 17.937 21.5384 19.7227 20.5601 21.3755C20.4318 21.5831 20.4478 21.741 20.5601 21.9403C21.2497 23.1695 21.9313 24.3987 22.6209 25.6279C22.7492 25.8522 22.8375 26.0764 22.6771 26.3173C22.5087 26.5664 22.2681 26.583 22.0115 26.5332C21.37 26.4252 20.7285 26.3256 20.087 26.2093C19.8945 26.1761 19.7822 26.2508 19.678 26.392C19.3572 26.8073 19.0365 27.2142 18.7158 27.6212C18.3068 28.1279 17.97 28.103 17.6492 27.5299C17.2082 26.7409 16.7591 25.9518 16.3341 25.1628C16.2139 24.9386 16.0856 24.8638 15.829 24.9386C14.6181 25.2542 13.3912 25.2542 12.1804 24.9386C11.9318 24.8721 11.8196 24.9469 11.6993 25.1628C11.2582 25.9768 10.8012 26.7824 10.3521 27.588C10.0634 28.103 9.71057 28.1362 9.34171 27.6711C9.00491 27.2558 8.68416 26.8405 8.35542 26.4169C8.22711 26.2508 8.0988 26.201 7.89031 26.2425C7.26483 26.3671 6.63134 26.4584 5.99786 26.5664C5.7493 26.608 5.51675 26.5913 5.35637 26.3588C5.18795 26.1179 5.26013 25.8937 5.38844 25.6611C6.07004 24.4569 6.73559 23.2359 7.4252 22.0317C7.56957 21.7742 7.57757 21.5915 7.4172 21.334C4.56249 16.5584 7.36107 10.1881 12.7096 9.28281C13.1347 9.18313 13.5757 9.15821 13.8563 9.125ZM14.0167 10.2047C10.312 10.2047 7.29689 13.3109 7.29689 17.1314C7.29689 20.9602 10.304 24.0914 13.9926 24.0914C17.6894 24.0914 20.7045 20.9851 20.7045 17.1564C20.7125 13.3275 17.7134 10.2047 14.0167 10.2047ZM21.2658 25.3289C20.7525 24.4153 20.2875 23.5599 19.8144 22.7127C19.6941 22.4968 19.6059 22.6546 19.5176 22.7459C18.8841 23.427 18.1545 23.9585 17.3365 24.3655C17.1601 24.4486 17.1441 24.5316 17.2322 24.6977C17.529 25.221 17.8257 25.7525 18.1143 26.284C18.2186 26.4834 18.2988 26.4419 18.4191 26.2923C18.6436 26.0017 18.8922 25.7276 19.1007 25.4203C19.3172 25.1047 19.5978 25.0466 19.9427 25.1047C20.3516 25.1877 20.7686 25.2459 21.2658 25.3289ZM6.73559 25.3289C7.24077 25.2459 7.66576 25.1794 8.08274 25.1047C8.41955 25.0466 8.68416 25.113 8.89266 25.4203C9.08509 25.7027 9.3257 25.9601 9.52614 26.2425C9.67851 26.4584 9.7667 26.4751 9.90306 26.2259C10.1757 25.7193 10.4564 25.221 10.745 24.7226C10.8493 24.5399 10.8332 24.4486 10.6327 24.3489C9.95919 24.025 9.35777 23.5848 8.79641 23.0698C8.62804 22.912 8.49173 22.5965 8.29124 22.6297C8.07474 22.6629 8.01862 23.0034 7.89831 23.2193C7.52144 23.9004 7.15258 24.5814 6.73559 25.3289Z" fill="white"/>
<path d="M11.4656 6.93535C11.5618 6.34564 11.658 5.72273 11.7863 5.10814C11.8264 4.8922 11.7703 4.76761 11.6179 4.62642C11.217 4.24437 10.8241 3.8374 10.4231 3.44705C10.2547 3.28094 10.1505 3.08991 10.2307 2.84075C10.3109 2.59159 10.4953 2.49192 10.7278 2.467C11.2731 2.39225 11.8184 2.3009 12.3637 2.23445C12.5882 2.20953 12.7005 2.10987 12.7887 1.91054C13.0132 1.4039 13.2618 0.905577 13.4944 0.398947C13.5986 0.166393 13.7509 -0.00802084 14.0156 0.000284621C14.2641 0.00859005 14.4085 0.174699 14.5047 0.390641C14.7373 0.905577 14.9858 1.41221 15.2184 1.92715C15.2986 2.11818 15.4109 2.20123 15.6194 2.22614C16.1727 2.28429 16.726 2.38395 17.2792 2.4587C17.5037 2.49192 17.6802 2.59159 17.7604 2.82414C17.8406 3.065 17.7684 3.27263 17.592 3.44705C17.183 3.85401 16.774 4.26929 16.3571 4.66795C16.2368 4.78423 16.1887 4.9005 16.2207 5.07492C16.325 5.61475 16.4132 6.15462 16.5014 6.69448C16.5495 6.96856 16.5896 7.23435 16.325 7.42537C16.0764 7.60811 15.8519 7.50842 15.6274 7.37553C15.1622 7.10974 14.6891 6.86058 14.2321 6.5948C14.0637 6.49517 13.9273 6.49517 13.759 6.5948C13.2538 6.88551 12.7406 7.17621 12.2274 7.45029C11.8425 7.65789 11.4656 7.40874 11.4656 6.93535ZM16.1566 3.3723C15.7637 3.31416 15.4429 3.26433 15.1302 3.23111C14.8174 3.19788 14.5929 3.05669 14.4726 2.74109C14.3845 2.50023 14.2561 2.27598 14.1438 2.04342C14.1118 1.97698 14.0958 1.8607 13.9995 1.86901C13.9113 1.87732 13.8953 1.98529 13.8632 2.05173C13.767 2.25106 13.6547 2.45039 13.5745 2.66633C13.4382 3.05669 13.1736 3.21449 12.7807 3.25602C12.492 3.28094 12.1873 3.28094 11.9146 3.40552C12.1552 3.66299 12.3717 3.92876 12.6123 4.15301C12.8448 4.36895 12.925 4.61812 12.8528 4.93372C12.7967 5.1912 12.7566 5.45697 12.7085 5.72273C12.7005 5.7892 12.6684 5.88054 12.7245 5.93038C12.7887 5.98851 12.8528 5.91375 12.9089 5.88054C13.1576 5.74765 13.4061 5.6231 13.6467 5.47358C13.8873 5.32408 14.1118 5.33238 14.3523 5.47358C14.5929 5.6231 14.8415 5.74765 15.0901 5.88883C15.1462 5.92209 15.2104 5.9968 15.2745 5.9221C15.3066 5.88883 15.2986 5.80578 15.2906 5.74765C15.2424 5.47358 15.2024 5.1995 15.1462 4.92542C15.0821 4.62642 15.1542 4.38557 15.3707 4.16962C15.6274 3.92876 15.8599 3.6796 16.1566 3.3723Z" fill="white"/>
<path d="M24.2342 4.50813C24.4667 4.49982 24.6111 4.65762 24.7153 4.88187C24.9479 5.3885 25.1964 5.88683 25.4129 6.39348C25.5092 6.62601 25.6615 6.7174 25.886 6.74227C26.3913 6.80045 26.8964 6.87516 27.4016 6.94163C27.6502 6.97484 27.8827 7.04961 27.971 7.32368C28.0672 7.61434 27.9228 7.81371 27.7304 8.00473C27.3375 8.38678 26.9526 8.77712 26.5596 9.15917C26.4394 9.27543 26.3913 9.39174 26.4313 9.56614C26.5356 10.0894 26.6238 10.6209 26.712 11.1525C26.7601 11.4349 26.8162 11.7172 26.5436 11.9166C26.2709 12.1159 26.0304 11.983 25.7898 11.8419C25.3648 11.601 24.9398 11.3768 24.5229 11.1276C24.3063 10.9947 24.1299 10.9947 23.9134 11.1276C23.4563 11.4017 22.9832 11.6508 22.5181 11.9083C22.3016 12.0329 22.0851 12.0744 21.8686 11.9C21.6761 11.7422 21.6521 11.5262 21.6922 11.2854C21.7964 10.7123 21.8846 10.1476 21.9969 9.57442C22.029 9.40003 21.9889 9.27543 21.8686 9.15917C21.4757 8.77712 21.0908 8.38678 20.6978 7.99644C20.5134 7.81371 20.337 7.62268 20.4412 7.32368C20.5375 7.04126 20.762 6.95821 21.0266 6.925C21.5398 6.85858 22.0531 6.77553 22.5743 6.70906C22.7827 6.68414 22.911 6.58451 22.9993 6.38514C23.2238 5.87854 23.4724 5.3802 23.7049 4.87356C23.8091 4.66593 23.9535 4.50813 24.2342 4.50813ZM25.5573 10.5213C25.4931 10.1226 25.453 9.77379 25.3728 9.43324C25.2927 9.10103 25.3969 8.85188 25.6295 8.62765C25.8139 8.4532 25.9983 8.27881 26.1747 8.09607C26.2309 8.04623 26.3271 7.99644 26.287 7.90505C26.2549 7.82199 26.1667 7.8552 26.1026 7.84692C25.838 7.80536 25.5733 7.75558 25.3007 7.73065C24.996 7.70573 24.8115 7.54792 24.6912 7.26555C24.587 7.0164 24.4747 6.77553 24.3544 6.54295C24.3224 6.47653 24.3144 6.36022 24.2181 6.36856C24.1459 6.37685 24.1299 6.46819 24.0978 6.53467C23.9856 6.77553 23.8573 7.0164 23.753 7.25721C23.6328 7.54792 23.4403 7.71402 23.1195 7.73894C22.7908 7.77215 22.462 7.83863 22.1172 7.88847C22.3738 8.17083 22.5983 8.42828 22.8469 8.66914C23.0714 8.88509 23.1356 9.12596 23.0714 9.42495C23.0233 9.67411 22.9832 9.93161 22.9351 10.1891C22.9191 10.2721 22.879 10.3718 22.9432 10.4216C23.0313 10.4963 23.1035 10.3967 23.1837 10.3552C23.4002 10.2472 23.6167 10.1392 23.8172 10.0063C24.0978 9.83192 24.3544 9.84021 24.6351 10.0147C24.9077 10.1808 25.2045 10.3302 25.5573 10.5213Z" fill="white"/>
<path d="M1.25862 11.4096C1.35485 10.8366 1.45909 10.2054 1.57937 9.57415C1.61145 9.3997 1.57136 9.28344 1.45107 9.16718C1.05013 8.77679 0.657206 8.37816 0.256267 7.98777C0.0718328 7.80509 -0.0644874 7.60572 0.0317388 7.33164C0.119946 7.05757 0.344471 6.97451 0.593058 6.94131C1.13834 6.86654 1.68362 6.78349 2.2289 6.70878C2.3973 6.68386 2.49353 6.6091 2.56569 6.45128C2.80626 5.92805 3.05485 5.4048 3.29541 4.88156C3.39966 4.65731 3.53598 4.50781 3.79258 4.50781C4.04918 4.50781 4.1855 4.66562 4.28975 4.88156C4.53031 5.39649 4.78691 5.90313 5.01144 6.41807C5.09964 6.61739 5.21994 6.70878 5.41238 6.73365C5.91755 6.80012 6.42278 6.87489 6.92796 6.93302C7.19258 6.96623 7.44919 7.01607 7.55344 7.32335C7.66569 7.63898 7.48926 7.83001 7.28882 8.02103C6.9039 8.40308 6.52703 8.78513 6.1341 9.15889C6.0058 9.28344 5.96568 9.41633 6.0058 9.59907C6.11804 10.1638 6.20623 10.7369 6.31048 11.31C6.3586 11.5592 6.31048 11.7668 6.11004 11.9163C5.91755 12.0658 5.71712 12.0325 5.51662 11.9246C5.06757 11.6754 4.60248 11.4428 4.16947 11.1688C3.89682 10.9944 3.67229 11.0027 3.39966 11.1688C2.9506 11.4428 2.49352 11.6921 2.02843 11.9329C1.62749 12.1572 1.25862 11.9163 1.25862 11.4096ZM3.78456 6.26026C3.60013 6.6506 3.44777 6.96623 3.30343 7.29014C3.19116 7.54759 3.01475 7.69711 2.73409 7.72204C2.45343 7.74696 2.18079 7.79674 1.90013 7.8383C1.83598 7.84659 1.74777 7.82166 1.7157 7.90472C1.68362 7.98777 1.76381 8.02932 1.81192 8.07916C2.02041 8.28676 2.2289 8.49442 2.44541 8.69373C2.63786 8.87647 2.70201 9.1007 2.6539 9.36649C2.59777 9.64057 2.54966 9.91465 2.50154 10.1887C2.48551 10.2635 2.45343 10.3632 2.53362 10.4213C2.59777 10.4628 2.66192 10.3964 2.72607 10.3632C2.94258 10.2469 3.15909 10.1472 3.35956 10.0143C3.6322 9.83159 3.89682 9.8233 4.17748 9.9977C4.40201 10.1389 4.63456 10.2552 4.85909 10.3797C4.91522 10.413 4.98739 10.4794 5.05154 10.4379C5.1317 10.3797 5.08363 10.2884 5.06757 10.2054C5.02748 9.96449 4.98739 9.71533 4.93927 9.47447C4.87512 9.14226 4.93125 8.86818 5.19588 8.6356C5.40438 8.45292 5.58881 8.25356 5.78124 8.06253C5.82136 8.02103 5.89349 7.98777 5.86949 7.91306C5.84542 7.84659 5.77324 7.85493 5.70906 7.84659C5.42844 7.80509 5.15576 7.75525 4.87512 7.73032C4.57041 7.7054 4.37795 7.54759 4.25767 7.26522C4.12135 6.94959 3.96899 6.64231 3.78456 6.26026Z" fill="white"/>
<path d="M18.7647 17.1683C18.7647 19.8925 16.6156 22.0851 13.9694 22.0851C11.3552 22.0769 9.23828 19.8593 9.23828 17.1351C9.23828 14.4109 11.3793 12.2183 14.0255 12.2266C16.6477 12.2266 18.7647 14.4441 18.7647 17.1683ZM17.7222 17.1517C17.7222 14.9923 16.1024 13.3063 14.0175 13.298C11.9166 13.2897 10.2888 14.9757 10.2807 17.1434C10.2807 19.3028 11.9005 20.9888 13.9855 20.9971C16.0863 21.0138 17.7222 19.3278 17.7222 17.1517Z" fill="white"/>
<path d="M13.1406 19.4623C12.9321 19.4623 12.7717 19.3709 12.6755 19.1799C12.3708 18.6317 12.058 18.0919 11.7694 17.5354C11.617 17.253 11.6972 16.9457 11.9297 16.7962C12.1783 16.6384 12.467 16.7132 12.6514 17.0122C12.8118 17.2696 12.9642 17.5437 13.1005 17.8178C13.2047 18.0254 13.2849 18.0337 13.4453 17.8676C14.0547 17.2281 14.6722 16.5886 15.2896 15.9574C15.3618 15.8826 15.426 15.8079 15.5061 15.7498C15.7306 15.5836 15.9632 15.5919 16.1637 15.7913C16.3561 15.9823 16.3561 16.2149 16.2359 16.4474C16.1877 16.5388 16.1156 16.6135 16.0434 16.6882C15.2415 17.5271 14.4316 18.3576 13.6298 19.1882C13.4854 19.3294 13.3491 19.4623 13.1406 19.4623Z" fill="white"/>
</svg>
