<svg width="28" height="22" viewBox="0 0 28 22" fill="none" xmlns="http://www.w3.org/2000/svg">
<path d="M0 1.66875C0.189834 1.04834 0.540297 0.54916 1.1463 0.242519C2.37292 -0.37789 3.84779 0.242519 4.22015 1.55465C4.29316 1.8185 4.40996 1.87555 4.66553 1.87555C7.46192 1.86842 10.2583 1.86842 13.0547 1.87555C13.3103 1.87555 13.4125 1.81137 13.4782 1.56178C13.7338 0.620471 14.5953 -0.00707098 15.581 6.01506e-05C16.5593 0.00719128 17.4136 0.648996 17.6546 1.59031C17.7129 1.81137 17.8079 1.87555 18.0269 1.86842C18.83 1.86129 19.6332 1.86129 20.429 1.86842C22.9261 1.88981 25.0726 3.77957 25.3647 6.20414C25.7152 9.15645 23.3788 11.7165 20.3341 11.7237C18.4139 11.7237 16.4936 11.7237 14.5661 11.7165C14.3471 11.7165 14.2302 11.7736 14.128 11.9732C13.7264 12.7077 13.0912 13.1071 12.2297 13.1142C11.3535 13.1214 10.7037 12.7292 10.2948 11.9946C10.1707 11.7807 10.0466 11.7165 9.80564 11.7165C8.54253 11.7237 7.27208 11.7165 6.00897 11.7237C3.9062 11.7308 2.2196 13.1784 1.93484 15.2179C1.62089 17.4856 3.51193 19.625 5.85566 19.6535C5.89215 19.6535 5.92864 19.6464 5.96518 19.6535C6.49816 19.7319 6.82671 19.625 7.02385 19.0188C7.27937 18.2201 8.24317 17.721 9.09741 17.7851C10.0101 17.8564 10.8059 18.4626 11.0323 19.3112C11.1053 19.5822 11.2148 19.6535 11.4923 19.6535C14.7997 19.6464 18.1072 19.6464 21.4147 19.6535C21.6557 19.6535 21.8236 19.6107 21.9258 19.3682C22.0353 19.1187 22.2471 18.9333 22.4953 18.812C22.6705 18.7265 22.7216 18.6195 22.7216 18.4341C22.7143 16.7511 22.7143 15.0682 22.7143 13.3923C22.7143 13.1713 22.707 12.9502 22.7216 12.722C22.7362 12.4582 22.9042 12.2656 23.1451 12.23C23.408 12.2014 23.5978 12.3155 23.6781 12.5509C23.7365 12.7434 23.8606 12.7577 24.0286 12.7577C25.1311 12.7577 26.2336 12.7577 27.336 12.7577C27.5113 12.7577 27.6792 12.7719 27.8252 12.886C28.0297 13.0572 28.0589 13.3139 27.891 13.5564C27.6792 13.8701 27.4602 14.1768 27.2338 14.4763C27.1243 14.6189 27.1243 14.733 27.2338 14.8827C27.4456 15.1537 27.6281 15.439 27.8325 15.7099C27.9713 15.9025 28.0662 16.1022 27.9421 16.3304C27.8252 16.5586 27.5989 16.6085 27.3653 16.6085C26.2701 16.6085 25.1822 16.6085 24.087 16.6085C23.7292 16.6085 23.7292 16.6085 23.7292 16.9722C23.7292 17.4642 23.7365 17.9491 23.7292 18.4412C23.7292 18.6124 23.7876 18.7122 23.941 18.7977C24.547 19.1401 24.8317 19.7391 24.7076 20.3737C24.5835 20.9941 24.0724 21.4648 23.3861 21.5432C22.7655 21.6146 22.2763 21.365 21.955 20.8515C21.8382 20.6661 21.7067 20.609 21.495 20.609C18.1072 20.6162 14.7194 20.6162 11.3316 20.609C11.1345 20.609 11.0031 20.6447 10.9008 20.8444C10.5066 21.586 9.86407 21.9854 9.00979 21.9996C8.14825 22.0139 7.48381 21.6288 7.06764 20.8872C6.95082 20.6732 6.81941 20.5948 6.57849 20.609C5.54171 20.6519 4.54872 20.5092 3.61414 20.0315C1.72311 19.0616 0.62791 16.9294 0.985674 14.9113C1.37264 12.7577 3.03734 11.1318 5.17662 10.818C5.5563 10.761 5.93594 10.7681 6.32292 10.7681C7.46192 10.761 8.60091 10.761 9.73991 10.7681C9.96629 10.7681 10.0539 10.6968 10.1123 10.4828C10.3533 9.52728 11.2075 8.88545 12.2078 8.87832C13.1861 8.8712 14.0404 9.49873 14.2959 10.4472C14.3617 10.6896 14.4566 10.7681 14.7194 10.7681C16.5593 10.7538 18.3993 10.7681 20.2392 10.761C22.2982 10.7538 23.9045 9.49873 24.3352 7.58046C24.8682 5.2272 23.0064 2.8953 20.5386 2.84538C19.6551 2.82399 18.7717 2.84538 17.8882 2.83825C17.7056 2.83825 17.5961 2.8953 17.5012 3.05932C17.0923 3.81522 16.4279 4.22882 15.5591 4.2217C14.6975 4.21456 14.0477 3.81522 13.6461 3.05932C13.5585 2.8953 13.449 2.83825 13.2592 2.83825C10.324 2.84538 7.39623 2.84538 4.4611 2.83825C4.29316 2.83825 4.17634 2.88104 4.08873 3.04506C3.65065 3.86514 2.94242 4.28588 2.01516 4.22882C1.05869 4.16465 0.394268 3.65121 0.0730129 2.75268C0.0511091 2.69563 0.0219037 2.63858 0 2.58153C0 2.27489 0 1.97539 0 1.66875ZM25.1457 15.6387C25.5108 15.6387 25.8758 15.6387 26.2409 15.6387C26.3285 15.6387 26.4453 15.6814 26.4891 15.5959C26.5329 15.5103 26.4234 15.439 26.3796 15.3677C25.905 14.6902 25.905 14.6902 26.3723 14.0199C26.3942 13.9913 26.4088 13.9628 26.4307 13.9343C26.5475 13.7917 26.4964 13.7418 26.3212 13.7418C25.54 13.7418 24.7587 13.7489 23.9701 13.7418C23.8022 13.7418 23.7219 13.7917 23.7219 13.97C23.7292 14.4478 23.7292 14.9327 23.7219 15.4104C23.7219 15.5887 23.7949 15.6458 23.9701 15.6387C24.3644 15.6387 24.7587 15.6387 25.1457 15.6387ZM8.9587 21.0441C9.6231 21.0441 10.1415 20.552 10.1488 19.9102C10.1561 19.2684 9.63774 18.7621 8.9733 18.7621C8.3089 18.7621 7.78317 19.2613 7.78317 19.9031C7.77587 20.5378 8.29426 21.0441 8.9587 21.0441ZM11.0396 11.0105C11.0396 11.6595 11.5506 12.1658 12.2078 12.1729C12.8576 12.1729 13.3833 11.6595 13.3833 11.0177C13.3833 10.3759 12.8649 9.86243 12.2078 9.86243C11.5506 9.84817 11.0323 10.3616 11.0396 11.0105ZM2.14658 3.26612C2.811 3.26612 3.32209 2.75981 3.32209 2.11801C3.32209 1.47621 2.8037 0.984157 2.13928 0.984157C1.47486 0.984157 0.94917 1.4976 0.956468 2.13227C0.956468 2.75981 1.48216 3.26612 2.14658 3.26612ZM16.7273 2.12514C16.7273 1.46194 16.2308 0.984157 15.5591 0.977025C14.8874 0.977025 14.3836 1.46908 14.3836 2.12514C14.3836 2.75981 14.8947 3.25899 15.5445 3.25899C16.2162 3.26612 16.7273 2.77407 16.7273 2.12514ZM23.2254 19.6107C22.9334 19.6107 22.6924 19.8389 22.6997 20.1099C22.707 20.3666 22.948 20.6019 23.2108 20.6019C23.4883 20.609 23.7438 20.3737 23.7438 20.1027C23.7584 19.8318 23.5175 19.6107 23.2254 19.6107Z" fill="white"/>
</svg>
